<mxfile host="app.diagrams.net" modified="2023-09-24T15:38:32.154Z" agent="Mozilla/5.0 (Windows NT 10.0; Win64; x64) AppleWebKit/537.36 (KHTML, like Gecko) Chrome/117.0.0.0 Safari/537.36 Edg/117.0.2045.36" etag="XTVtAaI3HE4-tHRnOjxi" version="21.8.1" type="device">
  <diagram name="Page-1" id="kVlpEGEyH8HJe6r7HzL_">
    <mxGraphModel dx="368" dy="1376" grid="1" gridSize="10" guides="1" tooltips="1" connect="1" arrows="1" fold="1" page="1" pageScale="1" pageWidth="827" pageHeight="1169" math="0" shadow="0">
      <root>
        <mxCell id="0" />
        <mxCell id="1" parent="0" />
        <mxCell id="OhlhrGluSOzxVFJqOo-0-3" value="" style="rounded=1;whiteSpace=wrap;html=1;fillColor=#dae8fc;strokeColor=#6c8ebf;" parent="1" vertex="1">
          <mxGeometry x="130" y="160" width="140" height="120" as="geometry" />
        </mxCell>
        <mxCell id="OhlhrGluSOzxVFJqOo-0-1" value="MakeReservView" style="rounded=0;whiteSpace=wrap;html=1;" parent="1" vertex="1">
          <mxGeometry x="140" y="190" width="120" height="40" as="geometry" />
        </mxCell>
        <mxCell id="OhlhrGluSOzxVFJqOo-0-2" value="ReservListingView" style="rounded=0;whiteSpace=wrap;html=1;" parent="1" vertex="1">
          <mxGeometry x="140" y="230" width="120" height="40" as="geometry" />
        </mxCell>
        <mxCell id="OhlhrGluSOzxVFJqOo-0-4" value="Views" style="text;html=1;strokeColor=none;fillColor=none;align=center;verticalAlign=middle;whiteSpace=wrap;rounded=0;" parent="1" vertex="1">
          <mxGeometry x="170" y="160" width="60" height="30" as="geometry" />
        </mxCell>
        <mxCell id="OhlhrGluSOzxVFJqOo-0-5" value="" style="rounded=1;whiteSpace=wrap;html=1;fillColor=#dae8fc;strokeColor=#6c8ebf;" parent="1" vertex="1">
          <mxGeometry x="315" y="130" width="200" height="290" as="geometry" />
        </mxCell>
        <mxCell id="OhlhrGluSOzxVFJqOo-0-11" value="" style="edgeStyle=orthogonalEdgeStyle;rounded=0;orthogonalLoop=1;jettySize=auto;html=1;" parent="1" source="OhlhrGluSOzxVFJqOo-0-6" target="OhlhrGluSOzxVFJqOo-0-10" edge="1">
          <mxGeometry relative="1" as="geometry" />
        </mxCell>
        <mxCell id="OhlhrGluSOzxVFJqOo-0-6" value="MainWindowViewModel" style="rounded=0;whiteSpace=wrap;html=1;" parent="1" vertex="1">
          <mxGeometry x="330" y="240" width="170" height="40" as="geometry" />
        </mxCell>
        <mxCell id="OhlhrGluSOzxVFJqOo-0-7" value="ReservListingViewModel" style="rounded=0;whiteSpace=wrap;html=1;" parent="1" vertex="1">
          <mxGeometry x="330" y="320" width="170" height="40" as="geometry" />
        </mxCell>
        <mxCell id="OhlhrGluSOzxVFJqOo-0-8" value="ViewModels" style="text;html=1;strokeColor=none;fillColor=none;align=center;verticalAlign=middle;whiteSpace=wrap;rounded=0;" parent="1" vertex="1">
          <mxGeometry x="385" y="130" width="60" height="30" as="geometry" />
        </mxCell>
        <mxCell id="OhlhrGluSOzxVFJqOo-0-9" value="MakeReservViewModel" style="rounded=0;whiteSpace=wrap;html=1;" parent="1" vertex="1">
          <mxGeometry x="330" y="280" width="170" height="40" as="geometry" />
        </mxCell>
        <mxCell id="OhlhrGluSOzxVFJqOo-0-10" value="ViewModelBase" style="rounded=0;whiteSpace=wrap;html=1;" parent="1" vertex="1">
          <mxGeometry x="329" y="170" width="170" height="40" as="geometry" />
        </mxCell>
        <mxCell id="OhlhrGluSOzxVFJqOo-0-12" value="ReservationViewModel" style="rounded=0;whiteSpace=wrap;html=1;" parent="1" vertex="1">
          <mxGeometry x="330" y="360" width="170" height="40" as="geometry" />
        </mxCell>
        <mxCell id="OhlhrGluSOzxVFJqOo-0-13" value="" style="rounded=1;whiteSpace=wrap;html=1;fillColor=#dae8fc;strokeColor=#6c8ebf;" parent="1" vertex="1">
          <mxGeometry x="570" y="160" width="140" height="210" as="geometry" />
        </mxCell>
        <mxCell id="OhlhrGluSOzxVFJqOo-0-14" value="Hotel" style="rounded=0;whiteSpace=wrap;html=1;" parent="1" vertex="1">
          <mxGeometry x="580" y="190" width="120" height="40" as="geometry" />
        </mxCell>
        <mxCell id="OhlhrGluSOzxVFJqOo-0-15" value="Reservation" style="rounded=0;whiteSpace=wrap;html=1;" parent="1" vertex="1">
          <mxGeometry x="580" y="230" width="120" height="40" as="geometry" />
        </mxCell>
        <mxCell id="OhlhrGluSOzxVFJqOo-0-16" value="Models" style="text;html=1;strokeColor=none;fillColor=none;align=center;verticalAlign=middle;whiteSpace=wrap;rounded=0;" parent="1" vertex="1">
          <mxGeometry x="610" y="160" width="60" height="30" as="geometry" />
        </mxCell>
        <mxCell id="OhlhrGluSOzxVFJqOo-0-19" value="Reservation Book" style="rounded=0;whiteSpace=wrap;html=1;" parent="1" vertex="1">
          <mxGeometry x="580" y="270" width="120" height="40" as="geometry" />
        </mxCell>
        <mxCell id="OhlhrGluSOzxVFJqOo-0-20" value="RoomID" style="rounded=0;whiteSpace=wrap;html=1;" parent="1" vertex="1">
          <mxGeometry x="580" y="310" width="120" height="40" as="geometry" />
        </mxCell>
        <mxCell id="OhlhrGluSOzxVFJqOo-0-21" value="" style="rounded=1;whiteSpace=wrap;html=1;fillColor=#dae8fc;strokeColor=#6c8ebf;" parent="1" vertex="1">
          <mxGeometry x="760" y="160" width="240" height="150" as="geometry" />
        </mxCell>
        <mxCell id="mDRG4pExN6Dax-DI5Kk--5" style="edgeStyle=orthogonalEdgeStyle;rounded=0;orthogonalLoop=1;jettySize=auto;html=1;" edge="1" parent="1" source="OhlhrGluSOzxVFJqOo-0-22" target="mDRG4pExN6Dax-DI5Kk--2">
          <mxGeometry relative="1" as="geometry" />
        </mxCell>
        <mxCell id="OhlhrGluSOzxVFJqOo-0-22" value="CommandBase" style="rounded=0;whiteSpace=wrap;html=1;" parent="1" vertex="1">
          <mxGeometry x="770" y="190" width="220" height="40" as="geometry" />
        </mxCell>
        <mxCell id="mDRG4pExN6Dax-DI5Kk--7" style="edgeStyle=orthogonalEdgeStyle;rounded=0;orthogonalLoop=1;jettySize=auto;html=1;" edge="1" parent="1" source="OhlhrGluSOzxVFJqOo-0-23" target="OhlhrGluSOzxVFJqOo-0-22">
          <mxGeometry relative="1" as="geometry" />
        </mxCell>
        <mxCell id="OhlhrGluSOzxVFJqOo-0-23" value="MakeReservationCommand" style="rounded=0;whiteSpace=wrap;html=1;" parent="1" vertex="1">
          <mxGeometry x="770" y="255" width="220" height="40" as="geometry" />
        </mxCell>
        <mxCell id="OhlhrGluSOzxVFJqOo-0-24" value="Commands" style="text;html=1;strokeColor=none;fillColor=none;align=center;verticalAlign=middle;whiteSpace=wrap;rounded=0;" parent="1" vertex="1">
          <mxGeometry x="850" y="160" width="60" height="30" as="geometry" />
        </mxCell>
        <mxCell id="OhlhrGluSOzxVFJqOo-0-27" value="" style="rounded=1;whiteSpace=wrap;html=1;fillColor=#dae8fc;strokeColor=#6c8ebf;" parent="1" vertex="1">
          <mxGeometry x="760" y="350" width="240" height="90" as="geometry" />
        </mxCell>
        <mxCell id="OhlhrGluSOzxVFJqOo-0-28" value="ReservationConflictException" style="rounded=0;whiteSpace=wrap;html=1;" parent="1" vertex="1">
          <mxGeometry x="770" y="380" width="220" height="40" as="geometry" />
        </mxCell>
        <mxCell id="OhlhrGluSOzxVFJqOo-0-30" value="Exceptions" style="text;html=1;strokeColor=none;fillColor=none;align=center;verticalAlign=middle;whiteSpace=wrap;rounded=0;" parent="1" vertex="1">
          <mxGeometry x="850" y="350" width="60" height="30" as="geometry" />
        </mxCell>
        <mxCell id="OhlhrGluSOzxVFJqOo-0-38" value="" style="edgeStyle=orthogonalEdgeStyle;rounded=0;orthogonalLoop=1;jettySize=auto;html=1;" parent="1" source="OhlhrGluSOzxVFJqOo-0-31" target="OhlhrGluSOzxVFJqOo-0-37" edge="1">
          <mxGeometry relative="1" as="geometry" />
        </mxCell>
        <mxCell id="OhlhrGluSOzxVFJqOo-0-31" value="MainWindow.xaml" style="rounded=0;whiteSpace=wrap;html=1;" parent="1" vertex="1">
          <mxGeometry x="355" y="-70" width="120" height="40" as="geometry" />
        </mxCell>
        <mxCell id="OhlhrGluSOzxVFJqOo-0-32" value="App.xaml" style="rounded=0;whiteSpace=wrap;html=1;" parent="1" vertex="1">
          <mxGeometry x="355" y="-110" width="120" height="40" as="geometry" />
        </mxCell>
        <mxCell id="OhlhrGluSOzxVFJqOo-0-40" value="" style="edgeStyle=orthogonalEdgeStyle;rounded=0;orthogonalLoop=1;jettySize=auto;html=1;" parent="1" source="OhlhrGluSOzxVFJqOo-0-37" target="OhlhrGluSOzxVFJqOo-0-39" edge="1">
          <mxGeometry relative="1" as="geometry" />
        </mxCell>
        <mxCell id="OhlhrGluSOzxVFJqOo-0-37" value="&lt;br&gt;&lt;br style=&quot;border-color: var(--border-color); color: rgb(0, 0, 0); font-family: Helvetica; font-size: 12px; font-style: normal; font-variant-ligatures: normal; font-variant-caps: normal; font-weight: 400; letter-spacing: normal; orphans: 2; text-align: center; text-indent: 0px; text-transform: none; widows: 2; word-spacing: 0px; -webkit-text-stroke-width: 0px; background-color: rgb(251, 251, 251); text-decoration-thickness: initial; text-decoration-style: initial; text-decoration-color: initial;&quot;&gt;&lt;span style=&quot;border-color: var(--border-color); color: rgb(0, 0, 0); font-family: Helvetica; font-size: 12px; font-style: normal; font-variant-ligatures: normal; font-variant-caps: normal; font-weight: 400; letter-spacing: normal; orphans: 2; text-align: center; text-indent: 0px; text-transform: none; widows: 2; word-spacing: 0px; -webkit-text-stroke-width: 0px; text-decoration-thickness: initial; text-decoration-style: initial; text-decoration-color: initial; background-color: rgb(251, 251, 251); float: none; display: inline !important;&quot;&gt;This is the main window, here we specify which view will be diplayed. We specify also the datacontext which is present in the MainWindowViewModel&lt;/span&gt;&lt;br style=&quot;border-color: var(--border-color); color: rgb(0, 0, 0); font-family: Helvetica; font-size: 12px; font-style: normal; font-variant-ligatures: normal; font-variant-caps: normal; font-weight: 400; letter-spacing: normal; orphans: 2; text-align: center; text-indent: 0px; text-transform: none; widows: 2; word-spacing: 0px; -webkit-text-stroke-width: 0px; background-color: rgb(251, 251, 251); text-decoration-thickness: initial; text-decoration-style: initial; text-decoration-color: initial;&quot;&gt;&lt;br&gt;" style="text;html=1;strokeColor=none;fillColor=none;align=center;verticalAlign=middle;whiteSpace=wrap;rounded=0;" parent="1" vertex="1">
          <mxGeometry x="550" y="-65" width="220" height="30" as="geometry" />
        </mxCell>
        <mxCell id="OhlhrGluSOzxVFJqOo-0-39" value="" style="shape=image;verticalLabelPosition=bottom;labelBackgroundColor=default;verticalAlign=top;aspect=fixed;imageAspect=0;image=data:image/png,iVBORw0KGgoAAAANSUhEUgAABCgAAABrCAYAAAC167MtAAAgAElEQVR4Ae2d51sU3Zb237+kbVpAVFTEgBgRBRUBtUURFQQBMYBIzsGc8/OIOeccMIABFXNWFEQUEaFn5sw5M2fOc77f71V5V3V1IAnq+tBXQ3VV7b3X/lV1rbvXXuv/GQwG0ItsQAwQA8QAMUAMEAPEADFADBADxAAxQAwQA53JwP/rzMapbYKfGCAGiAFigBggBogBYoAYIAaIAWKAGCAGOAZIoKAIEoqgIQaIAWKAGCAGiAFigBggBogBYoAYIAY6nQESKAjCToeQ1FJSS4kBYoAYIAaIAWKAGCAGiAFigBggBkigIIGCBApigBggBogBYoAYIAaIAWKAGCAGiAFioNMZIIGCIOx0CEkpJaWUGCAGiAFigBggBogBYoAYIAaIAWKABAoSKEigIAaIAWKAGCAGiAFigBggBogBYoAYIAY6nQESKAjCToeQlFJSSokBYoAYIAaIAWKAGCAGiAFigBggBn4jgWIAlpx+gfqmZjTW3MbmkO6tdswDN9/HF4sFFosFVWdiWn0eugDpAiQGiAFigBggBogBYoAYIAaIAWKAGCAGBAZ+nEDRfTjmbjiNipfV+NLQxDv3nIPf1PAF1S/v4PSGuRjWvQPBjDiCV98FUYFr91N5MYa0MnqCBIoOnKdWzgld0DQnxAAxQAwQA8QAMUAMEAPEADFADPzcDPwQgcJj2haUVzWgWYw64AQC61czGl6dRrJ3Bxk0tASPG6R2m/Hhcgr6tNIZJoGig+aolfNBNyGaD2KAGCAGiAFigBggBogBYoAYIAZ+fgbaWaAwwdXVqFry0D10K+59bpYFiebGT3h1rxQn9pSgpOQAzle8wqdG4fOm2jttWnphH8juCF1zGc+ra/Hu3gEsbIMQYlugMMHDw001fvt9+vkBovHRHBIDxAAxQAwQA8QAMUAMEAPEADFADLQHA+0iUBjdB2CMORqJWQVImuqlOOjdp2HPkwZRnGhG3cP9WDDMOvdD97HFuFBxHkVjrD9rj0G29zlsCxRDEJ5aiLyUeIQFeMONIgIUFsgWZAtigBggBogBYoAYIAaIAWKAGCAGiAE7DLRBoDChz7AgRCSkIreoGMXFwosVKPqmXUZ1s7Cs4vu780htQ9RCe4sMbTmffYFCsUVhXgriwyfA18NEENqBsC1zQceSUksMEAPEADFADBADxAAxQAwQA8TAr8FAywUKUx8MC4pAQmouikRRQhInCrOXIDKwt+iM90VG6UcxeqIOt1YOb5GTzooAQr6K73h5eAYMhgGI23kLbz43Cjktmhvx+c1N7FowDN1VTnAszr6Xck5o36twJsb+BHYfPhcbzj1AFdtO1QOczBuDIJtVPLwwPjoFeYWKSCHYpgCZiVGY7EdRFXTjsM8d2YfsQwwQA8QAMUAMEAPEADFADBADvysDTgoURrgPGANzdCKyCorkaAnO+S7Kz0Jy7DQEDvGEazcWpAgcefVdECi+3MOmAPYzx39bCxQW1JSmYWbJYzToJdn8+hi7w9glIq0XKLqHbkDZh0Y5b4YqoWfja1y79Mh+mVFXb/gFhyM+JQ+FGhGnIDMRUZP94O3m2Aa/K5Q0bmKDGCAGiAFigBggBogBYoAYIAaIgd+PAQcChRF9/aYiNkUTLVGUj/QFszF5rA96GW0YzXcpbn4SIxeqziBGFd1g4xhmn+79x2CS2QyzuQil1cJ56ivP4vKrRtS/uIRNi2fCPDMDhx5+FquDNKPqTBwTReGBoRO545VXUWm1KDrYi6AYgRU3a+WKI40f7uL4usWYaTYjpvgIKqq+oqH+K76LIknVmRi7kSGu3n6YHJWI9LxClbBTXJiHlPhwBPwiy17o5uGYabIR2YgYIAaIAWKAGCAGiAFigBggBogB2ww4ECi8EJyQJzrWhcheEo9ZoaPQz7WbXaecN3jgZtz/IgkL2zCBER8MIxZiXQlXxUPz2pKHsD7azjKREF9rUXVvN8K6M/tM2YOnYvnQL/c2IYBtR/N37Nn3jgUKphxpc205lg9n2uLONyANF96JkSEWCxwJFAp8rvD2m4yoxEwUMFEVcRM059f0WTme9iNbEAPEADFADBADxAAxQAwQA8QAMUAM/LoMtFCgiMW0wCHwbKFA0fBkNyazjnfsWbzXW6ahuxSEESgsOrksui/AhQ/ORWo4I1D4Lr2JT3zftBEZCgQRR145HUGhXDycQBGM8Pg0EihYFuhvx2If2YhsRAwQA8QAMUAMEAPEADFADBADvwEDDgQKNwwcN8M6IWZhNpbEz0LoqH6avBOKE2+wt8SjtQJFfSW2tSHiwBmBYsqep2KOi8+oWDda9yJg82M4iqAwefhifHg8UrRLPIoLkEZLPHTtq4g6DE+/wcVI46b5JgaIAWKAGCAGiAFigBggBoiB35kBBwKFBIeUJDMJOUxJUSFJZjoWzJ6MsT69YFQ5kdE49a5ZWFLhQFiQHX5HERQfziOBXd6hak/qq+13ZwQKZ/aR+2triYfJA77j9ZNkUulR2/PzO1+INHbighggBogBYoAYIAaIAWKAGCAGfncGnBQoFFCM7gMwxhyNxKwCTZnRIuRnJTNlRn2x9OYnMeeDztIMRlyQHX5HAkUrkm2yE+yM+KAs3/iE8uIhur/wy/21Eii8MD4yEZkFVGaUtTv9rVw/ZAuyBTFADBADxAAxQAwQA8QAMUAMEAP6DLRYoFAMaUKfYUGISEhFLhNVkTTVS3bqR6y6jTox18T3d+eRaqNihezwdwGBwn/DXbGE6He8OhbFVAVRDKiIGNokmUMQnsqIEwWZSIyajJH9TLJNFPsp56NtZAtigBggBogBYoAYIAaIAWKAGCAGiIHfnYE2CBQKPMZeQxAUkYDU3CKwAoWhbxLOvpUqXjSj/tlxLBnW3cpZ70oChYGpCtJcXYosrahit4oHJ1AUIi8lHuETfOFhUmz0u4NG4ycWiAFigBggBogBYoAYIAaIAWKAGCAG7DHQLgKF3IDRHR7uRpUAMWDJWbxpFKtsWCxobvyMqqe3cO6AWGL0wHncfvlJqIohR1B4YOhEM8xm7lWE0mrx+OpSFPLbuO1BGNrD1uR2R/8xk8TjpfOYUVRaLS45qUZpobLdbA6Ff39JOAnE5vtfxP2a0VBVgePrFmOm2YyY4iOoqGrA19paMZGmNoLCBA8PN9X4ZdswS1pom615o+3EBjFADBADxAAxQAwQA8QAMUAMEAO/KwPtK1DoOuHdMTzlGJ58bhKdfkWssGhLjcoCBVta1Nb+VTgTYwtcVmSwdTy7/QvubQqQhYXuoVtQ8clGfxtf49Sfl+QyqY6qePyuYNG4bbFJ24kNYoAYIAaIAWKAGCAGiAFigBggBvQY+AEChWh4j2DkHbyGR+9q8aWBcf6bGvClrhov75XiyOq5GMZX6ehcgYIzVPfhC7Hj2nPU1DeimRNSmhvxueoBTuaNQfeg7XhQLwgcJFDQhaV3YdE24oIYIAaIAWKAGCAGiAFigBggBoiBljHw4wQK3eiKlnW2y0xu9/4YOqiHHHHRZfr1K9mYxkJ8EQPEADFADBADxAAxQAwQA8QAMfBbMUACBQH/WwFPYtJPKgrSdUrXKTFADBADxAAxQAwQA8QAMfDLM0ACBUH+y0NOogSJEsQAMUAMEAPEADFADBADxAAxQAx0fQZIoCCBggQKYoAYIAaIAWKAGCAGiAFigBggBogBYqDTGSCBgiDsdAhJyez6SibNEc0RMUAMEAPEADFADBADxAAxQAx0NAMkUJBAQQIFMUAMEAPEADFADBADxAAxQAwQA8QAMdDpDJBAQRB2OoQdrcLR+UnpJQaIAWKAGCAGiAFigBggBogBYqDrM0ACBQkUJFAQA8QAMUAMEAPEADFADBADxAAxQAwQA53OAAkUBGGnQ0hKZtdXMmmOaI6IAWKAGCAGiAFigBggBogBYqCjGSCBggQKEiiIAWKAGCAGiAFigBggBogBYoAYIAaIgU5ngAQKgrDTIexoFY7OT0ovMUAMEAPEADFADBADxAAxQAwQA12fARIoSKAggYIYIAaIAWKAGCAGiAFigBggBogBYoAY6HQGSKAgCDsdQlIyu76SSXNEc0QMEAPEQGsYcIXXyHEwz4zB3LlzMXtaCPwHutD3Lj17EQPEADHwEzFg8hqF4OlR/H08ZnYYJvoNgJuxNd8JXesY00B/BAcHIzg4CCP7dZ2+tUqgMJvN4F70sNJ1JpLmguaCGCAGiAFigBjoQgz0GonwxDwUFxczr2zMGdOdnp9+IseErqkudE0RN3Tv6CQGPMZEI1N1Ly9CfvIMjOrxM18fAxCWLH4/5czBGFPXGUurBIqUlBRwL7ppd/REeiDxzGs0NFnQ+KkCWwM7uj06vyOmvXKu46PFAoulES8ORdA10ElfFI7mqct83iMCex9+xnfLd3x+fBBz3Oka6zJzQ+zS/atDGXCB3+wMFIkPtAVZi5EQOxfxi+JhHtSxERQugydh+7Y1KN+/EoeTRqNPh47T1j2tL5IKV+DmwQ24eTAfK8fY2k/c7uGHZatXouzAWpzNnww/Fwf7d8qYqE90/3aWASMCEiPx+Fo+PlxegH0RbnS/dfqaHYi9xwtQU16AmstzsXKYsza3s59PAC5dFM/JnZd5vd45HmOd6ZtXKOYujMPcuPlYklMois5FyIjyRw9nju+K+4yYhQzxO2pxmHeXYpQEiq4IjNSnSUfxineGOYfYgoZbK9BN+uy3fh+Ffc8Em3B2sTRV4cx85sZkDMC+Z828zfjPLfUoK2Q+b4PtOkugGLXvGTMeZuw8H9/xte4DnpbuRFKge5e6wfxMDzO9Es6jirdnE6rOzLdrR2PAPjxrFubhc1kx3G0wNXRbJb7J1/A3PNoRaPe8P5O9DP3XIvH2v7Htmeb19P+w/s535Oy/gtDJPnCxYZufaqxWY3CBm18RZux8h8Jbf8emp6INpLHvO4vx/n1+nbm2Gn/73E+7KgNjo/PFh08l2mHQ1MUoFB/kEkKccTbGYE6u+MtU1hyMsSdOjo7CSd6R55x59at870qc35iMVTOHYYBTTntPzM1eqpxnXxYKR3bGfLVMoAhIyMQNeexLsTWs5y96/bhg5JRA7Nm+AI8uZuOD5CjdyMar0wtxsXgMJnkaf9GxdwaHzrTphW0HcwWn9exMLO5l75heKP4zw7Hz3G8UTp9THOH3R6Zgepe6jzLj4BlMxYnZrgx32s8zUZr8o77TuqhAwc5fj9GIyhDv79kxCOxpjxnhM7fYm5i+txrT91YhaP5s3tamSacwid9WjclpyYz9HZ+v7d+fJgTGiBF+hQkIcWIMbW/T+XGRQMEC19X+Hr4Lj5sUZ7S2NI0ECn6ONAKFNpph6DZUflPsZvnlBQpmrN/e4XL+iB98k3P+hvMjb24tbssrB9c/CrZsfHEIEXbuB4rw8BV3Nwy2ae+BK27hsyxQ1OPOOtv7tri/dvr3Q85lS6BgBYun/8SKYycwooO++HomPsFqvr3/Rc7KmTbnoV3tYRyGsZs/Yb0kSrDjZf9+YsHirLCuI9CMOo88sX9r9iz7MbZqK6MMYxvPncbgtp7PyeMVgSIdM0eYeFu1WKAYNBWLC4UH2Ow5Y9DdXtt2BApFsFiPK6tmIczhteSKGakFKJec/d2pyBjSGffolgkUI6OXoFTq84FCrAt2RgTqjHG1oc3eg7B+R6oiSkjihOa9+mIctk2mHxvadN+eMBWVol0frfRxcL8zImJZIqq5/cuScdBsRyDqOwqnzgrCw7v9IQi1dV17DMWhk/nyL/Vv907ERFv7dsp2rQCRj4crhyj3KY3AUlP+kwsULq4YOcoLwf7iyxyMa5eEeXQ6gkI1Tz0REJMlCNm58zDRidwNikDxFuPmTuKZ7FSBYkAYkkXRPWP2KJhU42vDfa6dzkMCRZsM2Q2urqzi2P4TGrC6FK+q6/DuwX4kOXwwaf/22/QF0Sbb2huLVqCw4NujHQgU2/MuLMMn2SnkHM5fKIKiqRoVx0pQUqK8dp8uw4va73KERXNtGZYNtmc/+kyf68FYc+eLYMdvj7DD5pIqZ/czwGD0Rc6Jx3j/6QOenMnHiA67JjphThnnccO52wgvOsK/Zm59jKyr/40tsrP+FzacPYOhru3fxx8vUAzB+D8asIEdW/knpOy4KI79CfJu/i+2cp8//SeWlqyAR1eZcxIoHDgpCp/tLVDkx46Dqz0OZIFiNY5lzUB69FTxFY5V+dm4tF+KqliLowuHOn6Q9BiJ3MJcnNuagXUzvB3vb69vrf6sZQKFwaU/5qem48z2PJQkjOqkZSkKA/rfEW343GMQtu7JFJxg3hHOxfMjc3G8OBjr0oKxc0McHlzKExzaG2m4mPSjfq1uw5hazcYPaLNFAoUBvafPwGNe0MjD3cKBNu8Vzu7H8dNvSgguHU/F4wMzUDjajujRKXbUChQFYKM8TKHT8EAUeITlED+5QKG1MbPk43cVKEbMyhAjBRcjzFtzTZo84NEBz2wtua+SQKGF1pn/Tb0wLCgC81LzkBcTYPNG1pKJoH01F4fdeVAEiq8PbuL+Fwss9TexnA+h7YWE81WwWL7h5d2HolDxCwkUjS9wKELHVj0isO9JgyhS/GJLCeyyoGOLNuzvVGRECyItfunrmhEorH+Rd4FH2CmkV/wlLgHpmAiHHy1QuMdUYJkUOfHEguS82daOJx9hUYOcP5aidxtYbHd2SKBw+rt62Iw0MXdEGyIoDMwSj0Qz+nWzc6+SBYoV2Dm7n1U/PSdE4eheQaQo3xiFkK7Elc2+tFCgsHkeO3b7aY4xYkpuAt6JDh8XIbE9rKfya7U0jt6DsPGPBJxJ6mf9mbQPvVtdH7r3yhYKFAZNZMQkXTu3INJC9/iuxLIiULzZH4krZwpQcyUWa8XlYKG58/G+PA/3/5yLhzy3JFCoOesPc1KR4OA7ucSje/hFTOGXc3SBCIqeExCXJ0T4FSaEoKeW1yHhSC3MQ0p8GMZ6d+wP8Wq7KtdIqwSKESNGgHvZOumvub0b3Af6wxydhKwCcd1RcTHySaDoBA4UgaK+bBO2VX6DpfkjLqUZYHALx4k3FlgaX+DkTimh5W8gUBgM8Ey6hA9i5Mjn63mdMC/KjeVnvQc4k1vCLfwE3vB2dpyr4me1g1P9titQCCx0n3YDRaJDv6X8Dsa2syL/QwUKYygizvxTEFye/gPZq+Z2neUb2ocLvf9JoHD6nqgs51AEir6hC1DAh8MqeSnsXyd9EbqgQHiALZqHiW527o8OBAqDwRuZK1YLeSV2LkbyQDvn0pv7TtlGAoXMR//ROHtezEdwLREHI2j5hmybjmKzpQKFQXHYucSMq4brXWN9sX5PtpO5KvSO70rblPG+3hmM1ZtSUVOejnPxHjAYxHGWJePAkjBxqQwJFCpm+0zEPDHHUF5CCLyc4FhZzqEIFMbAQwjW5KVQtePEeVuz/4CwZDF6IgOzRwnLGFXn4QQKcflHcXEh8lLiET7eFx4/sMpHqwQK1SA6yHhdpo1u7hjob0Z0Upb4cKKIE8X5GVhgHio/9ISfeCOH2T/bZ1vAmXfug7hfE57sZvebh3MfmHwCqmUKH3A+oZvclk37eIRg6YkKvKquR6N4fFPDZ9S8KsfOuP5WxydeqBb7Uomt0i88G++iSXTA7m2S2mT69voYpmjm3SMkHSXnuHbrUFffKNtBSFLZhIbPdShfJ51L/ybdfXAo4jMLUVSQiXmTh8BN04YyZlagKEbAvmdotojO4ojdeNJsQVPVGaTLFTesBQrll3LR3t+/4nPtGzy4dBCFEZ5WdpLadpwkU4rgEJaW3Fyu8yBi7I+Z68/h/puP+Ppdab/uw1Nc2RQBT51xy0kybUVQcMeM2odn4pzXlxVaj6EV7UrjNphGYNHG0yh7/h51dV/wTUwQKcyvBc2N9aip3IUwnb4bDCaMSDnAH/vlm5i8tLkR9bWvcedgNgKtksd5Ief6RzVDkgDVYyrWlb7AJ+k83+vxofIYsqXkoJ5JuCRdQ1/vYoOtpS5MFISl/g7WSftJApdFYGi+1XiMIm8WRRRj92HmQLKN/F5fhkJ2X92/jeg/cz3O3X+Dj1+lZTtiEtQrmxDhqbl2jONw6IXAkJI3oy/SS2sE+zU+x/4w8Ri5b834eCnNmg/d/mjaY/dxQqAwGEZg0uH/Fpz6J02Ij2TPF4Dw06LDzy+Z+AubK/+GlVfeYd6qVfDRXdIWjMiLmqSc8nILve16kRv94L/juyq559aHf8fqGx+RtGk3Rg/XuWa5cQ89gsxHQhubS2/Ar5Vii9E3FzN2VWPZPXEpyLO/sOnefyD/4BkE2GhbEWL+hoXzemNIxh1klf2PuIzmL2y+34TsP7dhoKpPQzBx/3+qxmmV0FRjO+tIGHG+TGMRsOYJcm8oCUE5m6289ByzYsdbCzVuUZh19n9EMee/kZw20oq3bkM2IvGWGGFTWYNZkwS7919T16I+q3NTjEV0PvMdLT9g2dmWEGL1XaMIFKmIGCo+vI2NRj5/PkW0kO+P7HXB/K23VET3mJYIFNviMUtT1m7IrCRclvI3aN4vF03GUKZP6vZ9sWKTEJnB7TeifwCWFufh0t71ghiyfzXOrZ6H1LE9rOZPOI8R3v4hWMkcU753OU4ujUS0t5f9Kh7ymKXlK8z75jmY1GF9NsB1cABys9Jxdvc6eZwX1i9A5rjeMMn90o9mUduPvZ/Z/ntA9Cw8FaMnnm32g7fNsemcwycAF8XqA/qh6AOwR6p4cGoa5rDnZpx0qWrBi23+GGIwYkTkVNw4IyXpzMfbs/NwMK6vUo1A79it/vBx5limD6b+PlizNg73zyttVV1OQ+WuMGSP0q9mM21ZkpyEctXIXkgumovKC7ni8hiur/NxMs1HY0fF4ZbG6uhdm5tiXHo83vLzlIoTkTq/GjPLAl7wtmDny177Tjr3rn2QVjgHd05noqpMELQ+lGbg8YFZWK8TcTN6cQxe8f1NxoHJYl/Gm3GPPzYfD5ZLOa+Yvl2IQg4fzq9s47iKWhSNl+UFeLphJPoMGosLFwpQwyUMNUu5PGyMwbUPknNm4aaTfVauHxcERIbg1P4UvL0hjTUVtzYGIaqPM0kyXRAQMwUXDi3B62tirg8+0SzHhi+GOnKkmbnUv67YudX52zsMi8Xvl/RZI2BkmFfGqD6OFSgCo4OEe6r3NozXRFXYOr79to/ALCnB5+IwzXUk9tlrPKJT8uTE0HKp7IJMJEZNht8PiKoggcIGVKZewxAUMQ+peWIIj/SgU5iLtIWzETrKGz20GbXZqhvP9tlYb844+k2V2Kp6CGc+Ex1N2bmxOCFQBGzB3c9NasdOdZ56PNk7WxXKM+noK3H/h9gh9iX6DLdEQnB6Xh+bIj6YbMF9cVvTvU2qZJ3Tdz3EZyaZp3Ss+r0Bt1bYEyh6Y0JcrqjoFaM4JxbjbGZSZgWKQki/aHN5KCLW3MEXiwVcBIEiJlgLFLLDr7KPKBY01+P5qTTd+VPOaavM6AjsfiI64Y2vcDRKfYMycEsxHtWjWa9dflsTaiu2wKxx2uX+2hEolCoUOg5oK9vlbohuE1fjxgfJWRZtpNN/Ng+IfCM1+qKg9AO+6+wv8dHw8izSRrB20hEoLFwyyiCsuPVZZlM6nnv//vYMFqqW+HD9tJ3AUplHC9RVOBiBSdfWQ4WIHW48n8tQrJknViRi+8f/7VCg6IGIfY9QrxF/2PM01VZgi5l1oJX+NL46iij+fsYwKAk7BgNzPTTi+f4wGw4HOw8O/nZKoDDAM+s11vOOsFYssC82bL1Xg+g5WsfW/jHWDri2TW5MDhz3R01I0klu2Sv5Gdbw4/g/FG5c2Cr7dTefQ/Z9admLjqDy4Cvi52nHbAArUCxedR2F0jITlcCgzfXhYJyqY4W+6AkU3YZswMKyf9kWDZ7+A7mbsq2Ws3QbsglJUpWXyhpETGB4Mvoj5IAonjz9O9LzQ2V7di2BIgEhUuRDiwWKHgiKFyMoihmhQ++Zw4FTrCzxWI8zaWNU3+HcvbY9BIorS2dj6bJVSvUPVujYm4OVE7UihREjIxJwSlx6oiTzFISG6+vnYc1SO2VG5TEzwoTUppMCRcv7bIBn4Ezs3ykKMFJ70vveTKxNWiyKPe0lUBgxa8ViMVliKk7qOb56TEjb2lmg4BI7RkybjoeiA6xy4stScGKO+P2iI1Bwx85w5lix733DzLhdqiSKVLXFOdbXFuN4nKfVchZZoLgSh13FsXgjijvq43Nxf+VwxrlSHG71fmLkis45tAKFYUwobl/n9tckjBTHowhNes66vfb19mfuhwYDTCMCcf6cmINEp681ZRm4nqMWZbj+POP3XYLDYUKOi2Hz5+CFeLwiogyURazqE2GYzY9H6S/voI+ciBulQh6KOeFCPo5XOwLhJ3OgM4bevth9KFvJq6Ltd1kWbhX5MnMkjdkVc/Ln4ZUeg+X5eLkjDKck0U2vzKhLHyzdZi/ZbD5e7g5FVB+pPZ33dhQocmLHW33/yc/A0nXMzbFcseMFRoWIfeoEgaJnyHxReChEQoj9aklu3n4IDo9HSp5UVlUS+wuQmRiFyX7e1stcmTHr2cHZbSRQaAzp6jMBsxdqoyUKkZsci+kTR8JL9QuVFvrh2PVYEgieYZ/K6RL3nXdODsNvuLNG86DhgaETzTCblVfxVSnCwZFAEY6jr6S2LWisforSE1wixQM4V/FaERCaqnCWjcTYcl90+JTzL7/ZAEtTEx9FUXctRxAjhu/FU9HJ/HA+QREoVJVGGvHp1UNUlJ5QJXHk+1B+GZskhVdjcwFWD4yNzpQFiqLMKPhLD4ZW+6sFCkPfdJTWWGD5+hDXbnO/vAuOqeKEagUKN4xL3aj0cdcRXLx5D4/ffGIiA+pxdyMb3SLMn3JOGwIFU0Gk+eMlpKn67onE81WyONHcUBSVa9YAACAASURBVIUHl46ipGQXjly6j3f1UmnUBjw/ECE/sHP2cShQmEZjebkUdaCtFtH6dg2GgSpR4PuXt3h85zrO7FeSdHIJO3efvoay3XGqPhsMRozeVokGSZxorMWLm2ewn9+fTezZhJrrRUyGfiM8R4YI10HCKbzkj2/Eq/NnUfntG6rKdyEjyoxpC7fhdo1ks88oKxYerNymH8NL0cn/encDc17pemUEkOaPKM1iHX52qYxOLo/Ba3CHy3lisUD33KaBCGSuX7M5AadeiqKOA4HCM/E8qiRxorkBVQ8u4WhJCXYduYT77xRRq+H5AabCCDMW6fy9EnC+iiu/24RmRqQZLIp37ZY01kmBolvAZeSLzrDKAXabjIBsIbEml2BzxroKLD5WjaI7UmTBv7Ht7gtMGiTNG/fuip6jZmDQOOE1PO+VKBr8E/mbC+Xt0ueDxk2Dl5d6frlw+RFLlHbDl5dh0ZG3yJUjEv6NbY/qER2uPk5xnP+O5FTplym2bw7+7r8Gi6SIgWd/Yf21d5i39gjCl5cj5fo/hMSanJ2sxswKFP/C+tt/w8bKb0jnE3MeR9Suj1j1WBQ7nv4Ni5dIfXOB2xCzYpPIMhSK87D20C5lu2hLzmYDfDSJ+YzBCD8lRkJwkR63apG05TTCi04idn+d0u6TJsyfL7Ur2cEFnosfYyUvprDiiQv6F70XE43+C8v3rFU93Bn7Byt9m7ofKXeEsW26dA2BTF+lOR44ki1l64WRQcEIDm7By3+gVQSIEkHRGoHCFb18x2FaXKocdVmUPB0+2h802O8G2VnXS5KZhfN8RMM6XFoxU7eKh4tHH/j5DoS/9Bo3HXt2Co6/sxEUN3cvxfldq3FmxTwUx05Fevxc7NqySq4GcnV5GPzYPvedgC3bJUd/DU4XzsbCCT7w9x2K2IRFOLlrNa7sWisKHvlYOUbiQnzv3hMjpP7y74FYv0UUK5wUKFrcZxcf5K9eI/ZpPa6siUP65KHw9/XB9FkxOLBjDS7/sVwsd9peAkUvFP0hlqW8moAtYzV2YG2q93dbBArXHgjgqxYMwaZdmYJIcnoWdm9ORdXpGJTEDUaw/yDkr02U82PIvybbO/ZUDHbE2jmWG0f/0Th1VhIn8vHyaDQO5gZhXeYUnNiTjLeic1p9MQYrNMspZIGiPBvPzmXi7el4nOSTiYbg0E7l2JrSedg4WrKnEX19+ipVGqJmiLkTCvBkw2hlu1TFwd8Lgd6aCA6XAfjzkFBulE0YKTyjdkfC2iWCDXXnUdO+vxdismLFCAcd556daxdvbD+QI4pY+arxHti+EC/ECIOaa4uwbxoT2aEjHvC5I8ry8KGsAHKVEY+hOHpaEGrk+WWWtAjbBmDX0XzUXJ2Pk1u5iiY5uJndHwadNgR79ELR9nRZnPhwcREurgzFujTNHHGiV5S6Io8pMBS3rorCUVkW7qyfiJQQLwSPG4qlqxLwojQTr6XPrQQKI8y582Veq0uX4MZGMzalBWHryjm4e0ESeXJxb7mv7WS7bRUoTINhXiSWoy7KR2rsVIwZ5GE3IXHXECgGICxZFBkyZmI4y6Hdv93g7TcZUYnpyBOrU0lRFYV5KYgPD9ARoqRrs3XvJFCoJsSE4TPTZCc5P2MRoqeNg08PzU1MdYza8MN3PRaXR1igt8xDWd7hKKJAOK+yvyIgCDcHdbseq2/LjmB95Va5ooW0r0fiOVSJUQ4Nt1YoAoMsmNThWg4X4TAce59aYPlQiUouVF6KBJH3s6ByKxMJIS8HsaCurFAjuKj7KPXF1nu3niMwdV4qMlLmYeoI7a817Lk0AoWBqarAObNiBQZFTNAKFOy52L+N6B99EE8aBIdSCZlX9lHOqSdQ9EDkideiAGEdxWD034GHYvnTpo9lWK4RsIy+BbgmOtxacUMWKHSqeOw6cgWPq7/JwkdT9SWkM7/st6VdWfzh7NpQia2aPtuaS347u9yi4TkOS7/MSNcPm9jTVtUMeVmCBd9rq/H4zEK4S8cbDFCcbmY+3Kbj2EtRuNBb5sEs79Dame8387lWhFDmX0e8YPql2EVh1SIJCHr7Gf2x4+E3QSxs+oiy5RpxjItEuVYjzDETFcG1I7MhjVUUUeorK/FMWvrE7qcbGaIwrvTdwTYnBQpDS3MfGAdj1Lpa0YHVi4BQ+qVEFtjfz7kxucIr9ansUK/es0LluCoCBbfMQumDc+d2Qf9l1djECwSssy6exzQJYcfFpTDP/omC9fNUYp8yTj0BwwX9sl5jrZ4IxLLW0nkwGOA+9z5W2OqzwYDu5vPIeSAICOtP7ENftj3+b2+M3fFdFF/+F7mr58KdOWbL9VsYY0/0ZxhTL+Voqf1btr9Ljz7w6t8f/ft7wk1a+ujaS9zWFz1thg8zS0yK8pCdnoTYiCD49mC+M61sZIBBFiisownKdhbgcPFcLAnsa7UUxSZ73qEoKWmhQHFwFfbHDVY/YHuMwfqtogihyX2hlAVdj/M5QRioGZdnUDSO75PGoyNQaPY3GJTlJjedFSha2GePoLk4fUDo0/W1MzFRIxq5DJ6MnaLdbh7sAIHCZm4DO3y2RaCQbcyIJNcz8fTwDKSwvy57DMUR0YGt0S4TYRzZGqePNSIsfwHe87+oayMduLEaEZA4B895kcK6aoYiUBTg7b4QmFXXmysWrk0WHWM7jr/sWBfAKlJCtovW7kwSTK0I4TIIe44Jgou1eKE9j/D/SHHZhKMSnT5xkXjO2yofL0smYKJqvAb0C5uKCtFhV6IiDDDITrYoJhhEEeXyAlw5kCEs0eAikeX9WFtoIiikY6UoiOuLUMJFvcl2VNvaNH4y7vDRJgWovjgXq1VVSlxgzoqXI1/UJVa7I361NH+5uFM4SBNBY0Tg4hh+uQkfCaMVKLz95XwufLt+muoovX2x94go9lyIRE5//blhbaKINjb2tcFLtx4+fKR9cka24rTbKznqPgzuQ4LRY8h4dJd+gHUZADd+WxDceqmFHJv3dxv9cWZ/06jZyBBXBCwO81Y9ZzhzPL+Pmzf8JkchMVOKEOQEjzhMaEO/9NomgUJlUK1AsRCzQ0fBuwUChcFjNW6LDq7s3MttMEs4akuRJj34yJ9bXxzOChTZ1+pE5+YJdus6kR5YfVus8lBzEUlS28yyFEF4SMSFagsslVux9b4FFmlfWYjQCCXLb8rCSFPVNayebp3nQg+8tm1TnD4p1wKbU0ISFhRn0lmBgrO/NwrLPgm21HEolXMyDjE/fyaMXnYDNdIv4F8foSRYPZ+KM62NcJD2M8J/x0N848QAzfIQ2QnlownEX+R1/m6uf4qDGiGgLe0apF/jubaaalGxIxqDGfHD3jxKS28slu94ezJW90aoJPash26+DkagsHx7gt0amxrHHcIL0Q4SC9zDj2xHJoJA6qsyh7b6xQheqmUcbpDzzDjt5Cus2hUomMiM+jvrdKI+DFCEpka8Ohol21NmX+yTYJNGvDi5E9c/WlB/czncDUxeCh2uJdu06J1xHlWREdr7WSscY4P3JiwWfzm3d27FcW8PgYIrCzsNcy4JDrfWIW6bQOEH87G/C8sknjRhXow6OoOzu2nKDRSJIsPGsydUDp8yzn9h+fYMee7l+WJsrO233j72bCrvb/DAsC0NQp8ffUHUFOk+xb57I2BXs7DP3ccI0hMbesxD5HkxCuNRM4puiH8zeSeUNtlzc7/CrkWiuEzE5ri0vHXq/2qBIiMpAbPNfujfXTMubR/tCBTy0gkxH0Q6lydBe7z2/9YIFH8uQJw2x43BVqLLnpibvVSIRDiQj5UBGieB789g5K+xE0Gh7XNrBIoW9dmAgIRMB9ERzLh+VYGiPA/3igdrnMLeWL5DjLCwElEUR7bG6WOVZJLVpyOQpLdcl4lWeLN7AsYzPCgChZS0UX39KI4/63Cr91Ecazv7MG1K9yCljKjaITeMDML1UtvLP6Tj2Xeln5pzqdplIjNK45mIEHY8HsjakiZGwIQjThIw+o3C6XNCJIIgwngK83hqGlZyeTykqhxyXgq2H8q8Sg66smSkANUnpyGGa8eGQDFeztehx5MBBiZqo+ZSDJb5SuPpj+0HhSgVLhnpymHSdua9n588Lu0+vcXlJzXl2biRYV3xiLO/IvgoS1/YeeH/ZkQbafxW+6jmiemftN3FE37mOZifnOmcQCEd12nvPREyX1yqkReHCaoUAzrjs9VPTqAIDkd8WhcUKCIjI8G9WjyZtgbbZbZ3Q+/hk3USYuYjY1E0po3zsc47YdV3RgiwaJZ5MFEItaVpShSD1TkUUJwTKDzw5wPRaa06ixhJfNCcVzkXkxDToOSW4PNNePyJBxYLuGUcwv7Cvh5/PhCcdouSq4Kff49EnKtSlpZwoe9CUs6HKD2xCXmzhsJD04+2c6M4fZJTqlRfUCorKI6ojkBh9ETAko04fe0enr+vQ12d8Pr04SVeVou/ZOs4oco5m1BdcUxYnnHxFh6/+czkWWjA88NzVL/0c07zuEMvBBuyiQs1tlHOr+6zMwLFt2eHEWX1gNm2dg0GLi/CE1mE4vMh8Aku3+DR9TPYXTwPo6zaFPj1LiwTy7x+xvU8hWnV/MsChFbwEfeXP7dAybFg41yMLRVnXrsUg1kS8f0tTsbqn0t2+puqcGa+uI8xAPueCZEZ39+eRCzTnmpMqu0Kq/YECkVosZMfgonskLjn2pWZESMrBLtz/AhtC4KdIry1xI62x6V2Hu06vIzzrN2vW68QjM0pw6Ljn7Cs4r+whn/9J5Zd+owVYkJKe46p4ri3UKAwjcLw5DNIOFSNwptSu/+FlVdqUXRPXC5R8QDjmLlUBIp/ID1vXMu+/xjhY9u9F5jkpcMd44xv07TtcJyMjW3ai9lHOw/68zwMIQf/SxAfbt+3isqTjpHt8vAjZrJ5JhjbsZEWfJ4QTd4J6VxW74xNbI6Lacfq+M74zKUH+gwahdA5S8SkmsXI5bK8G3XmXOqfLFDo/Grv4g4fvyCsWLUcZVyuhP1L8Wekt32RojUChW7Ugi2BgqkqUpKERD7pnnZ8to7V7if934oIihb12RUR6YWiqJKH5f5Su+r34KQ8cQmIzlxI89WidzZ6YRFKgtTtOWS2vSMoypfg8DQ9QclWvxRHtsbZY10GY/8JwXHm8hiM1rUXc15N1IYiUCTjoM7SYMXxtyM+yI61nX30+sWUG+UTRor7yG2WpeDYLGaZhd45tMeUs8KA1s6iqFBeACU/hHYfA6YziUMVp17JLcFHVoh25xxuIemlkDzTFDoND/jICNZhV+wvO+iM0y6PXbYjOwYjZjN5VU7M1rOHcv6aciaJJyNc2B6v7SSZ/lJi0LLF2BdqbSf+egpiE3vaSHrPjFUev525tLpOVUs8cpEcPQVjBnvCzd59viXn74h9B4QhWYyeyJg5vGXPMAYTPHwnIDw+RRFjpNyMBaldZ4lHSkoKuJfVhHWEQTvpnEKSzASkMyVF+fU2hblIjp2OiSO9bCcGyb6GOvFXXXaZhyIQvMXJGQ5CPsVxK8doIhdUdmEiM3R+VWeT7Al/swKFciyfW0IUUbhoCkGUENqV+1F3DTlaAcQrFpuvPMHHBrVQIbXb9PkNyneok3O2jR3F6WMdNe05ZcfNonb2jb55OPdKWdMv9dPq3a5AYSuKoQkfrhbqJNhkHGOn5kjdZ1mg0PbJMxHnq6TlDNZRGwZD29rlbWrsj/CiE6h8/5URYZjxNzfg3Z0DmkSXzNIDp8brWKAQIgFsfCGprgduHyYKQlr6wO3DOPnfnuxGsNVxwvkVwYvpl5xfRBHBtMxZ/6+wak+gUFhl7GrHbiruZRFHYIZnhedEFCX4iAmlH9plK9Z9dtLGjPNoz+HtMf8hVvKRAWxySRd4Jt5Bob2EkVI0wbnTuhElXL8dOu4689t90jGk3baT9FFsVysSKEkybUQx6LQl25axlfa8zuzjcJyM+GDTkWf2sTdfcn8MLUxIakeg4HKHDFpdi83SnJ49iUH27CV9xtjN5rikffl3JoJBenhy9K5TxUOxgZPXgqoP0jEuCJwrrlEuTsb0QXaWitoTKKRzuwxE5nIhiWX51ljM1FTyUPW5wwUKZ8SEriZQMP3RLFdhbdf+AgWbJDMd5+ZxZRwlRpx4b2+B4koc1o50ol25j4yj6eyxjPPnVMLKriRQMEtauCiCuXy0gjtS+TKcYmULvYgQ2V6KbWVRw65AoYgMTtlKFXWgzA3vZIt256IpBFFCEBXkfqiWrWiO1ek/z6muQKEcqxIfVOewsQ/Dhm1hwLZAIQs10lIUu+/c+DtIoGCqeGTNGaNUv1HZQGGhRdd8h5zDhFGzM8QUBosRpisqW/fX5OGLCbpJMju+9Girlnj8DgKFDJOpF4YFRWBeah6KNA86hblpqjKj8jGGVFypFR0NKYeDQRECLG9PYobWybcBpCwMOKjisYVbjmHHoVF/xgoUYs4JLvKBq87BJ82swcWkbjAkXkC1pQlcqVE+cSZ3fnk81iAbDFySz2SsPHAO5U/f4bNKsKjHvU2adfU2xqzYUa8NbpvibKkcNc35FKePcfbdzNj9WFzqYvmOL28f4fqZ/UrCzJK9uPrKmQgK1t7NaKxXnHelooS6/7LI4NQ8MX22mz+AXc7QhOpL6ZrIjZYKBep2tXNhGhiEhKI/cPrGY7z5qIyZ40udvJH5Zd+p8TJCADuPsvNtgb251vaT+3/gilv4zLetVPNQmPiGJ7uDbT8oMuVGpeok8lIZTQ4IvbaVbQqr9gQKu9U/dOynsoW8PISLvogRSrTW38RydzF6hovYiRQTZzI5KZQ+qjl1ejvjPNp2eJklAM+U5JKm4DPIFnMXbHv83yg69RBzVzKJK1c9RGFHRFCwiSqf/g9WXHgtJKosEtteeg3pUuUJTRRDt7HnkSdWz9hSfgdj9ZYzsOyyf/+UERQtrAJiR6BQlRTlRIqn/0D28pm2rz/JdgxjP59AYUD7lRkVrlHFeXaQ06HDBQpm+YbuMguuv4wgcNBBf/n5dkb04M7raD9b7TLLN/ZlodCGk67YuL0iKAwYuVAo4cg5oC//GNuCxHRC/oBWlxmVriMDE8VhtYTD0f2fcTSdPpYpfWrXgRQTJXYpgcIAudwol4eBi3hhcnSockDI9tW3oSwM2BUoGPs6YyuVQKEsD+GjEXgxIQvXUvvC4DsOVy4JpUb5xJncubmyobK4orRrWyiwtcSjDREUzLIU27k8bAsUo+S8HiI7dm32YwQKZ8uMOv1s5YCrVp2nZwjmi8kt82IC7Efgce17jUdkYqac6FlKiFnc1cuM/lYChQxKN7gP9Ic5OglZTFRFfkyA7kOWIiyIyzyY5R1sVIUj0JTz2IugMCDxglTtoxbXcuyXjdG2ufGuGPlQuRUxfIlRcRmHWLmj6myMkI+Cc0LZBJuybfRvzpxgEbL+NmolB6tyq1PLWrT9s/5fcfpUjpqmP4ozqjjdSih9M2qvFcBTc4wqB4U2WoENp7doHOoes3DouShsWBrx8qh2iYcBypKH73irSfZoPUa1TWVxQ6dPBjYZpU7ui7a066hfphGZuCxFcGj6ptjagvq7G3WiStRj1G2rDQIFGy0hRA0w0SRsVIUVA1y/mHKj/L5MDgdVXgpHY1BYtStQeBei7JMgetkSuHTtw/VdqmLDM7mEL3MrLeMQRJXPuL4qh89HYbE4m9zT0bicW+KhEiIqniGEX9rggoHrv4j5GJoxf56mcgQ3JiYHhT3H1GFkgWZulSiI/0Hm0nBVEkzevqyQoBEoDG5xiLkilQgVEj66aM5vc44M7ZWDwsZSFiY6wqa9mH1sC0rsvDPz9PS/kZxmXf7U9niZ86hyUPwHVlaINuyQHBTtU8XDqXE5nPu+CF0grdFlqoHoHedMBIXBiMlL8sXlBw4c/g4XKDyxMH+50Jd92ShWJciT5p4RMbqEQGFAUGKuWJVkGf4I763z7MaIGO2Wg8IAw/AJuHpFdKiuL8bhWdY5aGwyx0RQvNkdpMrVwB/DfG6d4FKaix8tUDA5LUrnYUtgS5aUGNCpSzy461MuNyomnxxnxj0+oSe7zEGyre135wQKxtnXqXhhkwvxPhJWzFXcKAA396l8iVFxGYe4lIJbYpMsLg9RCwJtESgMaH0OCrFaCNfni3NQoKrSJdrSTg4KZblKPp5sGIn+evdTZ7YNGosLF4Rr0vZSE9tza+g3CQtEXzCPW8LnTJuduM+AsGQxeiIDMzVVc3QZGxKOVOZH+YLMRERNHoF+Uv6THzAWiqBojZG794efORpJWQWwJVAYwk/gjeiYc4KELDQ02UpiqX8hyMc5iKAwpF5RhID6J9g723mRQm7jw3kc40qMSokxDdm4VseJEsdwjqvoYbGAEyu6tcRmAQfx3EmBovVVPPRtpydQKNvUiQalC7RHxD65iodF43Bz+7DHvzikLgWqKhPZ8BwHIjT9GrgCtz6LkRdcwsktZqtoB6kf2ne7AoXBDdOPvRSreOhEUbShXW0/rP43jsLGu1/E3BovcIgdM1tNw9KAl2fTWi5StEWgMHgi6dIHoW+cyBAoOekW2EpEyY5PmevPuF4UjhNvhLlr2RIJJwUKVTnXJtRWbIHZyWSkqoiiW0f5EqPSchghUek3PDp6Fs/469BOPpCWXNfcvsyv29YOrws8phzAErms5r+wdHuWKAgwv8w//ITZUj1wuf3eGLZGquLxb9h0uA0GuEVWYJm0bOD8OQx1ENUg50t49jckLtQ6CWxZzH/DeimGulrGtqd/R/bGQvSz0WY3956MANJeVTzaIFAMPYJMMSply63HCNZ7MJTnQLh3mSZfQ6EYNbKt8hNi5rRUpGDmkouaWDUX7lMvI0/qR9l9jNfLxyH1o1cmEm6IOUEe1mL2JO2cae6x0nFd4n0M5uSK5dySp2OQpmIEe69RqnjY/tWeqzCxY4dYUcNOBAB/3g4XKAzwm5uKq1xOjIPrcTYjwKqc3w+p4tGiHBQGeEyMw1m+zxtwdcV0BGjmpGOqeHCMumKBXHmiANWlSTgxv6/NsHCTm4uSxJL59b7mcizWqsQgF0zJVKoldB2BwoCxKbFyFYeqExHIHuq8SNEuAoUsMhTg/YlwJLFVSxzdH5iKHZyDHyslhFQtkXB873FOoDCg9/TpeCiXXY3DtsnOV3OQ27g8F3tWz8d7KTGmQUhU+v5IOPb8KZS55cailApum0DRlioecrnW8myUZ3srrPPz4qCKh8dQHD4plq8ty8D1HJ9WihRMlEZpPDbI5Wodzyt/j+02CNOkcp3ZMQhsbcJJRyy2x+emsYjOEb+LFoc5Vw6UEygK85ASH47xvvbLp6q+y9qjv+I5SKBokzFN8OihlxyGA3wSjr4SndEXN3BDdPCbKrfaLMXp5W+G2ax+FV+VIiNqcG2p+rMxqvI5w7Hxbj2zzKMRn15xiSpL5OULJ0orUPH0MjZpLiQ5AWbNHdzh+iwv4xCXfzy7jdt13FiE5R4qGAtL8fbVQ1RUlOP8AaWtkpITKK14iupG0QYWC+wnBvXA2OhMucRrUWYU/KUyPFZzpDh9LY2gMMh5BCxorn+By9syEGU2Y1pCEf44+wC135vx8U6FUBmCK+l5uBgLzJPkRJCK06qJoOD6aPRF4Y2P8hx8fVSiyXHgBvPux0zCyWZ8q3mBe5eOynO0+/Q1VNx7gNP56gdx+wKFAQZWhLCKomh9u4Ze8Tj59A0eV1TgNtPPkpJdOMIlB33H5PKov4N1g9U3d6+cUqWyicWC71/e8sk195cIrOw6chE371WirIQRe0wDEShdBwmn8FIUuL5WbFOuj0mjdKJf1G1znPZKOI8q/vgGPL5RgY+ik15WrLavimmJN3npRBPel9/Ec75Ci50IBKMnRoaor1GzOQGnXorXwNcKbJPGxb1PHqeqiOJm3o3HUgUgiwXN32rw4t4lHBVtVbL7NK5V3MOD0/kaYUtJgFlfeQcPvzE5MvgxNOH97buCYGonQauuDSRb6L0zAsWGc7cRLi6TmLn1EdIuWrBJcmyf/YVN1++qHNG+RR/kkpvrzt/B1Ng4DBoXCb+kw4g/9Z/Y8qQJS44KURabb7zA7MRkDBo72jrvj2cBFpSLDizXzq06pOy4KPblJGL3vsLizWvl8peKoPEXNpW9RBR33nEz4Bu3C3MO1GP9038g53AV1nCiR+VHxKUXYGjgRHhIIoTRH8H7LGLZTKHdrQ+akXtcWaLCj/9CEzY8+IroaQyT7PKSZ39h/bV3wvKS5eVIuf4P5Zx3X2CSRjxwGCnCREfYFHSMoYg4808hcuXZv7G18hsy9lzHTH7ejiNqxzOk7D2CYaq5HoKgvcx4n/4f1pZWYeGW06KNheNSTzzENKsEmazgw5ZWZUSLZ//C8j1r0VvVJmMzA7tE6N/Y9ug/kHf0DqIY1lIOXsdEvUzwNs/Jnr8D/x40FYvFkNqieRPtlwiVIyhW41jWDKRHT2Ve4ViVn4Xze0Vx4uAGqEpkdu+JEb4D4c++xk3Hnp1COc0ry8MRxn42uBfTl9Yul+CinJRSpjcPrMbJgtlYOMEH/r5DEZuwCCd3r8L5P4ScGTe1ERRc4s8hmj77BmL9FrEs6dZ4xLJ9HtIHvWUxoQ19dh+JFRukyiLrcGlVHNInD4W/rw+mz4rBgR1rcHW39LltsajF90qOxd6+2COVP+TD0vNRdX4Rrm6Zhm1pQViXFoyd6+ag7Hg6qs7ORLIcit9DqeBQXoAPFxfiTHEw1qWF4NDOZLw5HYvLR8SqCBdjsXPeUEwZ4obuBiP6Du6LYH8vBPsPwaZdYpWOK/HYPo3bxr36YZSnnnBgRF+f1h4rXlMePth1SCz3yI33RhYe7o/CwVxurNwrBAc2R6P0j0mYo/lVtl0ECqZKCLe05sPFRbiy3oxNsq2jcHHtOM0zmnQ/UJZOXJq0qwAAGRtJREFU1Jybi1O7BQdfHYEg7Su8u3v1EW0q2dYLMVmxeMXPdRZu5PqqPg/0ZnPS9ELR9nSxdGoBaspy8fzIXBzn51liIwpXSmagUHOvkyMKrszHhd2pzDIOcQxnY3H+QDZqyoXlHgq7bRMouChTts+cfS+uDJW5fCsKLjU6USG9zVNxVyxRWnMjA7fWT0RKiBeCxw3F0lUJeHE1A88u2q70MWrhHLyQzl/OXUcLmbkNwqaiGThXEoMjC2zkn+C/G9yRJuUV4flYIF5XQdi6cjauHorH7sl614Y07z0REJMl+Cz2Sot29vcQl6srZD4K+WiIPMQEmHQix6QxMe8mD+W5p5PG0CqBwsPDA9xLAZ0ZVCcNpCv2Zfiux2gSnSshB0QD7qyxHdnQsjwSFghlQRnbe4Tgz7ufNW0qAoHQB52lIkypUG6fums5cpSEnHuCH4f1sbK4oRqntk0LmqrOI0kjjKjnrDcmxOXKAkVxTizGyV/QzBh5vtogUHBJI0trxGgD635auMiHlH3ir83S58oSEbsChcEA4+htqJSdzHrc3ajJu2Hsj+iDj1AvlSPVtZu1+OFQoDD0QOSJ17ajKFrZroFZeiDwI9lE8970EWXLNWPl58qE0Uuv4cN3zf6acauEJiZqwmabzpbKVEVxCH1o/liKLKeiE4ZiW6W0bEfsv05Ujcwxk4DTZr/ZcVudy4j+0QfxqF5Mesruy/wtldGV22WXo/D7KTk3VGViuc+ctZsz93FGoOArM4iRDOq//8K6s6UYo3G4DSpnXRIYpHfOmT2JgDV1sjPNn1O75ILvI+sES8er37eU3YK/NB63KMw6K5a51OnvlrL7mJTxBKvZz7S5FUxBCCnhxAx1O+pxc59ZRzt0N59Dtr3EoA++In6edZRCuwgUBgOsqmmw4+T+rnyHMM0DsMEUhNB9Tdii3Vf1/9+wcJ76Pq3KO1FZgwhWwDAGI/yUOA8O8lGozqNqU7T/kybER6rbVq6NTtzOCBTZc8ZofiXU9EsWKEQHXfyVXy4xyvxfviMJS4YwD84tOJY/nyrqoA3OvsGIkbMW4fx+/T5fXx+F1BSpIoZmSQorbjBj0xsvv02V1LItfTbAc0IUDu9WxB62Tc62K7OkPrezQMGVEu7viz/3pOMD77TaWUNfloyDU5U5Ng0PxMXz4q/GqmO5X6CHY9kfggMtJVkUcgowyzpUx7Dt2lqyoDiv0jmt320dq7Bt6j8Mew9lK463Xj908lq0i0BhMKBv2FRUXGXHq/n7QhRybCQL5EpuPlX1Nx8PVw6xeR23LHmjTmURVy+s2J7qgA2mGob0ncZEinBz9G5/CELFz+TcE/w4tPOlzHHLc1CIc9zbF7vtzW9ZFm4V+er8Yu+KuKULIIsYGju/3BGKrWLUh7bMqHBvd0Fw8hw8u6GZT9V5dGws2Ux8N40LxS2bfHD2sidw/CwCxQCESZEeGTNblv9GY68f/b3aKoHiR3fyp21v+C48bmIcs4ZbWGEnOWabBQoeJg8MXbAZ5ypeofpzg1qsaKxHXd07XEjXVBBh8mNwjhVfblQEc9LRV3JEgMXCJtcUblCTdtxHdV0d6plICcE5a0LD5zrUvKrA+S0LMdRD+dKyNZ/dB4ciPrMQRQWZiAvxhtHmxdEWgYKLdBiE+X/ewAsmyWNz4xd8eHoZ683usE5Y6LxAYTC4Yeq+p/gmOpRNNddRpIkq4EqOegakoeTSfbz5+AXfWLGCK+FZV4tnR+NUAqBjgcIAtrSmxSqKgrN/y9s1DFyO61wZ1i/frESdZo6n2jd4cHEX0kLt3cgNMPlGYcWxMjx//xlfVWLFd3z9/AnvytYpZQzbU6BQLX/hrsVmfLyUprKtLR45ewXse6Yad1PVGcy3xWWbBQrhGjF6BiCt5BLuv/mIL99YsYJLxlqH2mdHEafpg8wHx50qiadaZLEWNxxflzbtY0ugePp/WF/xHyg4cQvh0VOsox7EvncbkIYZ++uwqlKqqPEXNt39juw/t2GgqwHKcgzREdUVKLj+u8AjZCNijnzFynv/q0QiPPsLmyv/hjVXb2Esa68eEZi4uQrL5H25/f4D+QdP80KKIgaI7WoFCv5cLnDzK8KMne9QePNv2PBY3JeLTHj4d6y8UoWFm/ZirL91fg2jby5m7KpWtb/pHtf+GQQM14/sUfpkLXrw8+NMBIVoA7n9u/+jEh24fq8pf43pAXpMuKL31G2I3v8JyzTHbXv8D6y9/RWLUpjSq6wQZCN/hUp4cJCPolu/aARveoXCW39nInP+Db7tigbEx+j1uZO3uQRibr4YVpsSjiFyBIBOvxyKDOtw9c887E2firC+iuPKz73DYzUCQrsJFNw4jPAONGPjqkJcESM8yvcux8mlkYj2NmJY5GJc4QWIriNQcDZzHTwey4pzcWH3OiGPxv7VOLd6HlLH9gCbJHPHTOvr1+b9kL3H2P3bBSOnBGLP9gV4dCETVewvwZfTUMlFGaSPxCRNZIPbcD/s3bsEr69xQkU+qi4m4nymD7zZBJiig9ZVBAreVi6umDgnBCd2J+HZ5VyVWPGhNAMvTsdgnabka3sJFFz77sNHYuumBDy6mK1y/vm2T0SiyFfneuTmj6k2IYgzqTgRaStimikDqnGSrYUdwanmKm1Ys8Swoelv9bUsvDi3AIeiND8Oa/rJJvHkRJZncn+04kY7CBScnVz7IDlnFm6eVljmbPv4wCysD+tpU9DhvrcDYswoPZ6Gt6LQ8KE0Fbc2BiGqD5OXQ5UUVD1X7j4+WLpsDu6czpDPwdu7LBevL6TizuqR8LF7LRrQL2Q8ju9PYY7PR9XldDw+HIP98+w815p8Eb6kSPhRtQsv8TAFxiCPj54oRKLZW4c5tU2tmey8z0mgcABvV5os6ssPulC4JQZOLiGgOflBc0LX6U/1xdIe14WxfzAG+HSEg2Cf2W69/OE90ofJH2F///YYK53jV7RxD0yIyxOjAouQGT8dIcHBCA4ei8HSkqFf/L7m4tETfbv/THPbgkSkXWju3Lw8bSzV+JlsT32l7wGFAfe+PeClWfrT6fbpMQQB/D08BGExS5AvJpHMiR1vZ5miMqYf3/+eCJlfKHwH5cUgoKvZ08E9lAQKBwb68UB1JszUNs03MUAMEAPEADHQLgwMCkVClvgrm5wRPQOzRzm5DpieT36sMOvii8K1Yg4K1bISuh7a5Xognn8sz2TvdrW3+6jZSJfv40J0XFHOPAT310S1dRW7M5U4MmYOb1db/Ij7AQkUXQUk6sdPd/H8iAuU2qAHQ2KAGCAGfl4GXPoMR+jshUjNzEJWVhay0pMww687fd91tWcel16YmZyN62JOjKvLw5iKBz8vf3TvoLkjBtqHAffh07AwQ7yPZyzB/NkhGNari4oTXHLMoYEI5iM+xmO4Z/vY4EeyRAJFV/uSpP7QgxsxQAwQA8QAMUAMEAPtzIArxkyeLFdIyVoYh+0FifizKA0nd6xBuZSwc282lo9zvtTjj3xop7Z+PkeL5ozmjBhoOQOtEigSEhLAvcjgLTc42YxsRgwQA8QAMUAMEAPEwI9mwBML85cLiTElMULzXr4zE6um9IWpA8ShWbNmYc2aNYiMjLR6fnZxccHcuXP5z6dNm2b1ubu7O+bPn4+VK1ciKCjI6nNi6UezRO0Rc8RARzLQKoEiJSUF3KsjO0bnJvCJAWKAGCAGiAFigBggBtqLAaVKxwaU712Ji38uw8U/C3F46Xwsnz0Svh2U1DM0NBTHjh2TX+PHj1c9Q8+cOVP+bO/evRg+XL1mfN68efLn27Ztw6BBg1THt5d96Dx0rREDxEBXYIAEig5QybvCxFIf6AZDDBADxAAxQAwQA8RA5zMwadIkWWDghAqtQMFFV0gCxr59+6wECi5qWfr8jz/+IIGCnt1JoCIGfmkGSKAgwH9pwOnBrPMfzGgOaA6IAWKAGCAGfncGMjIysH//fuTk5IBb0sHaw83NDQUFBfzniYmJqs+4/fr06YMVK1aAEy+4pSDssfQ3XVvEADHwqzFAAgUJFPRFRwwQA8QAMUAMEAPEADFADBADxAAxQAx0OgMkUBCEnQ7hr6b60XhIySYGiAFigBggBogBYoAYIAaIAWKg5Qy0SqAgQ7fc0GQzshkxQAwQA8QAMUAMEAPEADFADBADxAAxYJsBEigogoIiKIgBYoAYIAaIAWKAGCAGiAFigBggBoiBTmeABAqCsNMhJAXRtoJItiHbEAPEADFADBADxAAxQAwQA8TA78JAlxAojH1HYHxwMIKDJ2LMIDdymEk0IQaIAWKAGCAGiAFigBggBogBYoAYIAZ+Mwa6gEDhiQlxOSguLkZx/nyEenUjCH8zCH8XNZDGSco3MUAMEAPEADFADBADxAAxQAwQA7YZ6HyBYsBkLMov5gWK9Eg/uHdJ57wvEo4+xZemZnyvvY+Saa6tFlFGrLqNOosFFosFHy8nt/o8BLVtqMk2ZBtigBggBogBYoAYIAaIAWKAGCAGfj4GOlmgMGJoeAoKueiJomRMH2LSd9hNPohcfRK3XnzA54Ym3rnnHPzmb19Q8+oezm1NgJ9rBxo/eC+eNgqiAtful4p1GNlKIYUEig6cp1bOCd24aE6IAWKAGCAGiAFigBggBogBYoAY6HwGOleg8JyAuBwheiInLgh9ulkbxC14La6+/YpmMeqAEwisX8349vYicnysj28XyMZsxv16qd1m1F4vQP9WOsMkUHTQHLVyPtqFD2pbX1gku5BdiAFigBggBogBYoAYIAaIAWKgBQy0s0Bhgqur0ekJGDB5EfK56InidET6uVsdZwpYi1u1zbIg0fy9Dm8qr+Lk3hKUlOzD2Vsv8bFR+Lz5c2Wbll7Yd1RNCFh6Dk8/1KLqwTGktkEIsS1QuKCHhxu6tWDy7PeZhACyDzFADBADxAAxQAwQA8QAMUAMEAPEwM/DQLsIFEb3ARhjjkZiVgGSpnpZCQ26QLiNwszUQj73RFHydAwxaYxmmojtlfWiONGM+ifHsMTPOveDaUQ2Tldcweog68902+1kAcC2QDEIUxcXIC81AdPHDYK7TjRJVxwP9UnDbSfzRfNB80EMEAPEADFADBADxAAxQAwQAz8rA20QKEzoMywIEQmpyC0SlmlwlTicFSg8J8Qhh4+eyEFcUB+ryIFeCWfxrllYVtH0oRT5bYha6EqTY1+gEAQbzo5FealIiJiIYb1s5OUgR9g5IYzsRHYiBogBYoAYIAaIAWKAGCAGiAFi4KdgoOUChakPhgVFICE1F0W8wKCIE4XZSxAZ2NuJgQ/A5EX5QmnR9Ej4uWsVrl6Yf+G9GD1Rj/ubxzpxTuUcrAgg5KtowrtTcTAY+iJy2w28qmsUclo0f8eXdxU4sMQPripgp+L4GynnhPb9Iy4nK23piR8mn0isPn0P79h23j/CuWVB8LdZxaMPAiIXI7dQsSdferW4AFmLo2H2H0hRFao5sj8HevNC28hmxAAxQAwQA8QAMUAMEAPEADFADHRdBpwUKIxwHzAG5uhEZBUUCcKCKE4U5WchOXYaAod4wtXJZQluoyORwUddFCF5+hCYrBzPYOx92igIFF8foSS0ZQa0FigsqCsrwtTN91Gvl2Tz2wscjmKXiLReoDAFrEBp1Tc5b4Yqoef3dyi7cN9+mVFXL4wMmo7Y5FyhugkjAhVkLUa02R8D3bu1SLChC7Bl/JC9yF7EADFADBADxAAxQAwQA8QAMUAM/HgGHAgURvT1m4rYFE20RFE+0hfMxuSxPuhlbGmnPTEhLkcQOXJiMb63zvHembhaI0YufLyMZCsBQ+cYZh9TPz+Ems0wmzNw4Z1wnoYn53DhaSMaXl/F9tTZMM9Ygj33asXqIM2ouZzCRFG4wWcCd7zyyrjwThQd7EVQDEbu1Wq54sj3mkqc2piK2WYzovL349bbenyr/4pGUST5eDnZrtDg6jUSobMXIi1XWfrBR1UU5SE1IQLjBrnYPZ4uKPuckH3IPsQAMUAMEAPEADFADBADxAAxQAx0HQYcCBReCE7IEyMmCpG9JB6zQkehn2vrf8E3DjJjUb6wjCE90g/ujLAggzFiFW7XScLCbpjZfQbNw+oSroqH5rWtCDP7aw3LREJ8q8X7B4cR5crsE7gdD74K7Xx9VIJQth3N31OPv3EsUDDlSJs/V2DDWKYt7nx9F+DUazEyxGKBI4FCtofBFV4jQzF7YbpY9USw3/wQNxIoNPOk2Exje9qPWCEGiAFigBggBogBYoAYIAaIAWKgSzPQQoEiFtMCh8Cz1QKFG0ZHZgi5KwoSMXWwjQSQjEDR+PIwZrEQTT2ON3rLNHSXgjAChUUnl4VpFk69dS5SwxmBwjvzKmr4vmkjMhRnOXjvU6cjKBRnmxMogjA9NgV5zJIPEigUuyq2om1kC2KAGCAGiAFigBggBogBYoAYIAZ+RgYcCBRuGDhuhnVCzMJsLImfhdBR/ZzOO8Ebx3MC4nKEX/9zYsejNys8sH/bW+LRWoGi4Ql2m1sPqTMCReD2B/jKCxRf8eCPIF1lis2P4SiCwqWHD8ZNi0WydolHcQHSaYmHrn1/xouQ+tz665JsR7YjBogBYoAYIAaIAWKAGCAGfh0GHAgU0kClJJlJyGFKivLlMPPTsWD2ZIz16QUjKzJY/W3EIPMicYlCOiL93O04mFNw5FWzsKTCgbAgO/yOIihqS5HBLu+w6p80Vv13ZwQKZ/aR+2triYdLD/iMm6abJJNKj+rPDd2QyC7EADFADBADxAAxQAwQA8QAMUAM/PwMOClQKAM1ug/AGHM0ErMKNGVGi5CflWy7zKjbaERmCBVAChZMgpfdih/eyLxaI+Z80FmawYgLssPvSKBoRbJNFnBnxAdl+cYXVKwbqSvAyP21Eij6IGDmQqSL+TmEEqNctAmVGWXngf5WrkWyBdmCGCAGiAFigBggBogBYoAYIAZ+JQZaLFAogzehz7AgRCSkIpeJqkia6qXrmHtOiEMOnz8hB7Hje+vuo5zbgMH5N/BRzDXR9KEU+T764MkOfxcQKIYuu4lPfJ+bUHV2IVMVROm7ImJok2QOwtTFTLWOgiwsjjbDrz9b/lQ5D2sr+pvsQgwQA8QAMUAMEAPEADFADBADxAAx8LMz0AaBQpl8Y68hCIpIQGpuEXQFCqMvpiUXCNVA0iPh564ca9OAvebi+Cup4kUzGl6eRbaftbPelQQKA1MVpPlTGZZqRRW7VTw4gaIAeakJiJg4DL1MTtiIiSSxaUfax6EYRrYj1ogBYoAYIAaIAWKAGCAGiAFigBjofAbaRaCQJ9LoDg93o5VD6DY6Ehl8lEUBFkzyQjcnnea+Ccfx8ptYZcNiQfP3L3j/7A4uHBJLjO47i5vPPwpVMeQICjf4TDDDbOZeGbjwTjz+UxlW89u47cEY3suW8U3o5xcqHi+dx4yMC+/EJSefULZa2W42T0LAAEk4GYFVt+vE/Zrx7cN9nNqYitlmM6Ly9+PW269oqK1FvRgZok6S6YIeHm5O20a2uZO2pP1tzTdtJzaIAWKAGCAGiAFigBggBogBYoAY6AoMtK9Aoesse2JCXI4QPZETi/G9WzLxJvgsOIAHdU2i06+IFRbRyZffZYGCLS1qa/+PuJxsqx+syGDreHb7VzwqCZVFGVPAGpTX2Ojv93e4sP2sXCZVLVDY6g9t7woXCvWBOCQGiAFigBggBogBYoAYIAaIAWKgYxnocIHCODQcKYVcsscipM0aBXddEcPBIN0CkLm3FA/ffsTnBsb5b/6GL3U1eFV5FcfXJ8CPr9LRuQIFB6zJJxZbrzxFdX0jmjkhpfk7vrx/hHPLguDqtw4VnwWBgwQKB/PeGlboGFkso5sn8UUMEAPEADFADBADxAAxQAwQAz8TAx0sULhhdGSGUO2jYAEmeXUj58nUD0MH9yI7kJBADBADxAAxQAwQA8QAMUAMEAPEADFADDAMdKxA4RWMhDwueqIYObHj0Ztp+GdScaivpDoSA8QAMUAMEAPEADFADBADxAAxQAwQAx3LQIcKFG4D/REUHIzg4Anw8+5OyhAJNMQAMUAMEAPEADFADBADxAAxQAwQA8QAMaDLQIcKFKQuday6RPYl+xIDxAAxQAwQA8QAMUAMEAPEADFADPwqDJBAQcqVrnL1qwBO46CbNTFADBADxAAxQAwQA8QAMUAMEAM/BwMkUJBAQQIFMUAMEAPEADFADBADxAAxQAwQA8QAMdDpDJBAQRB2OoSkZv4caibNE80TMUAMEAPEADFADBADxAAxQAx0JAMkUJBAQQIFMUAMEAPEADFADBADxAAxQAwQA8QAMdDpDJBAQRB2OoQdqcDRuUnhJQaIAWKAGCAGiAFigBggBogBYuDnYIAEChIoSKAgBogBYoAYIAaIAWKAGCAGiAFigBggBjqdARIoCMJOh5DUzJ9DzaR5onkiBogBYoAYIAaIAWKAGCAGiIGOZIAEChIoSKAgBogBYoAYIAaIAWKAGCAGiAFigBggBjqdARIoCMJOh7AjFTg6Nym8xAAxQAwQA8QAMUAMEAPEADFADPwcDPx/w5/YAudIrowAAAAASUVORK5CYII=;" parent="1" vertex="1">
          <mxGeometry x="446" y="10" width="428" height="43.04" as="geometry" />
        </mxCell>
        <mxCell id="mDRG4pExN6Dax-DI5Kk--2" value="" style="shape=image;verticalLabelPosition=bottom;labelBackgroundColor=default;verticalAlign=top;aspect=fixed;imageAspect=0;image=data:image/png,iVBORw0KGgoAAAANSUhEUgAAAyMAAAJBCAYAAABVmGogAAAgAElEQVR4Aez991NUWRj3i56/ZDdJQQQBRUUQRXISEVHHOMOMWUfFnAMqJhSRAUQxjDmLcdQxZ9RRFMEAP96q91adH+699d6q91SdU+d7avfOoZvuJjTg94euhu6991rrWZ+9+/mutZ5n/W+CIIAv2oAMkAEyQAbIABkgA2SADJCB7mbgf+vuAlkeIScDZIAMkAEyQAbIABkgA2RAZIBihDNDnBkjA2SADJABMkAGyAAZIAN+YYBihOD5BTyOhnA0hAyQATJABsgAGSADZIBihGKEYoQMkAEyQAbIABkgA2SADPiFAYoRgucX8DgSwpEQMkAGyAAZIANkgAyQAYoRihGKETJABsgAGSADZIAMkAEy4BcGKEYInl/A40gIR0LIABkgA2SADJABMkAGKEYoRihGyAAZIANkgAyQATJABsiAXxigGDGDFxKH/sNHItD8Of/3C6AcMeGICRkgA2SADJABMkAG+i4DPUyMhCJy6WtMqmvBxJ2HMMAjAaCdI56nvT5hTKGXHRe2CIllX5zXmLC90sPyvSzDozZ1/JqBM+9Itjh0BTHdVCYfFB3vN69tGLoH6QbupXvA8/vHD3Umj31A2I9A9NnzyGuoR97ttQhln/aBPuWzwOvnr1fc98fUs1W4+/UU7jZuwO9encu+6dq+oX39bV+KEd0DISDrFPIUx672AeLiei+gfhEjIUsxYu01JK+9jOFpvdd2djdlwNgaJIttW30AETpm7I7t1s8oRtw6gY7UqRhy5CDSHl7EWNFxFl8vzyPz1n4MW5GJoKC+xWn3sedajISs249sxdb6d9nuQxeMgKMn3UN9qi46h1d0el2+6rB/tT37AXFZKD65FX831OG2cv6XOlx5tRu7y7IR38/+vO5jr7eWr+sbihG3z22y1FsZ973efUCMmBqvOmecGXHOEnXnzEhHbN/DHQK/iDuvbaLNEnJmJAJh28uR+VoWIHqnWP37KjJOzEYIBYkPjoEPYkS1+yWklI/jUliv72/Tb53t+TqHVxEStu92YiQISZvW4ewXdyLmJK7/uwC5FCQ+3DO6vqEY8cF+nvDPY3qrkKMYMT/Q+0jMiF+cZ4oRPz9gKUakB3Eg+m3Yj6w3khAZ++gvDFuShuCIQAhCCILGFWF4/XnkvTmDUSWZdIrNz0CP/vdAjPyzBREZo9DP+UpF+NotGPP4qjQ79eoQYvPE/qDz0Lk2cCB0xHCMyY2XX6nY9FAUFydw8ni+7vMRiB2ot70DUcWrcb5ZEiL/fCpH2Y4MxMcGQRACEJmej7W3D+HO12M4cTwPsew3H9ilGOlc1vX88u/ebluKkT76UKUY6dyHk1/s6TWbFCPOB3JcERIeXnM6vbnX1yM81sbp7Z+MgbNGcbmQ14wp95UHYsQmlsQxcQ1SXoki8SKStiT44NAp5fPdM+cjEivvS2LkRNVo1/YekIFtz086l3XdadiA+cmiCDHZODAavyxNR5j5c/5vtZWtTShGLEzZ2snEHY/xkK/ebbf2xUjwXCTuF4Nim5BRlIHg3Bqk7fmIQmdsxRcU7P8Xo6bkI8AEjDvnTYvNMC+lMjpT4cNLMEZfVsUTpMwpRj93yyq8Gp3XytMC36UA4Alr1rcPwMDfMWz5feRUNmKiHGsysfodsjf/jdhREe2fb7KZqxs1cPot9fpiPQv/eoux268gYfIkl6O6BvuHLUB8SQMmHJbaVvjXS2Qu24EB/V3A2z8XUbPPIq30NfKrmnRJAVow6fBHjNt8QPtBUu0tXdtsR/3/BpuqXCnnfUby5P4QQqdj2PrnKKiV61r5BMm/zjDyFfwHEsuU86Q65R94grQl+xAZ29+93R0DEVp4BCmlr9UyJtV9xviyBxhjYku1oRJH5PLdzLELu3rY34IXdTQyo/Hs0TItn+3oQOCIpYhbdgdZ+9/p7Cj1ycTqt0j/vcDaD2K78v7C6M2PkHdQeYYo/fgFBQfuYPjIDtpOENBvayVyxCVBb44j7vdwaz3a6QdH6kwMO3cUWS8lQZP3+iIyrpQg5pcoq3iZvBHpYln/liJmyw6kPr2KvDcXkVb7K/oVLEbiv5eR13AV2Te3YdAYTRQNOHjcKZYyji7C4Lo6ZIvLyZ4fxYiloxC6dR8yxLJfn0fq4d8ty8jCDhyVZhecy56uIufxSaRe2IYhc1zFYmjCIaNuKkImL8bIm2eR65w5uoqc+1WIW+5KmEUgbNN2jPlXjrl5cxlZN3YiZkKyywB2NWbERowISfMw6qkoRq4htSzV1DfDEHX6nNa2N5eR/egEkv9ei6gCG9vr+tExPBtRB3ZjzO1TyHouz74oy8JenkfakV8RrDteuW8cw8ch5kg1Mp6K/STWS7JH/I5fENJFS5Gil57Eiy+taG1+gVNLYk026Dj/Stukd8/EyMBVG3DFuZyrDlXbo72uU0BcNtZc3Y9LnyVBc7flOK4+2Yx1S2IRYrb78Nk4Ipb1uRTrSpbi2PsTzpmbS7f+QHbqZOx5fgx3vp7EzdclWDlVE0Ux+3c5xdLNuwuw8OgeXBGXk32pRvXeZCSsXYPTYtktx3D+5hzLMrLovaW4oy5XO4lbH2tw7sFGbN44WvstM9RTEw437/6BUTlTsOtBDW46Z45O4tZ/+1BR5kqYBSFpfTFqXyoxNydQ/2obNi4czgB2g407m3Vez3jv9y57eCFGviBn2VlkyA6t3skUnbmseUaHUXXkbGIWPBIju85i9DYps5WxrBYUlh5CuCtBojrHnjiImvNmLsPgOFtuIAcCc/5Gruwwm891/n/kLcZMGun1Q90KkwPBRXeNgkB1ipuRv6XC1haa/a9j1Iq3tudPrLiCwVEmYHUZxWzbJYqhknL0V2yi2ltxKl2/G2xqESNfkD1vDgav+2it65EGjM7TiYyQRRhV7qKc2hcYPd6F3QOzMXTjfwZhZ26jni3Vhqq9XZRZ5wlrJjsr9jO/e1lHIy8azx6JEZ/sKLJ/CmNtnwOKfcSBizQj+44oDFr60q3tJ9Xew/BYD+1ktpv6v86hvbUWYa6eE+rxxvICizYi9aW0vEtyTnV/vzmDxNXxRkGiiJHnJ5H+7zlkPZad9lcnkHLjpPZ/Qz3SqwtUUa2IkZz7x5Hx5KzqQOfeq0XKv9r/eQ0nEPdrqM6WgQivOqE57IrD7Xy/hLQjVvEiCJoYyTpXgpH3ZJGlP9eubUIEBh48glz9ccrf9/Yh4bJ9Ni13YkSdGXlzDHEz9e0S+yEBMecv2LftzTkk7cq1HXxxpM/HqMc2bVLq2lAPUYSZ07W7P+8aMk/OsQhB4/1mZMez72Kx6cZntLW1OV9NV1fp+taX67V3jidipD8mn/5LCnb/sAF/eCnCgvNn43CjqziTYzhWnWIUJIoYaa7BudeHUf9edtpbDuPE4wrt/6+ncOPmDETJ96oiRu68O4jz/x3BlUZRxJzCP/+V4e8X2v93vx5D1Tb9YKADww7ultqnChKlvn/j8h2reBEETYzcfrIGex/KIstwvk3bhCCk7i/FdcNxclmNO7H/OrNpeXaftMc1v+9rdvRCjDRjQnUj8rf8hUFR4o0egKBRW5Akp8KddOgehuuyT6mOnI9iZFJVA/L2XsewNHnPj7A0RC98hAKnY9iEzD9y7B/iqnPsi4M4CEM3Sw6VwXE2Oy7hm5FcJTtetW+RvngnBo3ORWj8PAxecB15TpHSjPxNe12MunhzIzkQEJmO0Lhc6ZW8DEN+PYzR216rs1PZ8yZbbKHa/3ADxpU9xMjx+VLmoJB4hM+4hnFOZ7IZ+StWqA6SIASi/+wHshhowtgNRzF88p8YoJQtvsfPQ0xutqU8543hk+11Nl9/GcmVj5E4PgeBggOBCfuRJtu5YNUarUxHNPqpdRqHyMI9iFt8HdmVsnitvILBhvXQor37IXzBU9UZnrDnMuIK/kBo3FiE5+/D6O2ySKl9gcTcKK0sue9Ve9rw3HkPhY7VURC8FCO+2DEgHXE7FPZfIXVhOQbn/qLxGZeLsKw1GDTcyLhj6F/IlEVd4b6bSPh9s3TP6Ptxwp+dkCI2G8PuSI5p1qlZtqPhLvsragpG3Jed2hfHkLhzGkIzpFiH5Kfy588OICZJ1zZFjDScRsLiaAhB4xB3TxQwF5G0LQkOIQlDrlxyOtj6+ihiJO/hTkTGCnBM3yzNsDyvxOCsQAhZSzHmhXids0hcOVTHYyACE0bKcRijEPrrb4gu3YjEm+fkbGHm48W6amIk79Vl5D78C8NX56O/2LaNO5D6XG6bSbw5ClYhRRZmube2YlD6ADiEQARm/Yrh9WeQ8/yKJBxMMyCqGHEZM+IqcUAIgpKVGJNRCBMHJ/ZtR9K9i1I5rw5j2BSzgBmAgYdPSt+/OYeUutWIWSK2TbtOv8IpiJxivqdHYfAl+bpPqjFs0SgEisK1/3CEb9+DdGe7L2D0xhE62+v63fyb4PH//VBY9wKtTjHyHa+Ozujk65vr6IkYicDyu5KzffvRAmR43BYBQr9R2PhYdtSbD+Hw8WkoyB2JcWv+RM075fMD2DJTVy9FjHw9jiPlcRACBmPNv6LD/jfO/p2LEGEAZl897BQP+vooYuRu0y6syhLgGDUPR0Wnv/kgdswLghD9Cw58EK9zAsYlacY4mpSZhVi0bwnKHlTL2cLMx4t11cTI3ebjuPWxHPv2jUO22La1xaj7ILfNJN4c8TNRJQuzO2+3YtnUgQgRHAgdPRZrb1ej/tMxSRQxgL2Ludfx5g3PPNZv/eKFGGnBpIPnEW0aaXQkH0OuLBD0o6HunDdPZkYmHX6JkZm60XARkoBUDN38yeksTyytsnf0fXKIFXB1jrHLZVohGLDgqeSwH36JxBz9CIx0HcfwLRhR9LtlJM6lE+TLDeCIQfQqacbDbhRctX/dJ6RON88UaE7rpOpLiFbL131eeV4dkfK43j7ZXrP5JEtdte8MszFqfZV+k+0+4i9kOkVWI8ZMNLHTfzNSamShuWmvdamfIwqRf1QjxsUyL9WeXSlGOlhHr8WIL3ZUZ7SaMX75Mo8fXOo9f+Q9Ro8z9pvHfLmor/H8HAy/K81mpJabZmfaOT9oyS5kOkfTzyJxrXEGJHDeNmQ4lzVdQfLOJK3dqhipw7B8sV1K+Yoo0ISArRhRHHnlOo/LEJUgQFvOpFynHZsFJWPIZcm51pcj2UarQ54lcDwQYfsOS0JGKVu2U+jeWunzZxUYnK4tMXNeM30xkp7Ls0ZKG+TzVDGim5mQUiqfRZq4nGy+7Pi30x9qv6oi8RpSyzONM1M6oTW2foU2Y9vetfNXSbErtkv5NJvkXPwT/dq7lrffB0Rjwopd2LOqEAO9Pdfr4z0RI8oxp3D90kSNbQ/K6je9GKedswAncOKQcQYkeMIinJCXNV06naddVxUjSkYvpXxFFGhCwFaMKI68cp0vZVgv7ikWMQ57GuzEiIt7JyASs6/WWkSPxJ1Wh7stNdizVFsuJggOxO7chptiu5WyZVsN2l4ifd58ACV/6M8RIERNxP73yiwJ9xlR728POOOxLhjuQ7bzSowUrtusG0WXjRM4CfG7JCdPP3rtznlTHRPL8hadM3zwrI0zrBu5d+UU+uQQKx2tOb+uZ0a0Ywq3H+yEkVylbA/exUxf6khyKvoVud7YULW/i6UvAeMvIV8UkYefYMRopWyd0KprQv6Oc4gr+B39Bpoce1c3gE+21+w56dA1DDaJXfcPoQAExcgzRqJdYpfK8U3iki/jbJHK3JF3GJ3vYXt07VTt6Yo73bHu66zY2vre0Tr6LkY8t6Ogu98n1b5F5vIqRKeltrtfh2PUEeQoMyMVDzB69mpExA61Pk86bEdFDNTDWzGizlaYnHJnf6ozHvUwOPuKiGjofjHiGDRUnSHplxqL8L+kOBTrJoQ6MWISDmLbNPGgtEFkUzsn99oyGydfm/Exl6ddTxYrBlFyDbmPjmLU/mluYzIcsfFa25LSESNvsGiwvZOVaAw6fkaeGbmI9LObEDNHyZxmvceUe1Ot470tCB9gPS5g9jZkiPV28b1ynZ7/bnb0rW0VBOUY78WIOlthcsqddlFnPE5BLyoERUR87X4x4giPQqKSaSxnKEZXSHEo1k0IdWJEET+6Z1PYn6tx0SnClDaIdtXO+eftKkzVHS9xos34WMuz6xd+1vPvL/ZRZ/WRV2LE3kHXnEn99+6cN9XpciNG7Eb7xUa7u67TKD45xApQ9m0xGFsdGW6Bvr2GYywPIeX6vrwHICitHClqIL+8REZ27JwxDzYOcnt2UvvAIEYECGKwu7JkSVeGM+h99REMdheY75PtNZu76nOLbfvnIWbJfYyrsY8pmlRnFSOqPczt9bCv1PNtbG2pn4fXNJ+nluFjHb0WIz7YURwVDMw+jExlSZzKiJwEYMEm+8QI4szT/AcYb441OfRfu8kYzHZy/7+vy7Q059vsXEvlufi+28VICPot3ogkJaDc4Ojbz1TohYVd21THXBVU4nNKi9+wCgDxexf20Isbs/AJCkdwgZxWuaEeudfXYkCk7pkYFIMBJbuR+lgJJreKGbu6ONJnI+EfecmVao+ryHlYh9G1xYhICtZG5eV7UxWe6vHWspyzOXbC1Mf72z23Ojt06vUVoaHMOtiV4+syLc35tneuXXzf7WIkADFz5qFKDSiXZyecYsLVTIWLust9Yy9GQjHzfI2LmRbR7u6v6R8+7HjgZ+yL7megl4mR/ohY/FJaImU7cyJA8MkhVgyvOcYuhUa3ihEHgiZf1TlwnzG+4h3ylZeS6crGQVYdW5vvxBtNzdBlN3PiGICQ9I2Id2ZLMmc9akTmHGOyAvXG9cn2ms09EiNB0xBfqmX4mlj9XrPHwfdyxjCKkXZt6aMd1b4OGYmISYelzFgKh4owqX6AEcl2s08OBETNwuD5UqY2JWOakkRgwvZq22QMapkeOWm6AHavRrVdO9dS+brvb67WZkS7VYwEImx3DXLk/VPELF9Zj85oLyWLlFkEuBEOYtvsxYg282EnAHwSI0r/xf2OkY9F518fkzEEg46elONe6pH38rzWrkdnkC1nNrOviwAhKBz95/yJ4Sf+QtpDOYmAIjRen8LIVcZld6oYMdtQb0/x72vrMcBm5sQ7JpXfF3+8eyJGdAHsn7ZikcdJJNpzrnXff1iH35T+71Yx4sCQbVtwTd4/RczyVf/+EK4oLzkI3iqmdHX3eGZEm/kwzAQp7aYYsQwK9J77yB/37s9VpldixHaZli6gVe/Au3OG1VF5b2dGdGUVbiy1D071ySFWOl1zjPVtMd4w2jETy4517ZpfdUlMM8ZvKreMOLuzsbvvBCEc0aveS7E3+04gQn1YKnYwvYclS0HepXKmKzsBI17DJ9vr7LnzEAa0U5fAyfWYIDq9h58iMS/VuMxHFYpWMaIx14jUqcO8fii6t6fJXu20wciTdm5H6+jNzIivdrSvewCCBk9H1G/nkCUnHPAkxkcQA+iTl2PYci0xhT7uzL4szV6uvvc1ta/qoNqNhveEZVqxvyLhkejEX3GmDjannlXr3yliRBNf9nETmlgxz7ao4sZSD6XvbJbSKTEcDWcxenuuadmfVheXYsR0zzlikxC+cg0S78qzLP/uQESMUr5OgMkJBFyx1Ps/90SMCPA1tW+PX6YVmoptz8XZj5O4emsWMkyJTdT6WwSHL2JEO+fOy2IUmJgUdIH5VvGjsdn7mWNb2IfeM+CVGLENYFeDhr8ga462t4DqvNX+izhdli1nVqNFz6XZDa/ESBBCZ96Rs2m5cShVh9hNxi3LQ0IxnOYYuxYjgej/x305K5M1pXGnQthvvZy1yyYzmC6AfZLN7Idqf8t3+tSsX5C7qMhjx1y9pqtlRKE7kSZn6Rq7dKFRKHhg83ZH84VghM17LIkoG+Hi0LFojhkRQooxukJa4mab0thl/SQ21JmkI6+QmGM36q8w1IH3DtZRL0bs7lWNzQ7Y0a2dtPun/b7U2Um9Z60iUquz7ni3ddAHf9cj7+FeROn293B3PS2A/QJGbzHuu9EjAtjHrkCyM8uTPrZDtosugN0sDtzNYoj2UMWDYZmWAHU/E18D2F2IEUfuUoyRg9+VuJ7ARaVS8gA7IagGsJviddrjQBCgCjTzddUA/EtIKR/XtclGzPXscQHs+uBvcf+PvViv29/D3T2jBbD/jTPHsgwpfHtEAPvg6ah0ZrfSx3bI94wugN0qDjRhYf1OgP0yLQHqfiYMYPfYr3DHF7/z4nfP/JzpZf97J0aqP2Ksq9S+JtFhCFgtu4JhYvrPEdMRPeemnFZWdAw/I3WmnLrXaTgtgF1zZgIQNGQ+Ypdp680nlJRryyTMBldnE1ow8eA9jJwspm8V042ux7B5lYhxOwWtOVOuxYgAQZ/at64J47b8jWHONLFSMLVY1tAZ6xFuGoXx+sZSN6WTZkbCnYHkDgQMmoLBSx5hfPlz5IoZog7dwFBTMLAqHFQxIp43GdFzlNTDLZh44CyiDAHjIQibWo0RM3cZ07WKKYtn/Y30A3KMhquZkYB0DFf2hjnyDhlKymMxuFxMSTzdLnWrZnOtz13fgKooOPwUo5wpgAU4R9izy5F6oBG5e15DjBnJWbwUIYZNHY1pcyfVPMeYObr0siOmI2rKbsS6SFvsGFqh7rEjcpU4XUl5PBbh40pcnuddn3esjmJZ6oxHXRPGrt4vpc8V2za1Egkzfld/IHy2Y2ABYudUY+gMne2c99cGxC2+q97b5pkRx8jtGDF3N4YaUkWPQ+TESiRuaZDFvc3+JOb726P/A9Fvw35kKcuZnhxC/I5pCI0XU9OKbIkpZLMQuXMtYiboUsXqnN48r1P7KgJBGfVXsmDZj+qrTrLisCvLvRSnWd0cULmOAGHkHCQ+UWZGitAvQsxwFYjAlEIMOXkCWfeOIlPc3fyfLRiotlVsr1YHq1BxLUbUPUEariHnxpYOpvYVU+1mIWJLCcY8VjYlPIX4+ZESkxPXI83ZX2cxujQfwc69LkIQNE6KMcm8cwzZDfXIPr8EYUP0MSDRGFiyGkM2z0PkjBQt6L1wCmL27USKkpLZNDMiCEMw6PhpNfA97e/liBwXK6X3FQRIyQFGIMjLPTfav9+7OrWvMY3tmNxUbHoozgycwMnj+RijBG/njkCs4ffJgaji1TivLGdqOoi/Dk/D+BQxNa3IUAAix4zC1N3FWLNEl0GyQ6l9FYFgnr3RhIB+uZNlFkNZ7qUEz9tl0wrPxa7XyszIbOTGihmuHAgdmYqFZ/bhWkMFzn0+hbuftmCJ2laxvVodvBEjjoTfUCNe7+sp3H6zmal9PXpei/bm62e3gVdipHDjZW1/DWV9uPPdZoYgIAWxG202sKv7hIw5dUjXna85oZoYUdaRG9+bMG6z/SZ/WkcGIXT2A3U/CcP5YialPA16bVmMTVC4rn5iytkxYupA9YZxFcSru86RVxiZqT/Hl79NzqmpThmztsjZo+RyVeGhC/Q3nKPVb8KeM4g2b3goDELsJldB4cq5Nn2tt4u7DfG8qZ+r1MoGIajUSXoXxVWMkmHM2W7TSHtgFoasVvZnMZ6rcOJy+V87m/a5Fa+qfTxgoCN1FMsZsApJ8gyQ0ibl3SAQfLWjOvtlbz9nWYceId4UM6KKHxc8iufpN5zU7jUPbGZr3wiE7/0LWeLO5krsgOXdmirW500P1VmFLhQjegfa3JY3JxG/qVje3VxusyJ0fBQjgttND7chttY+e5c20+Le9oZNBYMyMPS6i8D1F9UYsnqTtA+L3G5tuZaWsMBlP9tu6CimWs3H0MvK/ix2dVUEpq8M2p3X1Zse6pxofYC25W9FCOjrGITk0s24KO5sbjle++zapUnGGRBfNz3slmxaIRh/7IBu93WtHXe/HkXtwZlyOmD5c3W5ls6O6mearVzNjAhuNz3cjnV1rrJ3adfu+LOP16INex8DXokR0eEKTN6ny+z0BQX7/8WoaZPsp7lN2XomVr1C2vw/EaIuy5CdSHXJTX8MXPAQ+YaA2C8oOPgW2ZtPYlimKUbA1gkRR8pjEfH7deTqriMGOo/bdQvD07RO8l2MyNcIn4jBC+qRtV8JnJYdtMMfkV/xDCNztLJ8vjkckQj/7TKyDzTKAusLCioeI0m0uRojIZerd/anXkV+pXKO9H3hX2/byVw0EDErXlvOczqKf71F9pbziDPHaVj6wIHAMduQuOmZqR8/Y/yBOxg+UrKJOnPjwjl159w7hq1BwqbnUAOgD/2H3E2HERXbX8u2ZidGxLqKwfmZ+zG6xFy/FhT+9Q556/fYpDGV+1Hsiyl/I23PO61ssZxDHzBu8wH7fW8s9vGAiY7UUcx2Fb8BiSUNcjC/2Pdi4oOXyFy6wdA2n+zYbz2S9r/DeEsmM7F/nyB9RZWzH8y8BxZeQJ6aYEDmVbHdrn8wek6xde8XX2xnOseROhVDjhxE2oPzyFVmShquIufxCSSf3orBv8ea9q0Q4EidiWHnjiJLDpoWg6nTr5Qg5pcoy7GCMqPRLWJEDNQejojyA0hTMk69uYzsewcxbMEIONTZlM4SI2J5MRiweTvGKNm73lxG1o2diJkQri3jUkWPxLZbMeKsbxXitxUi2DArK4qDHMQcqUaGEoj/+iIyr++U7K7aWWqbJkZSMOTiKWQ9NQsZpY832/ebwokY+L50DRLr/0aWUq4oeMR6PqpD/JIhukEoD+5d5bpu3qOXnsSLL61obX6BU0tiO/n6OifajaC4qwoBa5sC4rJQfHIr/n5zGDeVmZKvJ3HrYw1O/rMWm9ckGMSIeK8HxGVjzdX9uPRZ3gzwSx0uP9mMdUtiLcd2e2rfgAHIL9+Ek2+PyaLkBK6/K0PZ9tEIU2dTOkuMiPuhhSJtUzFq1exdJ1D/ahs2LozWlnHZCBzzM5P/W9mkTfquTbwWI50Cg2MQAg1LaPqugTvFXq5+2LKn1IYAACAASURBVBxhCAztovgFV2X29M9DB9kL455e755WP9qxk53EbnjGBYUicIBpc8Iu5MrRP8QqzrqqvP4DENjpS6a6oU+6yh68bufcnwEhCI80bU7YhbZ1hAZbxVkXltel/gfr3TkM0o5OO/pHjND4hJgMkAEyQAbIABkgA2SADPz0DFCM8Cb46W8Cjh5xhJgMkAEyQAbIABkgA/5hgGKEYoRihAyQATJABsgAGSADZIAM+IUBihGC5xfwOPrgn9EH2p12JwNkgAyQATJABnoSA+2LETrrdNbJABkgA2SADJABMkAGyAAZ6AIGKEa6wKg9SW2yLhz9IANkgAyQATJABsgAGeipDFCMUIxQ5ZMBMkAGyAAZIANkgAyQAb8wQDFC8PwCXk9V56wXR47IABkgA2SADJABMtB9DFCMUIxQjJABMkAGyAAZIANkgAyQAb8wQDFC8PwCHkccum/EgbamrckAGSADZIAMkIGeykAHxIgDA+IzkZeXh7Hpw9CfTj2dejJABsgAGSADZIAMkAEyQAa8YMAnMRKcsxM337XgR1sb2pyvr7i5mYqzpypO1otskgEyQAbIABkgA2SADPREBrwXI2ELce7dD1mE/EDz50/49PEJ6n5lB/fEDmadyCUZIANkgAyQATJABshAT2XAazESvu46PouzIa2fcbt0FKehvJiG6qkQsF58QJEBMkAGyAAZIANkgAz4gwGvxUhU+QNpVuTbfewdzk7zR6exTHJHBsgAGSADZIAMkAEy0BcY8FqMDCq7L8WK/HiBIxMJQV+AgG0gx2SADJABMkAGyAAZIAP+YMBrMRLyywm8di7T+oTLK9hp/ug0lknuyAAZIANkgAyQATJABvoCA16LESFyO+58FbNo/cCro1MZM8KYETJABsgAGSADZIAMkAEyQAZ8YsB7MRK2FJc+UIz0BSXKNnBEhQyQATJABsgAGSADZMCfDHghRgIQk7YYVfc+SjEjrZ9xc+twnxSQPxvMsnnDkQEyQAbIABkgA2SADJCBnsGAZ2IkbCEu/CdvcPjtCxpf/YMTmwq46zqn4yhGyQAZIANkgAyQATJABsiAzwx4JkZC5+DcO4oRKuieoaDZD+wHMkAGyAAZIANkgAz0DQY8EyOy2gsYMhnbz79AszObViOub+IyLd4IfeNGYD+yH8kAGSADZIAMkAEy0P0MeCVGnB3EAHafp6EIePcDTpvT5mSADJABMkAGyAAZ6LkMeC9GmNqXYoTrIskAGSADZIAMkAEyQAbIQCcw4LUYUTc9bGvG9Q09V2VRAbNvyAAZIANkgAyQATJABshAz2bAazEyqOy+lNr3xwscmdizG0f42D9kgAyQATJABsgAGSADZKDnMuC1GIkqf4A2MYD9233sHd5zG0bo2DdkgAyQATJABsgAGSADZKBnM+C1GAlfdx2fndm0PuPqmv5cK9cJa+V4k/Tsm4T9w/4hA2SADJABMkAGyEDXMOC1GBHCV+LqJ3nPka9v8ej2bdy+dQZbMrqmgux42pUMkAEyQAbIABkgA2SADPRNBrwXI4ID0YtP4EWzLEjEWRIGs3OGiDNEZIAMkAEyQAbIABkgA2TASwZ8ECOSKnMMGImpq3Zi//792Ld9KcZG9k21RhXOfiUDZIAMkAEyQAbIABkgA13DgM9ihB3SNR1Cu9KuZIAMkAEyQAbIABkgAz8LAxQjXk4l/SxgsJ18CJIBMkAGyAAZIANkgAx0NQMUIxQjXNtIBsgAGSADZIAMkAEyQAb8wgDFCMHzC3hdrbJ5fY7kkAEyQAbIABkgA2Sg5zNAMUIxQjFCBsgAGSADZIAMkAEyQAb8wgDFCMHzC3gcqej5IxXsI/YRGSADZIAMkAEy0NUMUIxQjFCMkAEyQAbIABkgA2SADJABvzBAMULw/AJeV6tsXp8jOWSADJABMkAGyAAZ6PkMUIxQjFCMkAEyQAbIABkgA2SADJABvzBAMULw/AIeRyp6/kgF+4h9RAbIABkgA2SADHQ1Az6JkaKiIhQXF9OJ7WVCJiAiHaHRg9hvvazfuvohwOvzh4YMkAEyQAbIABnwFwMUI93lmDp+w8iyFkyqa0HuwumeCQLdOeJ56uvIdQzxst4BGceRe1i8xmdkz/OwfC/L8BfELJcP0L7GwMBDp5HXUI+8hzsROUTp34kY8bBe+lz8TnkZjlGO5XtfY4Lt6V6mM2qfo62tDW0tj1E5rnvL7n19nYHa521Oe7U8rsQ4+g6e+Xi0k2onipHugkEnLLpfjARg4J8vNTGz8xDCuqvdP3U5AYicfQ3Ja68hedY89abr7B+afiWVyFEcU7fvhxCb3Bt/VGMRsW8XEk/tRXxJLgLaYUq1hysn/Y8SZIp2cvV9O9fv7P6zu16vFyNBQzBuUQkqj5/D1Ru3cOvWLdy6eQ0X/q7Clj+S0L8LbBw8ehEqLtzDq4/N+C46kW1taP3ejMa3D3G+bBaSQvzE/tC1qG+U6uN0buW62f3deGlJlz0n7Djz92cJG0/i9u3buH1lH6Z0ARPG9gViyKQNOFr/FO+avqJVYeRrEz48v4m6DeMRrqsDxYg39wvFiJE1b2zHY0XbUYzoHj5dCpMvYsRUN8e0m5Kg4MxIL/nBDkTsRmlGa+L6ki6rs+p8uxUi4kh6bxUjozH40kXnTEDmsRkIMt0X5vtWtYcrsdFrxYjxR6vddrZjJ7PdOuv/sPRF2H/mhiRARBFieV3H3yWTMbDT6heOwl038f67O4e/FU3/HsREfwgSihGXzz7V4W+8hCWdxoPxPnFyHRiHP088w5dWN4y0fkPDhdWIk+uh1o0zIy77T3tmUIxotrDhryvZ7iPXphjpro70sxgRbxTGjHT3Q6KbxcjNDQjPGIV+Ll9xCAzubht0RnkUI3Y/dD1TjERh5q6zuCnPhJyp3o5lM3KRlJSC/D/WovLcTUmcXCrHHHX5WUcYCUTixnp8kJ3M1i8vcHHHr0gZEgJBCEZs3irUPfyM1tZmPDk2T3U07ezZZZ+pYuQzrm/PQ16e61d2QrgHjl9H7NWzzlUd/i4VI+GYXvsULc6ZkFZ8e38XtSsLkRAuQAiMQPKsvbjyugVt39/j+rZshFCM+MAgxUiXPT+6y0f1czk+iZFhw4YhMTHRB2B71oOwW+HpAWKkW9vrZ7B7Rlu7WYzUr0C/Pml3ihE7nnumGBEgBCVgzs5ybJoSa5nFGjJ7Py46Z0rOYnthJ/weRC/G+XetziVZ399dxvokUYSYrhucisXLphmW4FiOMZ/Tmf+rYqQRl5aY6taZ5fTCa3WHGAnMKMeDFnFGpBXNj2owTRQhJlsFjihC8ZwkVYiI36t148yIxV5m+wkCxYjVJlbOeIxrm/gkRvqMQVOPY6wYGH7kIeKGRyNy1i3kVH2WlkIdbkTejguITQw13YjuHExdbIZ5KZVBjMxAv0kXDWXl776JEeMz3K6H92qZlq48NfDdGQTfjJQproFQ+jYweS9GbX2K/OovcqzJF0w4+BTpS3cjPLT985XrePIulpVU+goFtXKQvmz74dlmezgQOvexvFRN7DO7egQiZnWjdEzFGQwy/egIIVmInn8LOZWNmCgnBSj86ylSF5XYtku1edUlRIdMwtC1z9R6Tqx+g6ylm9HfMNug8WG0uy4BgZKMwMyIua4e/q86pV6IkQEVxzBWXNb18iAGJ9rZMRbRZ85LQdK31yOsv+mYsCQM+usg0h5dkq7TcA25D48gcf+vCI0OMN0zAtQ63t2K8NH5GHLqKLJfXXNef+yzE0iqmIkQgx01AaIGartahmZajqWWZfpcZdHNMq3w6pNaYHjDVeQ8PonUc1sxuGgoHLb9odUzvaYAITOWIfHOOeS+EZfFXUXO3UoMXxzn4twg9Fu6EUn/6I8/gNjfomEfM2Lsg3bbaalvEIKLliKh/pRq+7xXF5F+qcS2fer1FbvfWI3+gWKdtyD5odzvzvPXI2KEtc9Ve6v1CEDSikOoF8XI1RosG2Nsj/X49r+PL7mNJnHEu/UTbmyOs3Dn7ppp1U/VuAHRUf3a9BFvH9dbYge0awzF2vpGp/D5cncnsgpLcfl5I746Z2Va8bXxOa6V2Ygen8TIUKy5+kGq37cXqJtpElnhv+Hka1mENZzCXMvys2CMXnIYd159RLO8fK31exPePTyPsllGp1trn2hv8bxDqH/6Dk1fpeu3tX5H88eXuHuyBONNjrzqsNvMbAxdW49G52yEUYSp58gxG3axM9JnxvPUegYOwdTSc3j0rkm2fRtavzbi+c06bBhvnlkKxbQTr1zbUWXTyppaz5bH+Ov3BTh8/51sy1Z8b3qHB8dX2schDVmJqx+15WBi3NLnDy9x93QZZtmJZbEOGbV4Ltrjx1ucmhuHBYfv413zdznuqQnvHhzHShfnBsYtwKE7r9Eo95fTFtfKMG2UUo8WPK4cZ703vLKjbJ/AOCw4dAevG+WYm9avaHx2AZuycz0LYA8twL47jfje+g3vb+1moLsb/lTef5JjKEacjuELjC6+qzqnBify8DMkpOkFieZsWuMAPBQjy04j3ZnZyuygfkHOwt9dChLVMfbEifVZjAxAxMKnKFQcZrv3yusYEmN9eHt/8zjQb9pNjLcrw/nZf0iZkmR8iEaVI8P5XTOyZmcZvxNv2oB1GFMt2TVvyVzj9yGzMXKvIq7Mtm/BxN1HEWFwiAVoNr+BUcUNsjAznjt+/TbdjITGh4EjuzZ60o8ePIhUp9ELMSIUrELKS9FhvoykLcONdhLLjJ+DxKfi99eQWp5pdKaHTMWIf67onHbxOO2Vc3UFwsKMfKh1fFiGEafPGI6Xzr2GjGO/IjhQOU9z8vXXtv3bJDq0svSZqJTrChBcipEgRByxq5vYtotIrZ6hq59yPa2emadKkPhQEliGer45iYSlsSYbB6H/toPIdooWzXbO854fQMIpu2xaSpnSe7vtNLDjpjyx72zqqF5f6duHOzFo/nqkvTLVt6EeORf+RIjad8Z6Ks+FsOwVqL4sxZBcqVqCUYb62Z+jnGv/PgQrr36UHLaPl1BsccjdXTMQeXUvnOdaneHv+HBnn018iSZGWp5eQv0r2VnXO9WtzXj010TDCLvgkxgRIOhmfb69qMNMtX3RWHz+ndPBbm1+hL8mmoSKoF+WpDnFaju/v8Ol1TbCLTARG668V4P/1eN17fv+7hJWx2l2VR327hIjgYnYWC+LNF29lLpa7ZGG6qdSP3mb5UltW8tz3Lr3nw0r3/HukhZjojIatwk3PtnYXUyo0PISp5fa2F4RI22NuHVBFtim9pltL5YXmLgR9R9sOGz7gfc3zuKOM3GCjRjx2o7ikjbXtv/+5hpueJBNq9/kE3iltIszTqbfBO2+Ulnq8DOy91yTYsTpJDZiQvV/yJy3FCHOUf8ohE08J6fCbcHEHX/psk9pzqavYmTCgTcYu6kCEfKeH4ExyxC//YM84v8YIxLsAdIcY+9T+woBO5AqO/HuZkYCCi+r4mDiwftInLkE4XG5CM1ch/i1r2SR8h8yfp/c8Rspap8qysZvO4qYeGkPlIDIIgxb/0YSh4fvYGik3h4JGLZVFhRb9yHYdLM6Ci9jgrOdb5CYqT8vAJGKmDj8Gskzf0WwU3iIfX0cmX/ZCxjV5nWfUVj9DhlLSxDhtMd2JO2WZ9HqXiDBNkuVO1b0devY36rT6DJmxC5WJA2x9ZedoiD7zByLHYPX7EO200k9gmET9M7OQEQelR3253WI35CLINGOwREIXVmC1OeiM24VMGod31xB7otTGH2gCANyRiG0aDES/rkkiZM3NYjNsBth1zn83gSwPypDTKFNDM3KncgS22YSMYIQhMDERDXmJrTod8Ts2oRRt87Lsz+nkfCneZ8erW5jX11GzoMKDFuWh/4ZaRhYsgvpL+TZH1Eo6p31UXOR+ET+7t+9iPklxin4AsZMRuzZY8h+flWyiaWOGiuqTd0co/6ojVuBZKf4vIasS6sRMSbMef9K5Z2U2vdkL6LsZhsV8dZwCCOPH0X6qUUYMCwIQvBQRNYel859U40hrmY6AgYhb0UlzstZtW5erMSSlKCOPz8E3x1NQQhERGK2Gr9RMGsddlX+jfrnjbIzbuPACZoYaf3xDd+aXuDyvj/xS14BZpWcw7MvklPYahZGqhhxHTPiKlYk/LeTeO2cefmOhlNznSInevF5vBM/sxM+goDQaSfwSj7nw71aLMsQZwsCEZG+XIqfEZ3iT/VYP1hjSfw+o/yBLq7iHk7uFNuWh8lLd+HMA9ku3//DrdJste9Uh90LMaIyqV8KZXO+/jjlb20mrAWvLm3DZDk2KL5Ijvtoa8O357X4Rfld0M1SeJupTG3bjxY0Nz7BiWUZzqV+wfHzcPRpiyRO7Bzq4FikqnFBk7F0WwWOXLiPBpmPH+8vYaXB9rqZkbZWfPvWjPf3TmBzUR7yJi9H1R1FIJqZ1ESpyMKTE8uQIc5cBcejaO8VvP7yDd+dHJjPE+C1HQUBKnficrcnJ2SuguG0/atGtHyTBJhb0RdfgttN0nFWBvU88m+F+Z/lnWJEHrEuWL3ONCPhQNj8pzZLgtw5mJ7NjEwqP4NBphF4IWoHUuUR/ZwF9o6+6hj7MqLuiRhx5GJEqTzqX34OUZblWA70m3gIwzPNDpkvDw7dkis7ezgmIH6XWJdmpP+mH0lyIOQ3eRbryF0MMwiVAAxa/k7qs71HjWvE1RmTJqT/ZpptEYP7J12VRIxpaZdq87pmZM/NV3+EnQ+IkYeR41bguWPFF5vZn6M6pcoItuXdPotW6K4a5IrHPt2H6BH6aw9E5PGzTmd4rNmJVmdMziFxjXVGJWR9uSRiTEu7tDpeRtK2BIMdHTM3Iv21ONpu5+yL9dIcfq+yaVnsYBrR98SJF52a4CwMvS4JN2v5Wt3yXlZicIpeTAUhvFJ21k1laWKvDsN+6W+whxA1AwnKDIvpPP0Pk2pTN8coxyvL8sbeWo8BplkrIXg8hv8jip/zGLVmiLEuYvtVMVIPy/nqdycQ99sA67lCAEYtq8Y1Z5zITVysWoPC2M4QIiIX2jp1bx1NxS6W98BklP7T5HQ0rU6VJkbafrzDmQV6kR6IzIOP8E0c9TU7qKoYsR8tF0f1XddfN8vxvQGnli+TY2Ra0XR3N1IVp1t9j8SC8++c9TfOpsj3d/QSXPpPrEcTbmwcrPVX5AKcfyfV79vL45hlWo4lCOH4ZU8dyqYZl0GpDruNmHC1TEtvc3fn64+T/h6D8gffnLEfn25stiQjCMw8iEeiQ/ztJeqmy+1VbW91yK3Xl8+RbanWra0Z9/emarYSBd/0k3jjHOF3sZRM7Q/tmqqwbP2IS8V6dvRipA3N9/ca+1XtMxMnap+1wmoP3fK0NnPbfbCjoHHV+ukGNutmx0Q7agK4Ddb7RrOBeGzw6HnYVrbZ9ZI1G9u111f83mjj3mgPn8RIZGQkBg/WPch6KzxKzEhdM1Kn65diyR0bV4Msp7PZhOTJSme7czA9EyMFq1YbHmwSOAkYXiIJAeuMi1S26hh3lRjRCRaL493pfazZcVzxIht7aMLC8n2/HUh1LnMzCRXHEow+KAkYS/2VvrYIGLlfleVfpu9Vm9vNfqj2crWRpdZGV33aGQ8N1Sl16XzbixEhYzGSnosOuskJjfoVCY/Fz63CQXVMLQJGtqOy/Mv0vVZHm7qo9ahH8m6jUJHsozn8VjGg3Jfau1aWSXyY7ePGiXdEDVdnSPqlDEFErbxsyrIUTqtbnuU7XayMKa2yGhMixtBEaHWX2quJQevsjXas2k437TDbL7Uiy7jkznlfa+XZfq8KjnqklFmFvFuGA1Kw9qiYQesmLlctRUqQVn+353n0vOkcMRIYkYhsZSQ7NwW/HJE3u7M42DoxYvlOgEvnW3WIfREjAoTw6aiVR+Jbf/xwLs/68d8VrDM5hJI9FZt8w8s6u81tR6L0ny9oazN9ry4Tsjre7vpJddi9sYeub92dbylXtaNJSCnXC52Ok29MQks9x+yQt8+hWjezuBTLU+3l7rrBiE3VMqdlj9si7zdjc47b6yl9anL01XO+4O7O0ZbfUE0wmcpTbeKFHXXCX4yXGq3YXHlXbW+qo/I93y39Y+H7J7eRT2KkqKgIxcXFvd+4ioNa5yKoW3U29d+7czA9EyP2mx66u6704FQd464SI+3ZozNvFpcxLfLMjDxjJcZdWB35ARi8VgpSn7h5j7bEaOw55IvnHbEudVNtp7uufUyHccmVdp7xc+eDROWjh4gRG2fY/QMvDtHnLkhLtU7NUjMfBS7ZJS1jsoz0653rdhx9k/OtOs6mz5316yox4spJV5xry/f90X/5Vi042yxexP8tNvZFjOhiUyzXk+51VaxY6qg5UapN3Rwj9b+Lndtt2mcr9hR7uZy50upk4S3md5RdEONEzqH0l86aEVHK68gyLTFQuw7332kbJCpxB+q7xcHuqBjxfBTdbMfQSdV47MwI1YY2VzEf4vNZdTRdCx+lffrZGJdCqp1nvuqwW2zlRpzprunufLMNNAHQXtt0zndnLNPyUowEDpmK3ZefqwHlir21d139FFuowsLmO50Q0M86BObV4YW72RlX11Q/98KOgXmoeyEdr+dG6yMXgklpH997v7/cxX1IMeJ0TvViQ/mhE4Oh7eIs3ImGDogRx1Qk7JUccfuZE30wdRfFjPhJjEysfo/8incuXm+RvcgUiK5fVqXGlOhiQnbW6GJ8pP7URMVnFLgsS6xDPWJ1S7+08/qiGBGgLqtS4wW0mJDcS0uMcQ6CToy8uYTsR2eQ5er1TykG6eIPVMe5x4qRIAwoPyJnwaqHmGVK37ZsOfajc8SINhNhvZ7Ea1eJkbHPzhrapW+j+PeYvRnWmZOOiJGB47B8VznKy0uxKFX3bO2UHzYtgL2t6QY2mtfhuywjEBn772sb4LV+RdOnT/gkvz7LWYzaLA62/8SIIVDZIzHSiu/Nn9U2KW3T3j/gYfUvqoPUu8SImPlM6y+tTcpnDbi0Vlm5oQnWby/rMN0lE1Y2VaHkjRiJ/hNnG6QsWGKGNmMfKNm/bASHKhBsvnMhRrSZDxci19U11c+9sKNu5oNixMqKJsr4na+2oBiRxYjtMi1l6Y5h5qSLxIiuLGOMhAa36hh31cyIKr5aYMlE5cVD3DMYNTta43W0Nru8li4GJGVKKATHAow6IC3Rss2ypQgtm1kTl2UIOgHYG5ZpuRhld9c+LWuWHK+hxiu4yLKlOKY2sybuyunxYkSNhbmM1KopcnIDjUNVHFhs7MvMiKCl7jXF1kg21IkVN7Meqk3dHCNdT6tjRu0kBHp7Lyt97svMiLdleXm8FojrRWpfda39D3y8tceLdLV+EiO6OBZldL39ZVo/8O7MAmNWL3e2VR3Ub3heq4kUd/e0+J3qsFuEWxfMjKizPt4sJdPFTtilSHZjE7VtXoiRMeUP5LihZzjxpymFslp/G8Gh2t/mOxdiRJspsl9upYkV0zXVenhjR23mo+nGRgw2200nVvSzN+3xw++135if3RYUI/KyHatD7EC/3+/L6X6fIX60Ao3mRE8yj8CrQdfiUiHT7IVuWZJ1mVYyYjfI2bTUkX6lPO1dEyPWZUjtgqwKDRezQM6Hiy5TlSWlsVaPdssyP6hs/9cFovtUlrafSOH6EgSoYsMc1C7XWxUrLTCm4nXfLtXmPoqRIevlzF8V5xBlTlpgaxf39bGzveqUWhxlT66l7SciLtEJnlWCTDHdrCnmQy1XFSvmVLzuy1Lr6NPMyEjEXLgoZZe6s8kagG2yo1qWKyddca71309ei1RnylqbmBZdALt1JkNz9K3f6WaSTO3ut/kgcsRlUm86IYDdA2GoJit4Xo3YQlPAvMl+al8rnyv28kmMBGF44VwsXjAVSea9apTrd+RddazaYE3r6oLJ0WW471zyZDOirHf8LQ62P8SILoD92wscW75FTuXaiuaHFTb7NGjOt8f2EO0fOg0n5FTF3pynOuzN97HXMPMVjSWXlHS4NnaW+1zd6+XbKxz/3RTUbeEiHiW3peQCdmluLdzK54dOrsVTOdOTN+epbfNYjAzE7LNvXSQ/EKAGsFsCytuLQdGEgMHRV5egeRvA7osdtVnIjgawu+onfu7ieWW5D/rmcRQjshiZUP3GZWpfo+jQZYGq+4K8dRWISspFaFIx4pR0tOI1j9zBcDl1r/MmsxUjUQjJ3IZR297LoucLsmabMjbpQVQD6lswfvspDMnIRWhcLiIm7MaIOVvQX3+s+W+PxIgAfWrfSYfFVLYViJHLUcoaOuk3LU7DXI43/4eswxg5pe6kQy+R/McShOtsFhiTi9Chw0xZznQ3ohIjUnUF8YtfOrNoGWJIDHVxIGzuI9XO+SWi/dK0EfDg4egflyOndtbK6JgY0QmuOqnPho6d4uyz0LipiJqyG1HxWlm+PoxV59tlal8lva1dil8BaozI/e0YeuyUJYbEWK8gDKg4Kqe6vYrMC+swaGoCAhWhFRaDfhkJCA7XZ5Vy7ZQ7r91uzIgA1ZluEFPTbkL0rDQ5wDwHEevmYGCK5sio9tCLDT0LinOt/z5lEUY7g/nFmZFpCHHWPwiB6b8g9uxJZN49iiwx49fNDRgQJ6XFlezimxgRRs3HqGdS3M3Ye7t9Su0rTF2PNGcWMtEm6zFoajL6iSmFly3GsJ0zjPeoPpXw08NI2PYL+qvtkFMaj460LtES7abYywcxEjm1FKdvijEjN3GxfB6G6/uhU/4OROLGenxwpjAV93F4g1t1m/FryhB5VkAMIp6M5RV/4+BCeemO6sSJMyNlcnrYQEQkz8LeK6/x+b8G/Cc6r5+vY5t6HfE+7agYcZ3aN08OoDen+A2fXounTuH0DS/qZiJE0LXXRWpfbcfxNrR+kdIPFyYoWbCkoOpcQ7vEtulTg8F/nwAAIABJREFU+7ah9dt73DtdjtVielln3cQUtfuxd90Uw6h45ILzeOeMW2hFy6sr2PfnL8grmIUtfz/EZ7lP2to+4/rWBGN2Q7nv9VmYvn+4r6YTzhPTJa/bhZ0LjVms9Ollv72/hxObf0WKM72vuA9GBBKz82C2oZgJbHrtUzltcRu+Nz7B+X1/QrWJeF7eLGw5cgzbx2nPY+/FiABVXLU8w99yKmAhOBZ5q+rw8FMTGhrETTO/4tmxBUjQZyzzZWZE0Am+1iY8OmZM7fuqsUWapbERP77YMXrJJfwn93XTo2O+pfbVzfJ8fVKFCZ3yDND6zPhbxc97kz18EiP9+/dHWJj+B7mXdroyml7XjLRV2v4ahsBmu1H7QSVIUZxoWcw4zzn8ECPm35RSy8qfq7MgOjFiuL5yvuj4z3a94aEEVQqGl7jYtE/cIVy9sXWxK8r1Xb2bZ3CEAYiY+y/ybTdllIPLTelvOwJ8QEYNMitdtEmsszlFr9pGQbc0Swl6b0LaTH0aYDOXyRi8UtkrRTlH/26dNeqYGBEguN1o0VqeL7ZUnW+bgGTD5num0Xm1LHW2QwlKP4fElcqaa7MNxVS3KYg5eUKLr7CUa03Rq9XRZubBAzEiuN1o0VieWpZebOi5UZxrw/dxiD5zTpp9MbfnzXHErVshZx6TbaTOQvkoRgQ3mxA+P4Bh5ZXSzImhjqa+0M/YmOtsk6Ur6I/1SH5qsymjcq7aJrGc9oLebfpRb2P571Grj+CmM63vLdw8U4ICm2NUDn3+Lhy/VNxFo7zTuLKUyfjeio+XimWBotufwelc6QJ5W5twt7JMznokf67OkHRUjOjKMZcr/29Yj6/bZd2Yple3O3vLY1RZNj0MROLac3gl72thtINUB8MIu2L3wESsPfdKi6WxqaMl7iJ0Eqofy3tu6I8X7Vh3TtpVXP7cVZnuNjE02MNZz/b72nqOtGFfe21rMzntvogRvRA02/17wymUKJnanDbRLZ/ySYy42/TwO95cuyHbX1eO0tdiquZ27hmLHd1uengBdfWi0Gonm5ZuJvPTlRWeLyNU6216BvJzNe6r489R/9rWJzHS2xut1l8nRlKmhGHAjGvIqZI3sjvciLwdFzB0jP2eGgHDV2Pk1jeY4HTav2DC/rtIyEvSduyWnX9NjEzFiG3vUFCrc34PNyK/4inSl1YgcqhNamG7Gy1sOoatfaa7zhdMOPgWOVsrEake3xExIgEZmLAe8WsfYWxlozybINXbGWy+7zSi1LI6AeCwfMTMv4asfe9le8o2OvQB+RUXEOOyLF3Qumjv2usYoozQuzwnFMFpezFq61PkK33t7CvJjhlzjHu8dFiMiPUImYTBf95CTsUHw872hVVvYS5PZdNl/a32Vp1vxal0+e7KgdSC1p3ixZ0DrNarP0LmFCP+8jFkPtPvxn4VOY/PYHSJURRqdbSpgydiRCx3SDaiqw8i7eEFnRC6htwnxvLUsly1w1aMiCIrAYMqDyL9idweMUj/nwMYOmsoHLo6Om2kOu6+ihGxH8XsXZuQ9M85uT1XkXP3AGJ/i4a6jMtVG+R+cMRPQOypo8h+pYgM0f4nkXpyKQZYUgYLcESlIurAfqT8q5Qpz868OIesm1sQEaPw1TliJGD4H9hz5gZuXj+PiiUpasY2Xzhv75zg0YtQceEeXn1QAoVFx1sM0v2Al/cv48jqbM35CYzDgkN38LrxqzNVblvrdzR/fIaLJeMRrnOYnA6lX8SITnDYxTrodmcXndy56u7sSv8JCI4vwu4zZnu0ofVrEz69OoX56r2snSMI4iZ2u3Hm3it8aJJt43ScpWDsj8+Oosh0njF7VCu+NzXgTs08xKkOthsBJF4rMA5z9l/Co7ef0awTlGI939/Zi2xTecoGjofqn+LtZ302NKmO9ueIbQzEkEkbcNR8ntj3jW/x9PZp7P1Ve275IkZERsMLt+Pco3dqW1q/fsabO4fwZ1KIFmPTSWJELC949BIcvvNazd7V+rURzy5sQnZurSxGPuHKCm3mWLuPpI0wvbJj8GgsOay/b76i8dkFbMoegZVXP7YvRsaU44FzydxXPKma0Gccac2m+nuJf3tjF4oRpyPaOSPUTsOHDvI+QNTysCXE3kDMY8lLlzMQHIbAMOPSsy4tMzgEDv2O7XxGdJ/jEhiOqEg75433mVfMB0chSr8UiQwjOCrKdrmaV3b10I5qhrQfb3FqdtezGxgaqol9F3XU0hG7EkhdX8+usDWv2fF+oxjpbDHi4iYkrB2HlTakDckAGSADZIAMtMOAfqPMT/VY73Ha63au20H/RhVIX5+gakLXlkVGepd9KUYoRrpvxLGDDzI+XHrXw4X9xf4iA2SADHQdA4ERiciWkx+IiQPW7dqPiiMXcL/hi7T8sE1JfNB1dfCmf9UAf3XpY8+olzdt4LFd02c+iZHExERkZmb2fifWEDPSNQYmuLQrGSADZIAMkAEy0NkMqDMNcpIAQ9B86ze8v70PE23iiTq7Hp5dLxB5dS/ajyvhoGXv96196EOfxEhRURGKi4t7v8EoRnp/H/oAvWcPTv5w0k5kgAyQATLQcxkwiJHWr2j69AmfPkrB+GWzTJsu+v23cgiWn3+FT58+4dWp+fQ9/N4fPYvrn1uMEAY+EMgAGSADZIAMkAEyQAbIgN8YoBghfH6DjyNuPWtkgv3B/iADZIAMkAEyQAa6mwGKEYoRihEyQAbIABkgA2SADJABMuAXBnwSI4WFhZg7d65fKtzdao3lcYSADJABMkAGyAAZIANkgAx0DQM+iRF2Rtd0Bu1Ku5IBMkAGyAAZIANkgAz8TAxQjHBKjjNcZIAMkAEyQAbIABkgA2TALwxQjBA8v4D3Myl+tpUjXGSADJABMkAGyAAZsGeAYoRihGKEDJABMkAGyAAZIANkgAz4hQGKEYLnF/A4OmA/OkC70C5kgAyQATJABsjAz8SAT2Jk7NixmDFjBp1YChkyQAbIABkgA2SADJABMkAGfGbAJzFSVFSE4uJinwv9mdQe28rRDTJABsgAGSADZIAMkAEyYM8AxQiVLEUlGSADZIAMkAEyQAbIABnwCwMUIwTPL+BxdMB+dIB2oV3IABkgA2SADJCBn4kBihGKEYoRMkAGyAAZIANkgAyQATLgFwZ8EiNpaWkoKCjwS4V/JqXItnJkhAyQATJABsgAGSADZKAvM+CTGOnLBmHbeMOTATJABsgAGSADZIAMkIHuYYBihFNynOEiA2SADJABMkAGyAAZIAN+YYBihOD5BTyONnTPaAPtTDuTATJABsgAGSADPZkBihGKEYoRMkAGyAAZIANkgAyQATLgFwYoRgieX8DryQqddeMIEhkgA2SADJABMkAGuocBn8QId2Dvns7hTUA7kwEyQAbIABkgA2SADPRlBihGODPCmREyQAbIABkgA2SADJABMuAXBihGCJ5fwOvLCp9t4wgWGSADZIAMkAEyQAY8Y4BihGKEYoQMkAEyQAbIABkgA2SADPiFAYoRgucX8Dha4NloAe1EO5EBMkAGyAAZIAN9mQGfxEhiYiIyMzPpxFLIkAEyQAbIABkgA2SADJABMuAzAz6Jkb6sztg2jj6QATJABsgAGSADZIAMkIHuYYBihErWZyXLm7R7blLamXYmA2SADJABMkAG+ioDFCMUIxQjZIAMkAEyQAbIABkgA2TALwxQjBA8v4DXV9U928WRKzJABsgAGSADZIAMeM6AT2Kkf//+CAsLoxNLIUMGyAAZIANkgAyQATJABsiAzwz4JEaKiopQXFzsc6FUi56rRdqKtiIDZIAMkAEyQAbIABnoqwxQjFDJUlSSATJABsgAGSADZIAMkAG/MEAxQvD8Al5fVfdsF0euyAAZIANkgAyQATLgOQMUIxQjFCNkgAyQATJABsgAGSADZMAvDFCMEDy/gMcRA89HDGgr2ooMkAEyQAbIABnoqwz4JEYiIyMxePBgOrEUMmSADJABMkAGyAAZIANkgAz4zIBPYqSvKjO2i6MOZIAMkAEyQAbIABkgA2Sg+xigGKGS9VnJ8kbtvhuVtqatyQAZIANkgAyQgb7IAMVIDxEjIYnTsHpXJWpqa1G7cy5G9ZB69UXo2SY+zMkAGSADZIAMkAEy0DMY+MnFSAgSJy7Gpr0HUS2KgNoaVJaXYtX00QjtTjEQUoCVFbWordiKxUXTMWfeNIqR7rQ/y+LsGBkgA2SADJABMkAG/MKAT2Jk2LBhSExM9EuFO1PFBkxeg5raKuwrWYbZ06dj+vQ5WF5a4RQlO+enIriboJTqUY21k4N7vU07s394rZ4xYsF+YD+QATJABsgAGSADXcWAT2KkqKgIxcXFvd5xdoz7HbMzQo3tcCRg9vYa1FavxeTg7gDPgbjZ21Fbuwvzx3RHeSyjq24mXpdskQEyQAbIABkgA2TAOwZ+ajFiD4sDKQt3d6M46O7yvAPE3ka8Bu1CBsgAGSADZIAMkAEy0HEGKEYsS7EUcbATc0e5N3DAlHWSaElNxLTVu1BZU4vaXfMxRrlmSCKmLd+Gssoa1NbWoqayDCXLpmKkPOPiSFmI3c5YFTFeRXvtmj9Gna0ZnDcH60qVmJYqVJSuw+yxMer3giDX99BaTB6chwWb9jvjXw6tnaweIwbHL99WJtVPjIspK8GyqSMNy9DUtowJw5gZq1F6sFqt86bZGTYxNMEYli/W7YB8Xbl9czLVcgUhBInTlmNbmRyYX1OJspJlmDrStBxtcB7mrCvFAdlOtVUVKF0xCcMUO/JdZ1P3TPKhSPuQATJABsgAGSADvYkBihGzo+tIwNwdtagt+xMZ5u9M/0sO/B5s27YHG38zBb2HpGPBrhrU1pRhw4IiTJ8+HUWLt+BATS1qSv5AvHityFRMnD4dczeUo7Z2P9bPEeNWpqEwJcLpfA6esg4VtbWoKNViWlbvEUXCASzPVxx6RYzswLatO7Bk3FCDyAhJX4BdYpllG7CgSLx+ERZvOYCa2hqU/BGvOrlKW9av24XK3avUGJo1ZaKQqsGG6VKdJLhDkL5glzPzV9WedfJ1p6NowXrsXDFRvqZyTA3KNixAkRiTU7QYWw6INinBH/Hyg0IO3q8p3+IM3hftNGf5NuzboRN1Jrv3phuMdeUPAhkgA2SADJABMkAGXDNAMWJwdBUHugJrJ+tnH+wNKDnwtahcWWAQAOpsRe0uLExVRIN0jcHTNqCy9iCW5yvXVGZiTDEjg6ZgXWUtKtdNRYy+jiHpWLS7FodK/pBnDpTzD2H7bE1cOKF3pGDhbnG2ZiFSDfEvgzFtQyVqDy5HvnxtpS01O+cbjx38K7bU6MsTEFKwUhJJaycb66arpzLrs2uhKRHA4GnYUFmLg8vznaJFCt4/hHVTjXYKDg012VSxF9/5QCMDZIAMkAEyQAbIQF9hwCcx0lcab2hH8DDkLxVH+6uwY67JgdY52fpzJAfe6kgLjlwsLa/FoU0zEWE+t980bKithbYUSxETRjEy6NctztmSJdnmm82B9EV7USsuy3JeWzl/DxamGo915C5Fee0hbJqpn9WQjuk3bYMhLsZ1W+Iwe3stavcsRKqzvH6Ysq4GtZUrUWAQOPqyHchdWo7aQ5swM0L/ufh3P0zboC1nc2Qtxj5x9mftVAx1eT3zNfi/nkP+TR7IABkgA2SADJCB3soAxYggIHjYJCwXlz9V7cCfpmVO7jpWcuCtIkAImIJ1uhgQfTyI8rcW06GICb0YUT7T4kiU87R35Xj52EPrMNXkzCuzHdo55usdwtrJ0s0rHatcU39DB2DKulpN/MizLbZCSxVe8jnubKCKqcEoXL5H2uelah9KlhUhd4Qpw5l6XX29+Lc7Nvkd+SADZIAMkAEyQAZ6AwM/vRgJy1yA0upaVGydj7Ex3kHr0oGXxciBDfOcsSJiHIT5NS13hBxboQgPvRBQPivFshnWc53XmlaIFOesgyJGlJkSrQ1S/Q5gwzwX15g+DbkjpONdtkVwIUbWTXWzjEo+58AGzLNpu1T/XIzQiYzQ+AmYs3ob9leLgsnz2anecJOxjhqTtAVtQQbIABkgA2SADOgZ+KnFiCNhNrbX1GDv8gKXsQ96Y5n/dunABxRgZaWLZVo6B1y6niI8jGJE2ntkP6zLtMwAuxEjBStR6WKZlsdtsYgRedmWLt7EfC1BCEDBykoXy7TM9Tf9HzYGszZXGpaQWa9vOsdiU35Pm5EBMkAGyAAZIANkoDcw8BOLkRAUrqpE7f5ijDUtb/K041yKEUG+tk0Au/XadmJEgCNhLnbU2gSwWxxv12JECCnEqkq7AHbrzem6LaaZEUHA4F+3OLNxudulPqRwFSrF2BhzALu5/qGhlrTBUjyLPsjfWl+rHXkMbUIGyAAZIANkgAyQgd7GgE9iJC0tDQUFBWpa2N7WaGd9HelYtLcWh7YvtSyhUpZUaUup7MF27cALEAZPwbqKWtTWlGP7stlqGXOWrMe2favk4HPxuvZiRNyjwy597vSiBVi+eRe2zVX2InEjRkThIKcHrinfjmWzleVac7Bk/TbsW6XtReK6LVYxIgiDMWVdhTPlb/l2Je3wdMxZslmX2tf+mOlzlmD9tn1YpYtVqdpXotVNSf9btgTZPorEXsmjWaTx/979fGH/sf/IABkgA2SADHjEgE9ipKioCMXFxR4V0GMdQ6+CzH0QI87A+HznZn4HnXEQojCpRPmeEiwrStctC3MlRsQyxQ0IdZsG1tai6uB+lK6bj0J140D3YkQQlM0JlY0Txc0Jy7GnZBmK0rX0xd6JEQGCmH1szjqUHpA3NKytwkGxbb8osTC6Y+QNFMX9SirL9ziD1NPl+BxH8kzTxonlKF1VBOX7HssPHzC9+/5n/7H/yAAZIANkgAz0CAZ+XjFCAHsEgBQb9kKXdqFdyAAZIANkgAyQgZ+BAYoRihKKEjJABsgAGSADZIAMkAEy4BcGKEYInl/A+xmUPtvIES0yQAbIABkgA2SADLhnwCcxMnbsWMyYMYNOLIUMGSADZIAMkAEyQAbIABkgAz4z4JMYocJzr/BoH9qHDJABMkAGyAAZIANkgAy0zwDFCJWsz0qWN1j7NxhtRBuRATJABsgAGSADZMA1AxQjFCMUI2SADJABMkAGyAAZIANkwC8MUIwQPL+AxxEC1yMEtA1tQwbIABkgA2SADPwsDFCMUIxQjJABMkAGyAAZIANkgAyQAb8w4JMYKSwsxNy5c/1S4Z9FJbKdHBEhA2SADJABMkAGyAAZ6OsM+CRGioqKUFxcTDFCBU0GyAAZIANkoAMMBA1JQV7eWKTG9qMdO2DHvu6ssX09UJAMHImcvDxkjRyIALLboecXxchPBFBARDpCowd1CJie+kAMjMlF/4jQPtm2nmpz1qsH/jj+RM+zXs1fUAIWHbqFV41f0drWhra2b3haM6EHPr+CEDQ4G/3CKZR6NW98LnTNvbXyKpqc928bvje/xcMz2zE5OqBryurjfUgx0l0d7PgNI8taMKmuBbkLp3sGq+4c8Tz1deQ6hnhZ74CM48g9LF7jM7LneVi+l2X452HtQL9pNzFetM/hd0ieHOeZbXtF2zxwdgN2IFXPhvL33qMI74o2quU1I2WKB/Xrijq4vWYgYjfq7hXFHnUvkJDcE+vLOvnnueE/uweMWIkzr1rQJjsxbW3f0fz5P9wtz+uEZ9cgDFr2xvlbUbi9EmFu75X2bDAIg4pfYaJ4D9X8i7jRFCQ/G6tsbzv3yJKzaPjUhK+t4oCC9Gr9dBf7Czkw6i07FCMdeli3A6r+2jph0f1iJAAD/3ypiZmdhzr4I+VFu/U26JK/jc7nhDXrO+EH3aZ9OVVIXnsNyWsrEdkl7bAp05NyVHFgcsApRjTenYKkG8RI6AisqN6EB2+OoeXHRbS1XURb61l8+ViDe6d/w4wRgV3DZrucDMXOf/6W6iPWyd2rYRVmtHs9H1ntidfNLsL526W4fXs9dmR3Q7tCJ6HqsSxEWpvx6nIppnbq8qxOFCP9F2DUfuW58hmZswr8xK+pX0ImY+gy8Vl8BQkFYzyrk2MgUmdtQHndGVy+fgu3bomvelw+fQS7FmdjQE9kk3WCIEzFlPPfsfb2dywpneJZX/vDbgOzsLLuPj58kwXJf1ewZgRnSLwRJD6JkcTERGRmZvZcMPwBY3tl+iJGTNd0TLspOVicGdGx1z0zIx2xvTc3ZMeO1YnOn1aMmByX1OMY2w1iJGbmAtz9eN6to//j4w7szPaHIKEYcXlfzViFBqc4O4STM0zsmJ6/Lq/h8XH9ML7qMb46R1Bb8OTQFPTz+FxP69aJYkQYhEFLXqCwp82MhC7G6HJplt8TgeQY8StKT1yXBYgiRIzvF/fPQUyn94WnfcbjXN9bK7Do3f+Nurb/G2WnV+h+93umzeLXX8V/P0RB0oqGs/MRQaY87jOfxIhrcHomID2ivn4WI6INGDPiO58UI7Lt1JmYnrpMy9TH3SBGgrP/wD+fLkhC5McJPDk1HVOSBiBYEBAaNwabTlfgS+sFfPp3IWbGmOrXLT9Wmhh5f3Ey8vISXb8yBiG0W+rkDzvYlNmdYiRiPs6/k0ZOvz48gMwusXNnihHRXj0wZsQrMRKA3I0ncMM5E3IDF47uxrqiAiQlJSFn+lKUnbwhiZSbR7Aq0YaPLukjluO5T9a7xIggxGLt1Q9SHNjXB9ifzNkRT/uaYqS7HjY9QIx4CgWPs/5YUIzINqEYMY30RGND/VG0iqPr3/7C6SVRThFivIeCkb90AvJDrVwZj+uq7zUx0nAy3VT/riqzl1y3G8VI+B9n0OCcFWnCzS2xXdQPnS1GemA/eiVGBAiOCEzeehC75oxEiOn3PrBwG87IQuXAvB7YVlN9u+d50ZPs0NvEiABhxlG8+i4OOnzF/b3xXXSf96Q+6py6/NxiRBk1PfIQccOjETnrFnKqPktLoQ43Im/HBcQmmgORtBiFietLTKDplsmYl1IZxMgM9Jt00VBW/u6bGDE+w216OK8cYl15auC7c7mKZyPagcl7MWrrU+RXf5HX3n/BhINPkb50N8I7walyFF7GBGd9PiKpwA5mB0LnPpaXpd3FsEjdMapDrKxnVt5dxQXo+sVZZgsmbSxFgBCGATOuaf1w6ANyNpQjIlgqS7W3co7Ld5NNdba3xgdp/EyyW0o15ihydeVMrH6P/N13MeqPBegv18v1D5KunXbX7owfNtX2YpsHIGLuXeQpjBz6gLE7LmDoGNcZ2wKGr0b8xmcoqJX7TL7P3J0jCGHoX1CL1N0fpCUjdS2YWP0GWSs8YFG5x7sqgD17Lh40i3EYF/D+4gTvlnpMXYE3rVoMx4+Wv/HhTRkuV09Epot7LGXnLjSJwqdxK9ZmZKD8ehU+f5NmZX601OHJhd9sRI9vYiRlRyk+Oet3Cg8PjjKJrHAUXzwii7AK1P5iXX4WmjkFJ+7VoLFFXr7WehafG3bj9PZ0jHDDsnje0VsH8d+Xs9L12y7g25cjeH5rGdZmBhufue7ERMrv+KdJsq9BhKnnaLZ3FUdjOE+9fwIxYtZcXH5yBF9k27f9OI0PT7agesUIFzNL/TDx+CspyLX5NrbF6p5n6nXtP3NEzsHwNU8wrqZZfh5+Qn7pVcTljoHDcq5RjAyI34nkvR/l+6YJBQceIXnWn+gXZFdWPIaXKM9S8/sHJOXbnSN9JtXxMfKqmuTfiyYU7LuHUTNnuShLd96K+8it/CQFyte1oLDqLbI3HceQkQO1vlYFiLle1v+9CdwPm1OOq6IYuXkKW8a5bp/rZ675HM15Lj0yBaGL7mLj6/+F2jZxqdH/heoP/wMr98013UvyNXb8wGHncdKypNov/3/se/4Ni3YutWfKcRYbdMfXtf1/sHiOACG5HIse/f9Q/UMrs3hLrmZLkRnHSaxzfi+VVfftf6Hi/f/A2tOnMSbK3Cbxfwem3pOOLT1WhzmP/qezTYc//78wqygZuef+31J53/4nth5Zb9u+0JlXsfLF/xdV3+Qyf/wfKH/+GX8snmQ6XrOhuDzL7evtK6RY7gEBQlQxZl77H9j35f+Uz5dtX7MDwyzPVmt5m8rCIYTNw4zb/7ta39ov/zs2Vtm3zchHEU68+e681xuvrcVgu/rxMyOPggCKEafj9wKji++qD0OD8374GRLS9IJEcyZ9FiPLTiPdmdnK/CD9gpyFv7sUJKpzbBY6dmDrHGJDe+pMjrPl3AGIWPhUdfqM58r1rbyOIf8Pe+/9VlWypv3/JxsQFFARExIUIypKlGSbpW1zxNggJjArkpQkttra2obuNrZ20ja0bVYQaRTOnJn3/c6ZmXfO5BNmrjmn7++1cu2119oJBIT7B6692XutVVVPfWrt515Vz1PtXW4SsBpjKpTrZWzc5AKmIyAZsbuV77O37Xe+WekOsdl+PoiRA8cwMOuikoVLcP6l9k7buEnuA93epu9dbWKyqWB7n8XI5JNItSkv+9AFDHFr984VIwlrTiPNsq7PMGHGWJc+NTK6mftN+t/6HIcjHANX3rMem1LZnlh8x2JkTPFuNErioLUan853dcidf6Scf+SDF3yMJ9K5Fn8tT3ag2CK+RBcjrw7gwtU61VkXr3EODTcWYKqTs++fGHE4hFmf1yWomGa0b2ThDryQhErrCdzYF+c8Ph0ODFm2EQ9axHqJ78/gwadpFsItCFP37MILLfjfwi7S7NOny/obbOnCwiLm452IkSBM3bdHFWlim9T3NvZwOIYi/6uXsoPScqcamS73XWc2NG4CRpViUpXVeJE+e4nEhR+YBIkgRnafwZhdqoAxjdPM4sMIdxEk/okR93VsQuqGj134cDgCEZx6GsnaQwlT/eR7bN1DjM1Unyy/AzESELcIhz5XYkeuntyKJC/7ROsb61fDsT148Sm2iw6/7lj/BftPuzq1wSWBKneQAAAgAElEQVR/Y+t4H777PSaZnWgXMfIrCvctwKL7f3G9ztt/wKJMgbGwC9iq18fk8Df9PRYtEsaYbBdDjJQ/+VdUNP1Bd9Kr7v8j9gr/17f9X+TGCWU5HBi6rw2H7cpr+xMK94piybChWyEiXc9KjIw/g8ImU5uEsg/fPGMSCK7lHTy9GZlX/uRqx7Y/YWOh2TbObXU4+qLg0ivlwcOdKozpEK7MZfS8//0SI/369UNYWJjxg/C+Glt3VF4is+oZEpesQYg84CMRln1WTYXbjOxdh4XsU+0XI5llD5GytRwD1T0/goasRdzO5+pTr9uIHWkNmu4ceyNGzH2iO/Amx9l0XKDgoGdXfIv4uavRPyYZoYkFiMt/oIqUZ5j84fR29n8gIvIeKW0u/wyDTPVwxFRjivwD9QoT53pI16v3o50YMexp2PAKxm16hqS1+QiV+jxkKqIK1T6o/cp0s3LAOM+LtMrtESOhoxEq2Vv6i12EIXPLMSr/NtJV8Zqxudjih11rX2eKkWaklf2EqWvyESbv7xKK4NE7Ma5UnUk78gWGiA5xyGqMKVOdqrqfMX6BwtXAmaeReFj7/GtEiTNgUpxTylld8GQfuoTolBmyXYblfa8LSRexKrLkAxvWzoVmW+vXmSeqFEHwai/2TLA+xu66wYOHIUmL38hOxZb9K3H62mE0qs74qxsfujz108VI61m0/HIcP575EEuy45G9ZCG+eHBaqYuLMDLEiG3MiF2syJBMnH+qzLy03F2ND6Q+HTkLl15In1kJHwccA9Px+RP1nCc7UblsuPxkN3hwPDbL8TOSiKnD5yvEhzwOBH+wGndVAdPaXIPrx+bJbUudnY1D50pVu5zB44szjR94f8SIyIe788XjtPfCTFjT3U3YnKbGBo1LQ+XVWrRIAur1QRxyycw1Bkd+VOJFXl8vxnDteu5e+2QjdrcqJuoeY9LyLRgQk4YBmTWYWK5+XnsHcU4pqw0xkn3kEVL3f4moCSOVhyvhUzFk1W1kyPfVBkyaP9nzPXxQKSbLx9vMjASlIVYVPNllXyM2LVF5mNZ3LCI+uo70o9LYfo7xOcOcy4rchQRNZNU+xMQVuzBodDJCRy3DsOVXkSqLlCakbd7tOiugCxN/M3z1w5ilB3Bay6r11TEUpoU4189dv7j9znBsq5r/B4fv3kbqWGVJXui0Oqx9pAoFszhwOBAck4WY1NnK3+yD+ODQbeTd/jd1VsVdALdR5sErr7G76e+wYMEY+XcidMVD7FcF0f6TK4w2ho5BlFZW6iqk7r6IJef/D0q0WQsXJ98QI/UPbmOkVF9NPDU0IE36DV37AuWy0/+vWJEr3AvjLumi7PDdB8iaptgjOOZjzP36P5TZoLd/h3kmAaPcN4W2eRXAPgHzflBt3PT3WLFtvsJP6BgklL1FqTpbtL1svGELvT+FNt58jU1Nv8da9fzgqRd0gVP39UmLc4X2OhxYduaZEjfy7ALWWM40OR9v9xvRmz73S4z0mB3YdUelGRmbCkwzEgEIW3pHFQjSMi4NnvaLkZzSzzBIdNSkwSDcnJOWWTv6PjnE+gBT6+2NGBFmI3JKzyLS/CTGEYC+2TWITrRfhuPT4JmqPVl/jNFJmn2l1wCEfPitYvvayxhmtpW5bXo/+iBGpKU+O0qcstkY9hX7W6mX8d07FiPmtsn/B6Dvh98qswNu7dG5YsRsP7nv9b54hfHTjT4Vl+UlzHaeNTEEx2tMWThFuNEHYcimlwoHVVcx3GlWKByD1qliVl5maZTlxKBeH89sOJ1n2Q+uZcz5tEaZ2eiwlLhBmFZRgteSU2shcHQx0nYW9+sTnIRp8Mw83H8jPaE/iRt7ogQ7GmLEahZG/sxN/Y1ZjjO4W5uObWqMTOuLHSi0eHAyIn8HXspOufNsimLfwdh69bhss2fnpwnZZiKQf+kTxZavD+HIdNNyLGm25aOlOFo82tk5dScm7GZGxL51d754nPo+q7YCb9rOo/XpFuQ58eiAIzgB9ffPoq3tNG5VjBLsL3FjiJFXX240fefKlWSrwAnH1SWbjZiyyHkGJCC+BlNkR/81UlcvFa5niJGc2jsYOdG0N0hQMqJ3NMhjKqu4zNmWFu11eBAjeh2tynL0x8BVSkr5jILt6KNfPwwDVt5T7+93MSpRWI6lHhMQV4TYuXNMv8mqndopRsIWlOCiHCdyDV99Uoy5ozpKiEj1M5zn+uZfkG3+Dc26jb3qU3ppGZfne84AJF/8T+UJvYtA0LgRymz7T6zNE5/cG99VXa7yWF7w2hcosxIUwjKt+pufKdfZ1+Zcr9wHOGhxbvTRf1SOe/ECyWZ7OBZgyQNlFqOo0kogGPX3KptW8vfYLdfBbAfFViM/+X9KXW5fsUjRL4iRtr+gqFKcrRG+u/89onWWtT5wfs2suoMWKT7sxRdYb75PeDjXMxPOZfWU4ylG5Kc+r5Ew2/kpndzBwtN5w7FqvxixXJbkGKmv13Vd/qXA55NDbAbeGzEiHDN1cbrHG1e7B4Ewg5CWJzy1EWzhKhItBqIPDqduw3qbPjfbTf1fP8+bWSmhXT4v09LLj0SINkMSk4SQqd6kqO1MMWIWDmq/CMvvjLYL9bISUwELEa/uZ+DEvmDHrM1Fro6JvqTNzWyfD2z4w3OHiJHgcIxN0jJcxWHskk226WYNMeLDsiRH+8SIw9Efyz49rDz1b/0cb6XlWW+q8dkK0ekxxqVmk+Zby5Ci82x8n1JxCM1t5+H8/SR8+khZ6tRwdbb85NWr/nAnJjpcjBh2dBZSWttCser8UQuhJX3vuxgJzv1GcdhrvkfMKK0M9TVgHGKKlRlF5xgJQ4xkl35q4XCFIGyJGot3+BwGW/SPk909iBGtjtn76zHA4lp9sr+UZzCdvzeWg2XuOIh+Fuc51cH8fbvESDhWVCoZtC4f34q0EJNdzWX5/L/hPNd/e97pYYHSpplYdF9xvm2fsDvNWmRhYInq9Le1YaZlfYQynz7EJMtj7NrZHwMT1dmY1NmIirmgx6EU7hXPEZxxn8SIcV75xX0WPkUAki/+QRYI1t8bbfNKjGgCqeEFkq3soM3eWH5v1LW+7W8wx0U4ifZw/55ixL19rMY3xYgqRix3kxacc+P79osRw0kTO8zddZXjfHKIzQPRsi1i+Q44dMfNjXNnvm67/hdmn8QfzkhtacALjPNmJ1O93p6ffus29DGgWT/vHYsRKcB71I6HyLSMKZKcD3dtFJz+TglgN/EjsSAICINzg23LoH2Hzfc6s80wriWU6el7qT4+sGF1g/T0WXuWaUmB2qdu1RsbJLrESLgKjvaKEeuAbMGmduN5YBJO/HRGmblos4v5kK5jOOy2szBaO8XZGG+Eg1XdOlWMGILJU9tcl9gZYsS7ZVqGqMixFA123xufO4sUo481AWF9XeM4mX23YsQoyzWOTl16Kf++NsOpLF1MNGPaBj/2jtDP92OZVlA6dpyW4kSuoGJ5R86IaHYznGd9BsGJW8Hh1Zx69XspwDtfD3a3innwQoyYrml7/5ICvIXgbKvYjI4RI4I91Bkhq7LkzyzrbpzvjRiZcPpflZkPT2VZCjuhb2xnobR+dv+69mKDEjPCZVoWAtTadhQj3UWMBMzEyAPKDdx65sTHuAWnG6ADDt1xcyM0dMfNzTHm67b3/1F1SJL74CHiEyVIAxAyX00mYI47sCtLr7c7R10ZALqocOvUuw4W/bx3KUZGHUaiHtApZS97gvRy9a/ypRrE7a6N3UCMBBZhgiykxJkTG7Gh96fw/b6jxm7IOrOexYjd0sZ3LUb0APa2ozi/ymJ2VW+jM1NSfMSPzUpcRVvb52huPI6GBvWv8TTeyg57NxIjwXHYd+OEGjDvnRhpbfnUaJPWNuH16dcLMVWzz3smRqTMZ3p/CW3SPrt/Kk1Ygib1/WCs/+KFEsB+rxYfaO22fRUcfU9ipPIsIvXrGOdZi5GBiMj7WZ5xsZ45cebU/TIto6yc2hfGvUq7ZwmvaUVH0F+roy4mukCMBI7Dsp2lKC09hI1ZprZq9WvXq+E8+yJGgre8QqUe7P6/ONLwB5Rrf3pGqA4SI2HV2NBoBLlLWbv0shq0zF+/oqPFSF3zH4VyxDKV9/tOm7OTSv1j2NMnMfL2f1Ch2c/q9ecHmOLSzx0lRoaj6PprBrC72Nf9eKMYUcWI5TIt/Qm96JwbjpPTkhLZ8IIzaHZaLZ8YC50jlDVpvnXAtk8OsRkE3bET2yKULx2vH9OM1NWLvVa0tk9fzHWw+l+IU1Gefo/EiB1KELSdKHMpr0eIESE+4sBZDI4yObZetVHgr6tmRlLOIl0eU2IckFCvHrZMyyEENHuf2teIj3jzeBu2+ZCutmtmRoQ4Fm1Ww4tlWm/u52Gmp3gv/Z5gzDq8/n6xIVL07033Ku3zTp0ZMWZ9fFpKJtc1EJNq7yoOipepffUZDD+XaVmKESngfI/60MspjsPGvm5nRhzQ6phdehqDXLJz2VzTYSzTytpba4gUrU89vepixo+ZEU/Xbvf3hvNsvUxrAnJvq7Me+kyAsXSr6va3rql1taVHlk/zJRsLZerXtLO9A3oMR/P/xcK5pv1uhAxdHSNGDAe/6upRi2Vr9vVUfueNtnkjRhyarazidTz2rVFXyyxdHs/X2mKk9n12YY3woED7nq8uPpy/qX0jIiIwdOjQznFWvQbAjw7WHTzrAHY9aLj+LuLGaNc3xEjOnmohy5a0RCUTcXvV6WmfxMh4DNcyOdW5ZhTSOs4QI/YZt7RjXV51oeFGjDgMIZDjktJYa39Hvwr7iUgOdN9dSJCfrIvOrIcy9X50N2ugXEO3oa8zIzMuqzMTjzEm1SQUzIwKwtMl5qXvFozXssiIgiFgEmJ2Key4LkkSAtjd1ltw+r2dVTLX3dP/7jgKWYhRB9RsWuKyO4cDRgD7K0ya70cAe91NjHAKBPQ1gN3LJX+e2u/yveGg2qW5dRmLjjGouqMseXJdNiU6/t1jZsQIYD+FHw5n4oA6Q9LasBu7LDKIDVyxGU/cpP11tYc0NkOx4nM1VbFtelyL+4AuRo7j6tbBTr9JI7cWo0EVT652Vq+l7/VyGrePjPXoLE09dFBJLmBOMezChWtdfd30UA8Or3+FpOW5Til8vQlgdxUj/RCWe1PNpmWR4cqqDR7ESEBclRpIb5Vm2NUGSt+HIGzRD+r91Jfz1Ov1W4bRaoxZZuFOj33mzFsABiZ/iFWrcjE13K5+7fnccJ4tA9jHX0WRS3arcmxQU9E6CwCpHkIAe4eIkQCkX1JT1loIFyOAvaNmRhyIKP87NWPW77HCJWWwJ1uvxPJHqni7c8Mly6Vz3zrg0DN3WadPdjneifkOEiPc9NDpPuze5kb/+zUz4u3Fu/1xuhPbjMyqh7apfZ1Fh+A81zchtaAckWOTETo2DzGbH6o32GbkHP0a0WrqXtkOgoNqOJuRCEksxujip+p5TZiy0E3guB5Q34xpO09h2GQlBezAzH2IXbTdfSCgOydSGJBiat+cuieYvKYcQ9RypHSzUllROfN9/AEwgLNkQpsVOnobI5deVWxhcmYtz9PqrffjuxMjjsgSY2+Yw98ZKY9jktE/dQeiUtOEASjMctQ/Q+KaIgyU0yMXY7SWwlmaPSj5DJFyWlzJPkEYtll15A+cxZA4NWNZ6BhEzLuM1Jp7SD4oiZWfMDp9NIK0tpteDadfYDNmJiJnlGPkvCVCHT30iem6uv2tOAqORnhqBcaXqBuG1j/D2AyTYOuq1L6BBRinij89NbDcZ0WIXnHAIsDXd7sET12AGw3qkqvWT/HTpZXInzEMg9VZgdCYGMzOX4kTJZPVpTvDUHz9hBx/Ic2MFKnpYYMHx2BF5U48aajDoxdSVqY6nN9gXEfqg/bOjNim9tVSDJtT/A5Jw6cPFOH0+odlmBbsgNFem9S+wRNQe1eNL3l7Qkk/nDZIz9wk2SM1ybldUtvE1L5trafx6PoG7F83Calq3Wavy8WhvdmYNlDooxEzcOmlEvje2lSOs3tSkZ06Dkv2FOBuk7YM7jyens9CjFVAqpCGuK2lFl9r6YRTpXTJs7C/KAlx4ljQ0xqfh5x+uHYGZoxV0vtKY3jw2Dikmm2onT9wKT5/oqT3/eWHMiRqn9u9tjO1ryFG+qDPiBWIWn8L0+QMXM3I2Lbf/e+FVicPYsQRMArDC18ogfZHXyJp/QEMildSCUt9GhA+DqEx49HHPGsiZI/MqW9E6rYTGDFtvp7WPGxqIaJmf4z+/YW+1urkGILBG58qZdY3IHljBQYnqOnQRy3DUNvzHAicXIBjV5S9RS4f3YTx+jWtyvHnM1GM/DdK7VL7tv0/LNH3/TAcbmlmJCFaSQwRHLMYWad/h8Mvfo/9zZJD/rdYkKik7NXvx3L9hTItBIbzsQ6M/fT3SlyFNDOipgB2hI5B/LYH2Nn0n9j/6H/k77dVZWGgPmYER10rQ5uF0OIrbLJpOcKqsUnb96Pl35BffRBj1XTHUt1Cx85GjGW7FPtPOa9mE2v7C0q/voXMpVrA/VZkHvoEE51SAg8Q9gf5X5Rcv4HU2VP0e48jcipiUsV2iX0stFFrk898DEf+l8+VtL6/fIsDTnUTy+J7M5cUI+oyrYkbrTfAs5whGFSECdreCPL56mxI3Q+IXXpVvUmannILYsQy2E9y/Bfab3iodNwERBepDqtYrvT+yAUhM4rwhNx8nPl/8wyOtMnc4u/0fS0s62q1L4jPg1YcjMKMjFo/+2ViwsyUuS3m/7WZB92BVvvJfJyLDcS6ae/db77nsmQv4Zi+T42TDSsvIFZNd6l8bsxUOQlBUx2nbcxH1Bax/jbCS3T6TdfI2XXYOwfEXV96smXNTxiT5Tzzod10umTTQ4cwg2K2h7uUwO5sYPHdkI/W4IdGdadxbSmT6bX10UbMVwWKvmmg6Rhp744Xlxaj8sZJNVhccrSNGZL2ihFPgddtYlC5Q9hl3bTpobE7+0nc3O+66WHw1Pn48pG674lLG63TFkvO/NTi7Xikx9IoIsOpzs2HUJGijUnpNRQfnahUMn05lSPZcS0uqhm65GtYpEqWy3S3iaGTPZRyPfa1xTnKGOiLaUdu4xcp5WdbM36smeGUWlwbJ+Kr+w0FrWYVhDgOM+/y/41ILSyx2PBQtKnw3pMYkcbCgNUYufu58SDOXK7VMjNp08OUTzDlsPWmjPK9se4eRiYIdRHGnVu7WJanXCd4WTmuqGl9r106hIXCNUW7+/9eEAbfSntVWAWiuz61H3n0H512XzeCvP+C3UfrseKJeB0ldsRTsLbtsqas77Fbj08Rr/sr6u5/j2xTELgyWyM46r6KEelBw+LvUSzEqRjtU8t35/y73cTQtKeJ1J9hm7Hoxz/a2FMqz3SOJqrsgt619nrBStzmL/HsrTS+W/HozFJT3Jg1y/6z1rOuRzEi3zglhzAM4XO+QtIR9elu3Uuk7jqHqHHWe2o4Zz1qQuahmxiZOtbYHE+9IeuzIAEzEVv8BBl6gHIzcupeIr38DiatKUeEOUbADvyw2RiRf1e4jhTo/BhJOyqFp7ztESMK4EEjNyMu/xZS9MBpxRHOrnqK9JLTHbwOUghal+1m42jLNukqMSLZJQzh048jYZ+pH2ueI73oiBF4rfZd0PgDGL/vubpRZCOm7f0Sw+OlHPtK7n2zGJGC9/um1yJBP6cZWYcfYNKKDegXbG63vY2c2ZT6rREZ5Q8wZa2H2TM75sTPA7dibPlT52xfUvtLfsD4FUXorz9Js75RSnWL2yLwW/McKW7GmXKjDkO/DFe7TFm/z2N58vkhUzB45U2kVhlCPuvIE6TsOoth+v5B1vX16YciNBbrq7bi+4fH0NRiPJWXgp2f3tuL84czME6PoQjCuA3r8c2jE2iRljS1nUNL01HcOjUDiaHC0i/Zwe4aMWIIjlP4oWK0aTZU2J29pRy1Hxi7s+s2Cx2OZaWFLvZoe3sajQ2lOPqBtc1Dx6Wh9PxBPHzxqWobdeZDCoh/fgCHp5nOC47ER+VFeNB4Rg6wb205gQeXl2DuECMOxV6MSNcKwrjVK/DVj3VobBYEpVTPR9uxTV+ia5Qrb+B4bBfuPT3plA1NDtq3OUe2S2gOjtxuVmJHWptw58w2ZA0wrqvbThhzARGLEP3xj0ir1jY6fIG03V8iJnmc09It5dyBiFhxC+lHXgkPxV4ho+IRpm49gahJVufYl28sFXuKMan2xzkCR6D/B8cwYc/PmKbVU7qXH23AtPJ7iE+2PjdgwAwMW3EFUw89Q6Y6ayPfF+WA+NsYOdn6PKmtAdF5iP34NlIrGwQhJLXVvjxHaBa2nbiMa1e+wNHCNIQIdrayve+fCWLk5mcInn5ByJD1F1Q9/wdsKF1jPKnXy++P+JJX2PX8f1Qn+i+oavxn5MvHCteUHeZ2ihFJHEy/gA33/wNVqiiRgsv3Xf9Sjlcxi5yOECOyHSPnI+uTFux6+ke9XFmUtPwZ5Q2vkKPbwqLPx+/Agq/+ASWNmn0kUSHZ6A/YsMPieMdwxG27jfz7/46KZiNYv75NSQ7gdE5HiJG+47Hm6Ld43qLMfLY++wIfxwa2fyWCO5v0sO8oRnQxYgW0H5+FDrJdQuP7jc2P8nsYoD3RZoGhg1z3zPCi34JCrYVxT7RR725TEAZE9jM5/7wX+M5EMCIjXTdP9P06HWv7wNgN+OyBKkikWZLWX/Cq4RlulqZ2M+clECFzriNT+o2s+Q7RsR1rh67uh3dTviAcfHii7r4u/REaab2nj/vz/Ouv4MjhvPd48Xss2371GTxqaMTrN4oIaWtrQ2vDTRzyZksCb8voJcf5JUZ6XgC7sVTmXQxuXtO/myLtRruRATLQIxnoMxIraq7hQeMbZZakrQV3qjO7lRgJiNyIMSXKbIzzpoVk0p7JdyFGaG97e3exbTZ8iVfysss2tP7yFD98thPTB3NGxJ/+8kuM5ObmIi8vr1vdOP1pvLEHAcWIX/brJYqdtuniGz45e//vtexDmz4MxIBRU5CamoKE4X1tjumE8RfQH8FRGYjI3oeoeYcR//F3SNWXFL/AxLmTu65u7xU7FCO96vdywCgkpaZiyqgBfq126FW28jCOKUY6epmWB4MTvk74YWUf0HEgA2SADPjAgLH3hxLLpibLOPock5cu5bIdr1miGKGPQx/HHwYoRihGfPjB4iDzZ5DxHHJDBshA92ZAFSPqTuppe77GmKW7EDFiAH8fvBYiEuMUI92bc96Humv/9G4x4tNNhhB3V4hZL7JJBsgAGSADZIAMkIH3kwGKEQoSPvkiA2SADJABMkAGyAAZIANdwoBfYqRfv34ICwvrkgpT9b6fqpf9xn4jA2SADJABMkAGyAAZMDPglxgxX4T/EywyQAbIABkgA2SADJABMkAGfGWAYoRTcpzhIgNkgAyQATJABsgAGSADXcIAxQjB6xLwfFXNPJ5PWsgAGSADZIAMkAEy0PMYoBixFCNhiElMRWpqKiZHh9JZt7RRzxsMvMGxT8kAGSADZIAMkAEy0LkM+CVG4uPjkZiY2AOd9AAkFF3C4+a3aGtrU/5ab2APnfEe2NedO9B4Y6O9yQAZIANkgAyQATLgyoBfYiQ3Nxd5eXk9zkENXHAKj96qIuRtMxobGvDy/gkspBjpcX3Nm4HrzYA2oU3IABkgA2SADJCBzmaAYkQXGoFY90WDMhvy+lscGEcYOxtGlkfmyAAZIANkgAyQATLQuxigGNHFSBD2f6PMirTeqkCs/nnvAoI3APY3GSADZIAMkAEyQAbIQGcxQDGii44g7Lmhxoo8PIGZ+ueEsbNgZDlkjQyQATJABsgAGSADvYsBv8RIVlYWFi9e3MPiCAKQWv+TukzrEjZTjPSw/u1dA5s3cvY3GSADZIAMkAEy8D4w4JcYeR8a5k8dg7ZeQbOcResxTs0nwP7YkOeQGzJABsgAGSADZIAMkAFvGaAYEWZAApecxTOKEc6ICEx4O5B4HG+6ZIAMkAEyQAbIABnwnQGKEdnxjMS4ZWW48VyNGXl9A3tifTcmAaTNyAAZIANkgAyQATJABsiA9wz0ejESuOAzPFE3OGxpasDP35xCUQ53Xecg8n4Q0Va0FRkgA2SADJABMkAG/GOAYmTOKTyiGOHSLC7NIgNkgAyQATJABsgAGeh0BvwSIykpKZgzZ06nV/ZdKs7BGdvx2d0mJZvWq+vYyWVaPap/3yU7vLZ/T0JoN9qNDJABMkAGyAAZ8EuM5ObmIi8vr8c5qwxg54DgTZEMkAEyQAbIABkgA2Sg8xigGBGm45jat/PA4yCnrckAGSADZIAMkAEyQAYoRnQxImx6+OY6ivXPCQlvFGSADJABMkAGyAAZIANk4F0wQDGii44g7LmhpvZ9eAIz9c8J3rsAj9ckV2SADJABMkAGyAAZIAN+iZGJEyciIyOjh8WMBGH/N21yAHvrrQrEUoz0sP7lYOcNnwyQATJABsgAGSAD3Y0Bv8RId2tEx9QnEOu+aFCyab2+im2hhLVj7Eo70o5kgAyQATJABsgAGSAD1gxQjAgzIIGrzuOFtufIk9u4fv06rn++C0nCMQTJGiTahXYhA2SADJABMkAGyAAZ8JUBihEnoRGOJfV30aQKkjbplcHsXK7lxAhvMr7eZHg8mSEDZIAMkAEyQAbsGKAYsXA0w2KmY/3uQzh06BB2r0tHpMUxdgbl5xxsZIAMkAEyQAbIABkgA2TAOwYoRig0OPNBBsgAGSADZIAMkAEyQAa6hAG/xEhP3YGdCtY7BUs70U5kgAyQATJABsgAGSADHcEAxQhVcJeo4I6Al9fgTZAMkAEyQAbIABkgA+83AxQjFCMUI2SADJABMkAGyAAZIANkoEsYoBgheF0CHp9ivN9PMdh/7D8yQAbIABkgA2SgIxigGKEYoRghA2SADGJEi0UAACAASURBVJABMkAGyAAZIANdwoBfYmTEiBGIj4/vkgp3hALjNajkyQAZIANkgAyQATJABshA1zPglxhhx3V9x7EP2AdkgAyQATJABsgAGSAD7zsDFCOckuMMFxkgA2SADJABMkAGyAAZ6BIGKEYIXpeA976reNafT6LIABkgA2SADJABMtB+BihGVDGSlZWFxYsX0zGnOCMDZIAMkAEyQAbIABkgA53EgF9iJCIiAkOHDu1RncRd5duvbPl0gDYkA2SADJABMkAGyAAZ8IUBv8RIT3Tce2KbfAGhQ44dsROfFt7E5S0XsXtUcI8Sq/7ZZwwGL72I8flfYfS8WQjspCcM/tWVN07ajQyQATJABsgAGeh8BihGVAeRYqQD4Bv/Ke598lu0nHiBU1P6Uow40hBd3ICc+makrV+LPhQjZIIMkAEyQAbIABkgA04MUIyoQFCMUIx0/NMQipGOt2kHcMofAacfAfYRmSIDZIAMkIGuZIBiRHVMpE0cExMT+SPdHkeNMyMmfihGuvLmxrL540oGyAAZIANkoPszQDHSHue72567E5ePScultL8GnEnuB8eQ9ThW/BIN8lKq36Cx8md8PnMqglzaMQgz5l3CrbJf0KReo/loI34sqMea2AEIEI/XBYhWlv3rw7XL0Fc4d1thm1LHojL0Fz6XbhwzVzxGs1z2LezvKwykGTfxWm/Xb9FScRHL+zgwOu0Ubpa3KOd88gZP9n+FHSOCDHGg1/MRjsYnYM3K23hY9xul/GMtuL/jGFYOCDSON9XH+5uZIUCk5Vlu/8o+R2S40bZB6546HZ++cSP6OGIQsfAykg+/kr/Lrn6MqRv3IizE4rydFU72leoc9uG3yJTr8R2ihxrnGO3pj7Dpn2LSgafIPKrUVy4jvwaDRw32aI+k3Vfw5JdWvH15E+U54R6PN8q1qgs/o33IABkgA2SADPQ2BvwSI/369UNYWBgdD78d1nc90Mxi5Le4MX8mKve0CgJFFQ2fPMLRcWKw+VjsKGzCL6LDL76vvYX90VZOvr0I0UTROxEjJ25h/9ha/FDvWn7zgU8xI0i1tS5GXuDC+tt4JbZJfd9ceh7LQgPayXXHiZGcnRUYMPsqMlxEzWskr1qsi0hdxPgsRmIweN0DZLtcXxVRVd8gerS7cZ6Jqju/oK2tTf77qT6tnbZ71+OC1+9tP3BsL5knA2SADHR/BvwSI+zY7t+xSh/NRf1B5en/w8LruFV9F9VT4hHmcCAi8TPcVWdPHqxZiBBVWEXP/UF11H/B7bxdyAqXZgtCEZVQiq/KlZmM5t01mBBgYQPB4fcmgN2vmRFNAAplXSp4gOe7jmFxZDgCHIOwcNUjdfbkOU5OClEcZP3436Cp/g0eba3HhgnpSB63HtXbX6nH/wY35g9znvnRyvPr1RAmvgSw67MZZVcwrugRpixfjb59A+HoOwsxRS+U2ZPSMxgUpvSBv2KkT9ZFpMtC5CWmrt2F/hF94HD0RZ/R2zFmnxJ4n727BuF9LPpatsdgbPziBVplMdKEG3vGUoz4xYmdffk5f2vIABkgA2Sg5zNAMdKjnQdDjLSceIULGYMFR9v4rrFwpyxQHI4pqNijiJenHxcg0mybuHrclpd4/YTDw4XZEe043eH3LptWx4iR36LlyBVsCBNmNPR6vMXlD9SlQ/pnv0Xj1r0YotVZeg3egovVfyPPGplnb9p3E2ynGKlvxrSCbQgRhJ8uVGquIypSuUH5J0bGYPgWRdiYy5DbPHwfJlZJMyQ/Im60m8xoIaPx4dYD2Ll8vMsSsfbZrufffGkf9jEZIANkgAyQAQcoRlSntGcuPTMEhxZb4R56bXnXa1zICLV4yr0Kpyskp93me93h71wx8mj9as+OsF43acnaAFPbBDtZxK+4t5m7G2l7xchjjM0YZqqra3n+iZHVGFMhiY3nmDA92qKM2YjbK8Wp2H3vWg//7cRr0XZkgAyQATJABnorAxQjqhjpmal9fXSyBYddi/Owe3V16B1w6Od3rhixrIs48yG91+v2PokRu6Bz5xu2X2IkrgyTq9XYELuYEfXzxAVcftVbfyDYbuexRnvQHmSADJCBjmfALzHSE9PgUoyIDvtv0FjdhGdH7P6e4HRaP9en6brDTzGi3KzaOzPSGWLkNTIrnyC93O7vPsZkRbn2tVns8X/aiAyQATJABsgAGfCDAb/ESE903HtimxwOH2dGHNoyrbe4MmuoEF/ipQqmGDHdhLqxGHFoy7QaMWneeFO9vexvP244fKJE25IBMkAGyAAZIAMiAxQjqkNFMSINjBjs3f5WDuT2K83t6BO4Iwe4/xa3l6boqWdF4MT3egB7yWeYqaXglfsjHVX71D1ApNS94j4jmgOsCx+rZVcWg9zt8b6KNovra/Vyek3CiB1KVqqc/cfQX9gbRLSD+b0epF7v48xIySlEhIp1m4iobS/VvUvM1xqKIZuUfU2yD32OwREdsceKWDbfm/uV/5MJMkAGyAAZIAOuDFCMqM4jxYgCR7+My3h6XNmz43XFt6jKmI9xcnpf6ftBiI9Nw+QIKYWuK0wOx1KcLFeyUrV80ohrK4qxZGQakmPTkJy4FftmLEW8kBlq8qL76saGv8GTbcf0VLvlhS+EjQ3voip6iGt5bsWFRd3cHv+uxIgD4YtuI0uOvXiN9G3HMSwpE6ExyQiNmYfBs3YgYrhrpipfxUjILG0vEqmMOgxJSEPo6GWIWn9H3fBQig25hZFjndMWByQeR3KdEjeSVXYdcVnz0a+/lN5Xsl9/BI9IRr9B5mB/Z9smlX6P13Jq359xPEc71/kY3nhpDzJABsgAGSADZMCOAYoR1amOiIjA0KFDe8RyFWP3cteNAKWAdPfpa0Mxf9GPeKrOcFgFsLs7f/TMm3imihmXc8vPY5G4Z0VEEb46oooXcRNCaSPG5d8IgkSrsyAaxOP1925iVbpIjDgiNmBMSZPTzurGruyPMCZtiMKcp4By027tTgM6PA+jrco4eh/xS7S9RBTR4bzfSV+Ez72M1Br7QHbn411vpEs/f65seth4DUXxrt871dNSwPIc2ogMkAEyQAbIQG9mgGKkBzpI7RMjyg0hIm4rajb/hJ+r3qizF+psSW0Tnm3eh3A3dhudWIVze1/gWZ221Oq3aPnkDZ4f+RrFpqVK/aLycaz4JRpk8fMbNFbew6dZiQiacbNniBHJThFzEbXmJpLLX6izJJLzrwSOJ8yNb78YcTgQMGQ5Yjbfx7Ra9drl32P09DQEppxVNza0EiNKXwdGrUH0+m9M9WtGVtVTpBfu1zfEdL1RjkLx9VeKGPn5OHJEoemGD9fr8EeINiEDZIAMkAEy0FsZ8EuM9FZjsd2deKMIjcQgYUkXbe+n7fsOQpBTPI6f17EUF2mouNUsi5HGa0WItzymI8vjtTgOyAAZIANkgAz0NAYoRuhA9YilaT1tYL4f7VmKz5+3yWLk5+M56MOxxLFEBsgAGSADZIAM+MgAxYiPBns/nEQ+NWA/dQIDkw/g29eSGGnA1a1xvPnyXkIGyAAZIANkgAz4zADFiArNiBEjIG3mSCe2E5xYDtSewVlaBW41S2LkJ9SnkRveO8gAGSADZIAMkAHfGaAYUR3jnpna13cgOIhoM68ZWHAC9xsa0PDzeWyKpt28thvFeM8Q4+xH9iMZIANkoEMY8EuMTJw4ERkZGR1Sge7yA04xQmeyu7DIepBFMkAGyAAZIANkoLcw4JcY6YmOe09sU2+BmO3kDZsMkAEyQAbIABkgA+8nAxQj6hQbxcj7CTBvPOw3MkAGyAAZIANkgAy8vwxQjFCM9KjldrwZvb83I/Yd+44MkAEyQAbIQO9jgGKEwUcUI2SADJABMkAGyAAZIANkoEsY8EuMpKSkYM6cOV1SYSrm3qeY2efsczJABsgAGSADZIAM9EwG/BIjhKFnwsB+Zb+SATJABsgAGSADZIAMdCYDFCOOSIxNTUVqairGRBK+zoSPZZE3MkAGyAAZIANkgAz0bgZ6uRgJxILPnqCtTdpFWvprwYsf6rAwtHdDwZsC+58MkAEyQAbIABkgA2SgMxjo5WLEgf77r6NR2kW6qUUXJa+u70Qsg5gYE0QGyAAZIANkgAyQATJABt4pA71ejBiKLxxLzqqzJK23UBFLNWzYhragLcgAGSADZIAMkAEyQAY6ngG/xEhWVhYWL178TlVSV3R24Lov0CAv13qMU/M73thd0SaWyX4kA2SADJABMkAGyAAZ6K4M+CVGeupu5UF7buCtLEYe4sRMQttdoWW9yCYZIANkgAyQATJABnoGAxQj+jrAAKTW/6TEjby+hM365z2jozlg2Y9kgAyQATJABsgAGSAD3Y0BihFddARh/zdKVq3We3VI0j8ntN0NWtaHTJIBMkAGyAAZIANkoGcwQDGiiw5BjHx7AKH65z2jozlg2Y9kgAyQATJABsgAGSAD3Y0Bv8RIfHw8EhMTe1gAu7jnyCvcObUVOdGhPayNHIDdbQCyPmSSDJABMkAGyAAZ6M0M+CVGeqzBAiZgRc0l3H/aiOa36pKtG3soSDhLRAbIABkgA2SADJABMkAG3gEDFCOiUS3EyJvrxQRPtBHfkwcyQAbIABkgA2SADJCBDmKAYkQ3ZCAWnHqkpPZ9+wzXSxcgOpTThj12Fkzvd/Yx+5gMkAEyQAbIABkgA13FAMWI7pQygL2rIGS5vAGSATJABsgAGSADZKB3MuCXGOnXrx/CwsJ62PSUIEaY2reH9W3vHNy8qbPfyQAZIANkgAyQge7OgF9ipGfuwB6IOacecdNDfaaIg7e7D17Wj4ySATJABsgAGSAD7zsDFCOC8x2054YSM9L2ECdmEu73HW7WnwyTATJABsgAGSADZKB7M0AxIoiRwHVfoKFNSun7GKfmd++O48Bi/5ABMkAGyAAZIANkgAy87wxQjOhiJAA5x39Wlmm13kJFLOF+3+Fm/ckwGSADZIAMkAEyQAa6NwO9XowErqrD9evXcf27n9CobnT45vtSxOoipXt3IAcY+4cMkAEyQAbIABkgA2TgfWXALzESERGBoUOH9oCMS0LQurw8qw1vn13CtnEE+n0FmvUmu2SADJABMkAGyAAZeH8Y8EuM9KQODov9CFsPHcKhQ4ewZckYRHJGpAeIzPdnAPakscS2kDsyQAbIABkgA2TAVwZ6vRjx1WA8noOMDJABMkAGyAAZIANkgAx0DAMUI5wJ4UwIGSADZIAMkAEyQAbIABnoEgYoRghel4DHpwkd8zSBdqQdyQAZIANkgAyQgfeZAb/EyIgRIxAfH08nlkKGDJABMkAGyAAZIANkgAyQAb8Z8EuM5ObmIi8vz+9C32f1xrrz6QMZIANkgAyQATJABsgAGegYBihGqGQpKskAGSADZIAMkAEyQAbIQJcwQDFC8LoEPD5N6JinCbQj7UgGyAAZIANkgAy8zwxQjFCMUIyQATJABsgAGSADZIAMkIEuYYBihOB1CXjvs4Jn3fkEigyQATJABsgAGSADHcOAX2KExu8Y49OOtCMZIANkgAyQATJABshAb2aAYoQzI5wZIQNkgAyQATJABsgAGSADXcIAxQjB6xLwevMTALadT8DIABkgA2SADJABMqAwQDFCMUIxQgbIABkgA2SADJABMkAGuoQBihGC1yXg8WkAnwiRATJABsgAGSADZIAM+CVGJk6ciIyMDDqxFDJkgAyQATJABsgAGSADZIAM+M2AX2IkNzcXeXl5fhdKFUwVTAbIABkgA2SADJABMkAGyADFCJUsRSUZIANkgAyQATJABsgAGegSBihGCF6XgMcnIXwSQgbIABkgA2SADJABMkAxQjFCMUIGyAAZIANkgAyQATJABrqEAb/ESEpKCubMmdMlFaaCpoImA2SADJABMkAGyAAZIAM9gwG/xAg7v2d0PvuR/UgGyAAZIANkgAyQATLQlQxQjHBKjjNcZIAMkAEyQAbIABkgA2SgSxigGCF4XQJeVypwls0nQGSADJABMkAGyAAZ6B4MUIxQjFCMkAEyQAbIABkgA2SADJCBLmGAYoTgdQl4fBrRPZ5GsB/YD2SADJABMkAGyEBXMuCXGGE2LULbldCybPJHBsgAGSADZIAMkIGewYBfYiQ3Nxd5eXl8os5ZFTJABsgAGSADZIAMkAEyQAb8ZoBihPD4DQ+fSPSMJxLsR/YjGSADZIAMkAEy0FUMUIxQjFCMkAEyQAbIABkgA2SADJCBLmGAYoTgdQl4XaW+WS6f/JABMkAGyAAZIANkoPsw4JcYmThxIjIyMujEUsiQATJABsgAGSADZIAMkAEy4DcDfokRqsnuoybZF+wLMkAGyAAZIANkgAyQgfeVAYoRKlm/lez7Cj3rzRs2GSADZIAMkAEyQAa6BwMUIxQjFCNkgAyQATJABsgAGSADZKBLGKAYIXhdAh6fRnSPpxHsB/YDGSADZIAMkAEy0JUMUIxQjFCMkAEyQAbIABkgA2SADJCBLmHALzHCHdipoLtSQbNs8kcGyAAZIANkgAyQgZ7BAMUIVXCXqGDeQHrGDYT9yH4kA2SADJABMkAG2sMAxQjFCMUIGSADZIAMkAEyQAbIABnoEgYoRghel4DXHgXNc/kEhgyQATJABsgAGSADPYMBipFuIkZC4mdh095KVNfWonbPYozuJvXiQO8ZA539yH4kA2SADJABMkAGuiMDfomRESNGID4+vsc9UQ9LXIyi8r1YOq6TYQ3JwIbyWtSW78Cq3NlYtGQWxQjFWI8bX93xBsg6dfK9juOa45oMkAEyQAZMDPglRnraD3jwwATM2bQfVdKsRG3ni5HA6R+jurYK+dODCagJ0J7GGttD55cMkAEyQAbIABkgAwYDvVuMBERjdv4hRYQc2Y/txaVdIEYCELNwZxeUa0DAAUFbkAEyQAbIABkgA2SADHQFA71cjEzAst0lKFo7G2NCAzBh+b4uEAVdVS4HXFcMOJZJ7sgAGSADZIAMkAEyYDDQu8WI05Ig30VB4IwCRbwkxGPWpr2orK5F7d6lGKddNyQes9YV42BlNWpra1FdeRBFa2diVLDSAQETlmOfvDRMWh5m/O1dOk5frjU0dREKdleoS8iOoHx3ARamDNG/dzjUetfkY/rQVCzbqsz01ORP14+RguPXFR9U6ldbjcqDRVg7cxSCtXo6HNDbMi4M4+Zswu6KKr3OWxdORqhwrDKAgjEiXapbmXpdtX2LEvVyHY4QxM9ah+KDamB+dSUOFq3FzFFcjsabkHEToi1oCzJABsgAGSADvZcBv8RIREQEhg4dKjidPcGA/oqR/Sgu3o8t88c4O+whk7BsbzVqqw+icFkuZs+ejdxV21FWXYvqogWIk5z7iARkz56NxYXS8rBD2LxoNmbPnoWsCQNl2w6dUYDy2lqU716LhbOl7xZh035JJJRhXbrm0GtiZBeKd+zC6rQoJ5ERMmkZ9kplHizEslzpGrlYtb0M1bXVKFoQp/ehIkb2Y3PBXlTu26iX9/FBSUhVo3C2UiflZhGCScv2ypm/juwvUK87G7nLNmPP+mz1mtox1ThYuAy5Uv1zV2F7mWSTIiyI6wnMsA388SADZIAMkAEyQAbIQHsY8EuM5ObmIi8vT3dk21OB7nOuv2KkFpUbMpwEgD5bUbsXyxM00aCAOnRWISprK7AuXQPXptxBM1BQWYvKgpkYIs5KhEzCin21qClagBHy59r5Ndi50BAXsl0DJmD5Pmm2ZjkS1NkYxd5DMauwErUV65CuXlsRI7Wo3rPU+dih87C9WizPgZCMDYpIyp/uXDehntqsz97lCc62GToLhZW1qFiX3sP40fqTr91nTLMv2BdkgAyQATJABro7AxQjugOtOfXeZ9NSHPgaFMx0FhyOgGSsKa1Fzda5GKhfXx0MfWehsLYWxlIs63IHzdsuz5asnmoeRAGYtOIAaqVlWfK1tfP3Y3mC87EByWtQWluDrXPFWQ3lmL6zCp3iY+zbEoOFO2tRu385EuTy+mJGQTVqKzcgw0ngiGUHIHlNKWprtmLuQPFz6X1fzCo0LWcz24j/U6iRATJABsgAGSADZKBXMEAxooOuOfW+ihFXEeAInIECIQZEjAfR3hsxHVblap8ZcSTaecarVk/12JoCzDSJA222wzjHfL0a5E9XxIJyrHZNUUAEYkZBrSF+1NkWS6Gl21I9x50NdDEllsX33f3pBetHRskAGSADZIAMkIGOZIBiRHegNQFg5ZBbQ2frwKtipKxwiRwrIsWLmP9mJceqateqXO2z3Vg7x/Vc+VqzsjBBnnXQxIg2U2LUValfGQqX2Fxj9iwkxyrH27bFYSNGCmY6L7/S7ShdTz2nrBBLLNqu1D8ZsU7nGPXuSMB5LdqVDJABMkAGyAAZIAPdlwGKEd0h1gRAR4iRDGyotFmmpZenQWFVrrb3yCG4LtPSztNe3YiRjA2otFmmZR6U3osRddmWEG9ivpYkRjI2VNos09LqzVdXu9EmtAkZIANkgAyQATLQuxjwS4wwm5YCib0DH4KsjZVyTIY5gN11gFmJEQcCRi7GrlqLAHY7MWO17CkkCxsrrQLYXSG3b4tpZsThwNB52+VsXHuWmoLThbqFZG1EpRQbYw5gF45xtYVrvXgMbUIGyAAZIANkgAyQgZ7LgF9ipGcCYS0K3LXV3oF3wDF0BgrKa1FbXYqdaxfqy7QWrd6M4pKNavC5BJZduVpq3FqI6XNn5y7Dum17UbxY24vEfmZEqruWHri6dCfWLtSWay3C6s3FKNlo7EVi3xZXMeJwDMWMgnI55W/pTi3t8GwsWr1NSO1rfczsRauxubgEG9VYFXf25Xc998bDvmXfkgEyQAbIABkgAxIDFCP6k3o7UWAPir0Dr5wTPCIdiwp2o6JKDRyvrkTp/iKszZ0kpMR1V660AaGwaWBtLY5UHMLugqXI0jcOdC9GHA5tc0Jt40Rpc8JS7C9ai9xJxuaJ9m2xEiMOOIJHIH1RAXaXqRsa1h5BhdS2D7RYGOEYdQNFab+SytL9KFqbi0lD7O3KmxNtQwbIABkgA2SADJCB3sEAxYguRnpHh3Ngs5/JABkgA2SADJABMkAGugsDFCMUI70ih3V3GXCsB2/+ZIAMkAEyQAbIABkwGPBLjIwYMQLx8fF0YilkyAAZIANkgAyQATJABsgAGfCbAb/ESG5uLvLy8vwulGrQUIO0BW1BBsgAGSADZIAMkAEy0FsZoBihkqWoJANkgAyQATJABsgAGSADXcIAxQjB6xLweqv6Z7v55IsMkAEyQAbIABkgAwYDFCMUIxQjZIAMkAEyQAbIABkgA2SgSxigGCF4XQIenwgYTwRoC9qCDJABMkAGyAAZ6K0M+CVGequx2G7eKMgAGSADZIAMkAEyQAbIQMcxQDHCmRHOjJABMkAGyAAZIANkgAyQgS5hgGKE4HUJeHyi0HFPFGhL2pIMkAEyQAbIABl4XxmgGKEYoRghA2SADJABnYFgDE9IRWryBAzrS+fmfXVuWO/eye7A+CSkpk7ByP6BvKfp97TuzwLFyHvUWe29uQYOnITQwYM4QHtRn7eXmZ5zfiRCYiYiOLj735R7js3fL1sHj16F2usP8PKXVrS1taHtlx9xeFo3bEPQMPSNHo8+fbph3Xhv5e9rFzNQcOm1Mn7b3uD14+9xuigLgwI5Vrr774pfYmTixInIyMjgoPNl0AXMx6iDzcipb0by8tne2U44RzpP/zt6GcN8KdvhQODk40iuk67RiKlLvCzfxzI6B/YgDN+i2CJ7c5F3duyW7eDNsXN4kew8HsMLn8vjJ7viSwyN8MP2gbuQoI5Br8cvuXtPxmcQRm46i5+b21Qnpg2tb16j8ekNlCT7wYq538PXYkyZdM9qwOQP09pnk/A8jDn0WmY5o6gc4RQk7bOnua/4/3tvz3WfP0ZDUwtapQcK8l8rXt44gHTOcnbrvvVLjOTm5iIvL69bN6zzHB0vf6wEYeG1MyOcowsRySHyWYwEYsDKnwwxs6cGYe/tTbeLxEjSEYzP/wrj8ysR8d7azorVQEQslNr1FcZ/tKRnjmlBSEgO4fhsKzt4+Ey4htfj1x0n43Lx9avzaGvz/Pf4VGLP7BdL+0RgWfV2XL++G1/VTkOM5TEe+srHc8Jn1uBHVYi0vv4JF3Z+0LHLszpQjAQln0Gq9mCq+ltEx3WsLfz93QwcdwCjpXvIpjoMHuJdnQIiJmHRljIc++wLXL52Ddekv0sXcLpuD1Ykhvci5r2zl79909HnBaR9hjXX3yD/+iNMn9p96z4waRM++e453qiC5OmF9YjiDEm3HVcUIz7+cPk9sAVh4a8zEzDrqiIofBYjnBnxu99UPtpj+/aW/W7P7yJx11njTi6nG86MUIzY/CgOx66vT8oirenmAiS8a076ZaPmxxb5CWrr69s4Mr2vTb3a4XR1oBhxhK/B6IOvut3MSJ+0z5EmiSSvBFIQRuXuwcnLqgDRhIj4evUcDi4Y3PF98a556gXXD1z4EAfbfkV96++xbG47xkWn2GoUtl56jreSIGl9iFMfUeS+W3/Cfx4oRjplQDjg6GIxIgHYM2JGusZ5phjx/ybTPW5+7YwZeWczI0dxIT8eqan2f5NjQnqRU9a5YiRy5Xk8lZ+cNuO7kknvxs4dKUak36tuGDPikxgJTsO2k1eUmZDL53B078eYP20sxo5Lxpy1JTh1RREpl2vXY2Rn/T6zHK/Zf7/EiAOOqC249FKJA/vl2wMYxdkRr/u6M3+7KUY66ybUDcRIZ4L17sqiGOlY23aNPTu2DZ0glN6ZGKnFqXmdUP/Ous+1u5zOFCMDsfjsY2VWpPEytgx9R/3Q0WKk3Tbu+Hb6JEYcDgREzkRRxW58FGcW2iGYvuuMumTrED7qhm197+5dHWzD906MOByYf+Khslzrl5vYVlcqmwAAIABJREFUO7zj+e/tTHRE+/0SIykpKZgzZ063VFc+GSXhOFLkGIwfEBM9GBEfXUPSkUZlKVTdS6TuOofh8aGmdrpz3oTYDPNSKicxMgd9c847lZW+7ypip01GoJsbh09P54XynOJN6l9jwgzPgzFo/AGM3nEH6VVNaqxJEzIr7mDSmn3oH+r5fO/6IQjDNmvXV4LrM8ofYEr+Jxg2zi7rl7P9AydXY3LpS2TL66gbkVHyA8bOnYkgGzsGjliOmLzrmFLyBBm1SiC8Zp/sqieYvGi63t+6vbU12ravJptqXGnHH72K4cEOBI7eh/H7niNLreu0fVcRPdHE17hjSNbOq29GdtVTpO+7idELlqGfp0xQIVMweOlXmFKildGMnJrnSNn1pYktw4Za221fzRzb2NVtf8dUY4rcpteYsnCKbl/xnICsi8iUj3mM0UlmvsLQL6MWCbrtJLs8xJT19iza9t2BY+jvrg0hOYjacAupGvc1z5H08R6E9+3gAHZ9mZYvYmQ4iq8dR6sUZ9J8CIczg5xtOTgD556ek5c4tdxbg5kuvARj8sfr8c3DT9D8VolVaW05gUfffoxdcwcj2NYu0nlrce3eUTS1KNdvaz2DpmcVuP7JTEwx3Q9mnqxWYmEeb8I80zXH7dqDV3KcjNhuQ4B4jKFp2ou9CWY+HHD0i8HHx/fh4cvTeCtf/xxaGmvw7elczI0z2UmrU78ZOPmzEuT66to2DNU+9/jaByFTKzF+72NkHlWTaVQ/wZRNZRg0xGKZl5MYyUHY3EtIqVKWWuXUvkDa7ouIThqLAKtyh1YgUbgfOI3TirMYZHWO/Jlaxz0Pjftc7XOk7DiFqIk2ZennVWBs8X1Mq1YC5XPqXyGj7DYSVmxDmBAErAsQu/rpn/sQuB8QgaVlX8li5MrJLUixbZ8FAzbHGs7z7/BRUgym1v4N9jX9L+qlpUZv/xuH7jVgVrbV8p1+mHnzL8px0rFt/4vDDf+GXdfu44PZw5zHnlp2nwN/Ixz/K44+foAERyCG5f+MHc//B3VamXefIGuscxv67G1VvpfL+hU1TX9Ayb1fsHz3KoRata3vOWyRjm39HRYX3ULRS6lNf0HF7a8xPr4Eq39Syqt58bdYaLU8KSAaE8pfYfezP6NWLbOu+T+w68vrmGKK2dFtqB4n287y/V+x/6RVPHEAwnMvYeP9f8eRN5ItDdt/uDLb5d7jUt7bNswKDUDIzC9Q8FCr7//i8M+tyLVqm9leC0/h8VtprL/AFxvsfAutP3JQ+o0Ua/IGz6/uwZQQ7XO+ir/ZHf3eLzHS0ZXosuvpTuN9jMm7qTq0zg5qTt1djHRyGA1HzjWbk5diZO1pTJIzW5nKqm9C0vIPbQWJ7mB54yD6LUbCMXD5HdVhNtdP/b/yMoZ5GaTovm/7I2qrTRn1z5C40MoWgv0LT2O0nKXG9RrTNhejr+mGZGQUcz1e+ZF3dpZ1e+s/qvbnOQk8nSvt+PsYOakA4w5r/wuvlRcwWHQaJ580AlRN5WYfuoAhdnYftgsTKkVhJ5QhX0dky7Chk3NjKk/+zhvWTHZ27fORiC5S67PrMPq5HB+EIZteKqK39FNTgoBwDFx5z3psSvW1YdG279yJkZCFGHXA2obTNpzv2GxafokRBxyxM/DVc0UQNN9ajkydnUgUfHVMFiqtjXuxP8nsgIdjycnDaJEddYug+ZYjOLVigKuD1ScWu68eUx18i/PazqPlwSasEGYVOl2MDE7ByZ/O2CYDMNdP5zOqEJcbJAflF/x4eJpr2104lZyRMIQv+EYVzuYx1oycqm8QPdokSAQxkrj2HKaoAsZ57L3A5AXZroLELzHioY51DzBmWoxrewNiMXjtT27v/dklZzFYzUbX8WIkCPFLy/C5HDtyBcc3Wz+40PvPsn9cHUbdsW39F6w9/3+cHH7dqX7zz1ju4tQOxdzvVcfZxfH+E4prP3Zxos1ipP7tW8z44Bb2vHW9Tu3dbxCntyEAoaV/6yRk9Lq1/YrKH79Bgkn0O3Qx8l84+OSPONygOen/jd33/1n4/1cc/eEr5/tqYAZmf/tn2/LqG99ihiCWdBu62MHcLisxEojhB36Dw7bn/hEFu6c68ehSXuvvsXxxHT5uMpf3K+obGzHNbBvdrioP/bbh6mvlwcPtSgv2xePnn8DDN8qxbW23URnjypSvDPJ4zzakGJEdsJfIrHqGxCVrECJDHYmw7LNqKtxmZO86LGSfMhw5f8VIZtlDpGwtx0B1z4+gIWsRt1NJPZpz9DZiR1p3nO5g+eMg6stMTE/xxUEoxZVkXcQ01SnNrvgW8XNXo39MMkITCxCX/0D9oXqGyR8aMwj+D7RQBEclI1S6fkwy+qfuQNSSzzC5RJ2dqr+PkePNtjDsn1P2CCl7T2HIqBGygAscmI3hmx6qjusLjMsSZx0Eh7juZ0xcUY5hKTP0suU6JOYj0iY7jV+2F2yesPEipu3/DEPipKcyYQidc1W18yuMny60MXS0UafYRRgytxyj8m8jXRWvGZuLXX4AHQGZiN2tOdGNSMmvxpDJkk1nInLuaSSqIiX70BlEhgtlyX1v2NOVZ/Ox/v4fgJD5qtg/ehMjzKl1Awswrkpx7FJXL3b+UUo5qwTGSrNEhy4hWuqz2EUYlve9wem2/a42ceJaeEhgK0YCELb4lspOE5LW5iNUvxccR2LpS90B9TcBhdM40cWIfcyIXazI4FWFeNoqCYMzuHc0QW57bMEOPJc+az2Bm/tHuthj4LICPFbPeXJtOZaPl5bHBCEydQZO3flUETFPC7HKqW+CkF1TpgqYc2h+tBvHilORkxqPWesW49ztE4pIaanFF1uG6/3muxgRuTJmSbwLYA/FsrO1ymxRSx2uHU7DeKnf+oQjtWAT7jRJwu0cnp6b5uyMSXwk1OCuHC/yCte2DdXr79RPThw5EDi2DlO12ZCy6xiZPQ+hcfMxZOnXSFc/z9pThXDxPF2MNCGj7GckbdqD/oP6w+Hogz6xWxC/VxXiVV8jyoslJH0XfKcId5uZkYD4GlXwNCFtSxUio6SyAhE0bCVitz1RGK+8iCFO94JA9J1zTWc869A1jJy5DOExyQhLKsKorY+Ue3/dQ4yfmeRiK12YeBXALva38j4gdDyWH/xMz6r15dECpHTQE2nDsf0fVDX/CcX1+zF4kBTHOQIjd7zEAVUoOIsDqV4DMDBxNmJSpb85GLfhFOZ+8hxFT9VZFTcB3HqZrf+CjVf+EZXfXceE6HA4AmKQ9Pm/KIKo9Z+xVF+lEIDgmCy1rNmInVOCGaW3kXf739VZCwsnXxMjbX/F7qPz4XBo4umvKLt4AMGOEKR++QdZcBx9dA/jdCYDMbhSE2V/QvGn1YiV7OEYgIhFl7D5uTIbVPvdRdcxI/kIPgawB4y5gh2qjSvv3EdmujSrFIDguALMv/Gfii3e/BZzYl250AVX219QeKUZhx8+U88fiJhSTeD8L/KLLM7V2yt9txrnXihxI0/PrcAAp+9M50btxPUmVYw0XEbBYNP37s7ldy73Bnf3U/E7ihHV8c7YVGCakQhA2NI7yk3/qLSMSwPSnfMmOD1mwSDOVJR+hkH6E031upG7kKA6ZEnLrB19vxxibXAIjrHTU3zte+k1IBmxu9WnfaVnEenytCEAfbNrEJ3oaZpTs5WfryGr1bz8VnuyGPbPqbuJEeaZAsHOWfnbjIEhfJ65Kd/4XGy/m/d+2V63eTNc6qp/5zwbIw5O430A+n74reJE1F7GMBM7xhKnV5j0ocVSv5CPEL1km80yL8Oe706MOOCILFFnA19j0nzTk6mUs0iXx6FZfAozJlVXMdypr8MxaN0ji/FpxZwwLu3EiMB+9o4S06yaIKZ82SfIDU8OXYxYzzZIy5XsU/oKsxwtFTi6cpY6W3IOLy7PxiiXciOw6atj8syB82yKaqvYWbj8UqpHPS6sCTPGRtR0fPVCqV/z7ZWY4XI/CMeC0jzsynBe99+pYkSv42ncOjzGRYTFFhbjpTQb9HwL1jgJLVGMNODiWituzJ8NwMBV9xXmqr9DjNMMSBj6L/1RGaN1DzBqsnCuLkaakbWnFgNMe4MEjKzA5BrpvtuASfNdHX3jPqBc070YMepoVZYjdAlGl0hlPcf4bEGA9V2A+APKvT9rbz0GCsuxlPLDEDazGlHjJGEjtE193y4xEjAQiw5dVOJErn2J+h2zEddBQkSqq+48t/2KI1eqTYz0wegT/6zMELT+Dh95k6p2YAnWv5Se0FsIBNUeYplHnz1FkjB2jO/+jA35rrZ0tu9gpH75XxaCwgHRUS/YJV0nFLO/FesVjIln/s313MB5WPKTctyh87tM9nAg8IO72CfNYrT+HeZZCAS9/m7EmNGGIMQd+yelDiY7yMcELcGyn5W6bC8b68qWLrh+Rf2bv8M8YbbGaP9fsbPG2mcy6pGDuntv5Piw5xfWWIos41gH+iUsQVHJDnwUa55h9tRf/F60oy/vKUZkJ+g1EmaLT9FVoPS17uLTa3fOm+D0uBEjGRs3uQ46h/Hk3s4p9Msh1n44BOfXVowIx0xdnG5Rx3c30ORMX+oMSWhULKJsNzY07J9jueQnEIPWPVEcBtHxFJzNnLqnmLJemj3wfkduv2yv27MZOVt2m8SuJ1tK2Z+0WaMkhExV45tcZosE5o58gSEmoeL5ZmDY0447z9fw1Bbp+/4YvkWdvdlRIvwACv21p1qYgXTOQJe1ucjVfvqSNvezfdJTYX2fHZEJbWxIr3pf2YjDyFJMVh9cdOzMiD9ixAGHsDSp9e3n8szAm0f5WCUslzL6LQEnH0nlfIbbh+MtxnUcyn447fr9zA14JC/rOoFr24dYnGfd750qRrQ6/lKKw2kW9Ulaih+az6PN6nt9ZsRbMTIW0TsVhz2zuMyZVYmhEUfU2ChTjIQuRpqQsnKhqx37ZCNur3Ld9HWrXb8XOXU44F6MaHV8haSlVpvbRmNogTQLb/peXw72EhPnTvRYB4MtxebtESMBg1bjiJxB6xI+KUxBiKm95rJ8/V93nqWn6/tcY0MCpt3CHnkJkd0TdudZi5jJkzBXdvp/Rd3XJy1tZZT5Vxw8bfV7b8Gq1u6wsYiSZ2OkGZlMRJaqcShv3+ID7RjpVXfU/wKfxIh2Xut/Im+VRT2CS7C+QRIj1t/rbfNKjBgCqez8LgtbabM3f4Xl91pd235F3Tdnhd8Ni3qLtnF575sY8ZUxHu9rf7geTzGiihFLB11wUIzv3TlvgtPjRoxYOzPurqt0nF8OsTYoLdtiAkKPdfDk3JnO08rw+TUS/ed9ZQTyq86euJba1UH2ZCehD0yOpxTsri1ZMspQgt7HryhyG5jvl+11m1vN8FjbMDB6E0bteIhMy5giyWFxnT3QdqTPMbXXuxukJ3ta19O7azufG5jzpbIMpO5rRGlPqQNWY0yF1K7XcBHAnuzn6XudR3sm9Hb03YeJXt0LvO9L/dp6PQR76DMjYiC38L3VOabPBn64DvdbVDFjF/MhnaOXZS98tMBxcTbGOtjccx07U4wYdfTUNgs762LEy2VauqhohqVosPte/9wkUvT+1ASEzXX14xTbuxUjelmKuDHuc67/i23QxUT9U4xJ8dzHZrb18/1YphWSWYzT8oaHZVjSgTMiWh1157lNc9pN7dMdXtP3coD3GyPY3SLmwbMYMV3T1JdaHaVlS1KAtxGcLc0WmP46SIwY9jBd31yejb30870RI33yseqJp3KU7y1tqfeN/SyUYUNTvzrZehO+fKUsvfK4TMvpPHfX5Hfe2d47O/klRrKysrB4sfPa7o6sVKddy5PzrTs7onPuznkTnB5fxUjATIxUp8mtZ04c8Msh1gaWZVtMkHiyh3atDnkNx5ANT9U1+krWp/TyJ9D+tExXvosRIUOX1cxJcDQGZNVg9NZbSNEyp2kiqOZHxDklKzDs45ftdZt76cCOOoxEPcOXlL3MsEd6pZYx7P0VI46+WzBeXor4ChPnqku1pp5WYkKsYqU82U/43m5po3IvEcalnWDTZz7EsW70vzFz4mVfehojukCwcJI9nat+3yfxQ3zdoGa38kqMnENL0wk0NBy3+TuKGyUj9aeXhqPvWx27RIxI2b1s23UcDU/3oCRZ6E/JhsM24asXkoPyC+5UZ+vttv39ERx90ZHXjxe+T8tbYVxP/9xGjIStwphSSSzYzJyYePBWjGQdearfT7X7qvH6EJM++kCvoy4mukCM9JmwHLtKS1F6cD2mmdqq27Ydn+vOs41z7TrDIHEyBFmX/2gEu7f8GeUNf9D/tIxQlg6009Iwb8RIAPpta0KlHuQuZe0yyqrQM391zMyIaI+qRqMcsX3y+5f/hOVLTWNGbJuPYqSu+Y+6/VzKavgv7PlUWFat9XdHiZGo3bjRrIgRjwHsWtl81e8PHTEOPV3DLzGSm5uLvDyr9G2u4HqqQJd+Lzjflsu0LB2UdyRGhLJc1tSrg8Ivh1gbULrjZuNsScfpxzTDHEjc4f2kL4F7gUkLzal43dnY3XfS0h7tSXsznBwCzQ6m16AhapC3lunKSsBIefFnXVXjEy5jmOkatrYR7Gk9GyaOFyE+4sBZDI4yLRvUWTWLEcHRFmccvK2jw4M9vb6O2Ba790YblWVXgYjIU+M+rOwuxPl05jIty/Gnj89uIkb6xKPs+1NOGaQ8L9M6i5+OTfJ+qYO2BKrtNH4oM0SKLe8qK50pRhxaHd8cxrE5Pq7vDkrC0XuKg+Jdal9jBsO/ZVrWYiRgdB2myg9ETHEcNmPPrRhxaHVsQsrqZa7ZuWyu6dCXaTVi6iJDpHjqa+17Xcz4MTOiXeNdvYrOt+UyrbHXUSzPChjCwVi69WdsrzGn1tWWHnmzTMu4pm379BiOX3Hk1k2MlYPJjXuonqGrg2ZGDPH1Z2zc4rpszbaeKju6Pb0RI3oci1W8jtFG2zI7SozoqX2f4pxV1kC7ccHPO02QUIyoT8WtAtj1oOH6u4gbow0cw3nLcVnjnqmv/c3xaWZkPIYXqtm03DiUhkNsn3HLdlDrjrEbMeIYiRE71HX9LimNtfZ30Ou080o2JLOdpMEvBLD7NjMipoF9iPhEb+sq9KnNk/OAGZfVWZzHGJNqEgp2Nyzd5l44sAGTELNLWUrhKlyEAHaXZVoOOLTZhfpmWKU0tmVCrrcwk1R+FpE+x5x4a2PlOD3YXgrED5mPUQelNlsEtat101P+uiQr6OgAdmNmsnMD2H2bdVD6Ughgbz6EI3kfqTMk59B440MkuPBoZJyyTvtr04cDU3H2sTLz4st5uhhp2Into8RrR6Lw8ieqgLJr91DsuHZCOebFdmywjIERrqnX8Rwaby5Ekk/8+rrpoREcnlN7G3ETxBS+3gSwW4iRkBxEF6nZtFwyXAntFPrUvRjpi/AlalY4qzTDwnWc7gt9shC3W91XxJfz1OsFJZ9RU5I/x4QPTAkq7MrUPg8YhNQFq7ByfqJzFjLt+3a+6s6zZQB7IIZX/X8u2a2CNjcpqWjNAkCqix7A3kFiJPgINsopa62EixHALqUJ7pCYkYApyL2lZsz6+Z5rymAP9g6c9xMOyOLtryg67JyS14kp+TpC5i7L9MnWjOvX6SAxwk0PPdjZQ5/r/fEOj6MYUcVIZtVD29S+zqIjAKGLbytPyeubkFpQjsixyQgdm4eYzVpa2WbkHP0a0WrqXrkjhae8hrMZiZDEYowu1pYrNWHKQjeB4/psQjOm7TyFYXL61mQMzNyH2EXbLfZvEADUHWN3YsQ5tW9O3RNMXlOupolVgqmlsqJy5nv/dNUOXn1zP2lmZB6CZSciFMHxmzFq5zOk7b+nxBdsK0O/gaLzbwgHQ6hI5+UhRk893IxpGzc5BzwHJGHYohpEzdmh9JcWHJ6Yj+iVXyNVi9GwekIvtUHPBtWMnMPfGSmPtZTEqWmuTxB0m3shRhyCKDhwVk0B7IAjdAwi5l1Gas09JMuO+08YnT7aeVNHp9S+zcg6+CViP1BTMkvtHLsGw+bus0lb7JwpSuIqSk95PBORM+zOE9iy62Orz/WZqxcYt+SksumoGwEe2JmpfbXsefWNmLqm61P7pqbGQ/ozp/gdvGQDfpJjRbQMUkFI3LMbDW5S+/bJXoU7anzJ28YynN2birQYLQtWMKInxyNpbLhpXIupfc+jtbkGX59ciPVzlHqlpk7Eul2LsW/DGKfsNFGbduCFuvFg073N2Lt0HFKzU7D7TBma5PTCUnzHUVxYP8hyM7fEkgN4rZ+/BaXrJ8l2UMpbgA0ZQsYvh1jHz9F4pwB7l8YjRste1G8QJqeOxNjB1rMmkSvP46mc3rcZ35VMch3DJobbl9pXECNBwxCafBBj9zxXH3I8R8Js7wLH3YsRBxxD92Kimpkx+8htjJm7DGFyKmFpzPZBn2HJCB061DRr4pzaN6fmZ0xceQCDE7QkGpkYlLMPwzOmo4/JJvLv24DNGF+pxqVU38HYD9djgHqPDUvaYn+eow+mFh7HFXlvkUuoXW+RUcmqPB8+E8VIVfN/2Kb2PXr/e33fD8PhlmZGNmCgzNMARHxQj5X3/oSyR/+Caimo+rurGC6l7DXVxyjTSmCY7p1Ba7HisRI3Ic2MyCmApdS3sUuR/dnvcPjF73GgWdok8LfInTzaGKO6o66Voc3YaPEVNtm0HNKysGZ934+aJ7/gw3UrlHTHUjsCojAkdbZlu+R2Bu/BWjmbmFSnf0d+fTUmqwH3sctqMWfHRqf7gWOgsD9Iy7/i46oDGDNG2zQyAGFjZyNGbJdoS72NWptMthOPtXsftQWXXippfX+5uRfD7Y7TPzeC3dt+rMLYQD/K1K/Fc81jw+5/ihFZjLzGRGkfCFWYOAX9Wc0QDCrCBG1Zj3hO3Q+IXaou51E/14WHIEacrq+dLzn+lpv8iTBPQHSRtp+EeuPXzj9yAYP1ASAs3dG+t3t1mZkIx8DF3+n7WljWtfwzNzv/ivV1897kQDuVI9kxR8sepbTTEB6GGHE6R29fI1LWbzalZpWWoBVhgiY49GNNNrTqa92m4qyL6TxpD4zNReoPkqf62YtBcY8Xc9umbczXM4wp35mWaw3bgrH6/iyu9bOffZBmouw3+5POM5I3uOlP3U6ejhGWZqn9kO12nxD3drfc9FAQgWY7mv/Xx6dUfzd2mLa+Up3F8UZYerKB/0HlDmGXdec0vcLu7E37cNBl08MgJBZtw8NmNcZEdvadg74t9/XoE4uiL6rRrIsI53OkwPdfbi9Hmtj/A6fik/sWmxC2foLLx7aoGbqU61iWKWQK0wLrjddPcXPvCGfnz2MdLc7R6tsvGzU/tsgpP1tf38aR6eJsh1U/ethQ0GpWQY8ZsRqXUrzcz5gw12LDQ62OplePYsQRiOC0E5h6WNtB3bVcy2VmAbGIXHkbGZabMirXyNpbi/6m+ijOhXu7WJYnXycMKyqvqGl9r+HLgx86961lWVb9Yv+ZKAy2SHtVuARqS2ljTZseBi3Bkp/E3deFIOw3v8PCooc4KFxHjh3xFKxtu6ypD0Yf+ycjPkW4rrTr+866T5yDwLUZEt1R91WMSLaKROKxvxfiVIT2qbMe1jupS+e638TQeU8T6fgA9F16C8WNNvZs+xXO52iiylwn7X+tvfZ9bji8o7D10nO8lR44tD7EKZeNLa2uUYBL6gaJL77Y0H5fpwMYNtpjVd+e8ZlfYiQ+Ph6JiYkdftPodIPr6/AlhysM4XOEzE51L5G66xyixlnvqeGc9agJmYduYmTqWCO2QHW0dGcnYCZii59AC8yWnaK6l0gvv4NJa8oRYY4RsAM4bDZG5N8VriMFOj9G0o5K4WlEe8SIAnbQyM2Iy7+FFD1wWvkxyq56ivSS04i0q58vn4fkIGrDLaRWaUvDXiJ975eKzfW+UcsVnP2hG58gXTtHtnMjMsofYEr+Jxhm01+OgA0YXWI+T7q2dO4dTNpQ4xqn4dKWMIRPP46EfaZ+rHmO9KIj6hID/8WIfNNOr0XCvuf6LshZhx9g0ooN6Bdsvq5JjEh1lYLz532Gyeb6yW18jIkfutnROCQHQ1deQ1K5UbbEaNaRx5i8yFMOdx9vhsKyMinF6IQZ4syX1bXC0C/D1S5T1u+zzoD2/7P3nl9RJVG493/SoJJMqCiYwIABDLQJMY/ijNlRMYs5B1RUFARRDIM5jWEcx5xBQSSn/gPuup/uh3vXuu9a73qfd51c5/TpprvJ8HxgddPd55yqXb+qs59TtXcFKkYkG0r9S2Ty4k9M2X4UvUOMZVx6n3bjw67sHj7TA9jdnXvD8Va+MzJcCYKj5jTOz7I87Rd2Z6/7tAHzbZYshY1xIvNOBorKrqNOEBgNNddQ/iEN823r1AtjVq3EndfZKKu6qWwwqM5cSAHxZa/XItlyXM9hk3Hm7/OoqFM2HayruIAnZxIRpcV4qGLIVoxI5xoYjwM3jlvKqQTgf8gfb3Pv8VTG26ipLID9MUrb9J5/Ee/V4NbGyvco3D3Tg8OttWVPhEzOQvyx75ilbXR4oRiTtp1B5CAbMROxFrFHS4QxuwYpuWWYnvkO4/88hn52x1jsadwbhaViTTwUCuq/EIP/fIrJmaV6OaU+PTunFNOPFwj3C61e0mtP9Io/iNhd7+HMKjcSjMhjQQmmHc71smFcBMKnX0T80SLMyBGEkFRXj9cLQp+U/bj29zM8uZ+H9CRttk4sU/Pei2Ik/XB/jM4UMmQ1/F+c/lSORQu1J/XCtfqsxW+P/wcya1QnuuH/4tzXGvm3xjkVB7l5YkS6plSuShz5+f+oouT/RXb5/8T2U+sQbhU5LSJGpGsGISI5H6ue/w+crtCuq9TnYtX/xpmHuTb9TLNPMAb/+S+2fv5fyNLsI4kYyUZl5W7jgczvoN8xu6AeR0r/D7L1YP3/D/lScgC3l/6KAAAgAElEQVTTMS0jRsLGb8TlVz9RL898NqLk3mZE+zLLMf4M3tQqsWTvs8eYV1h47JeaXfhqjFX+2SIgMRLoxTrccbrD24JPf8MjzUtoCK+XAc0LrL0i0cPGmepwDLVh+/YItxfG3dkmbVn34F5NiSYvPLchJ21pE7+vFdbbZjPV9rZbD4zcdgvfVEHicrnQWFuJ8pIX7hm42rsdg+IRvbdCXiY8a/8p22VufrdJe9epla9vCAd/nqg3wWTEEIRrSwFbufzSzujhA9yXgrGd7dto0+3vKK+oVkWIJCoa8etFBqa7beRpf7xjQT6+1EvHleHBFt5z24ozihH5yXoLipFWH5g8dCBeNzDRQ7vRbmSADDgc6DVqHXKff0OF7Ii44Kp9j/MzOtJ42xOhyXfhlGdjLJsWkmGPDLeKGKG9Pdq7rZxXT9dJf1wtL7uUREhtyWv8dSAZkb7MiGhtmv4Y1fJsyntkjwnusPX0VP/O+jnFCMUIO5s2CPGVLJABMtCjH2InOeGcOg6DfX2a2hrchI5EWOwaRP12HDHLriH+ULG+fDPl/FMMGdKRhFLHLQvFSMdtm9ZwnPvFTYHTOQkj+wQmJGbkfESdJEZ+3sMGbXPe1ujfPKfpXkMxQjFiAqI1Bgees3vdDNjebG8y0AIM6Ht/KHFzWvKF2edfYkSin+lzu7HjQzHSAix2I34W5H9Rlni9y8KwblTv9h6zAxIjYWFhiIgQ0yt2UthbI2aE8FLckAEyQAbIQHMZUMWIspN6ESbvuYUR81cirD1na5pbp3Y4nmKkk/pn7cCK5JDLMSfl5fh8Y7WXZA20aUuLl4DESJfZgb2dYG/pRuT5ODCQATJABsgAGSADZIAMdEYGKEYoSPgEkwyQATJABsgAGSADZIAMtAsDFCMEr13A64zKnWXmEycyQAbIABkgA2SADLQsAxQjFCMUI2SADJABMkAGyAAZIANkoF0YoBgheO0CHp8qtOxTBdqT9iQDZIAMkAEyQAY6IwMBiZH+/fsjKiqKTiyFDBkgA2SADJABMkAGyAAZIAMBMxCQGOmMqotl5tMCMkAGyAAZIANkgAyQATLQsRigGKGSDVjJsjN3rM7M9mB7kAEyQAbIABkgA52NAYoRihGKETJABsgAGSADZIAMkAEy0C4MUIwQvHYBr7OpdpaXT5rIABkgA2SADJABMtDyDAQkRmJiYhAXF0cnlkKGDJABMkAGyAAZIANkgAyQgYAZCEiMpKamIi0tLeCLUlW2vKqkTWlTMkAGyAAZIANkgAyQgc7GAMUIlSxFJRkgA2SADJABMkAGyAAZaBcGKEYIXruA19lUO8vLJ01kgAyQATJABsgAGWh5BihGKEYoRsgAGSADZIAMkAEyQAbIQLswQDFC8NoFPD5ZaPknC7QpbUoGyAAZIANkgAx0NgYCEiOdrZIsLzsmGSADZIAMkAEyQAbIABnoeAxQjHBmhDMjZIAMkAEyQAbIABkgA2SgXRigGCF47QIen0x0vCcTbBO2CRkgA2SADJABMtDWDFCMUIxQjJABMkAGyAAZIANkgAyQgXZhgGKE4LULeG2tunk9PukhA2SADJABMkAGyEDHYyAgMRIXF4fExEQ6sRQyZIAMkAEyQAbIABkgA2SADATMQEBiJDU1FWlpaQFflKq046lStgnbhAyQATJABsgAGSADZKCtGaAYoZKlqCQDZIAMkAEyQAbIABkgA+3CAMUIwWsX8NpadfN6fNJDBsgAGSADZIAMkIGOxwDFCMUIxQgZIANkgAyQATJABsgAGWgXBgISI8nJyVixYkW7FJiKtuMpWrYJ24QMkAEyQAbIABkgA2QgEAYCEiOBXIjHEFAyQAbIABkgA2SADJABMkAGRAYoRjglxxkuMkAGyAAZIANkgAyQATLQLgxQjBC8dgFPVMR8zyckZIAMkAEyQAbIABnongxQjFCMUIyQATJABsgAGSADZIAMkIF2YYBihOC1C3h8+tE9n36w3dnuZIAMkAEyQAbIgMhAQGIkKSkJixYtohNLIUMGyAAZIANkgAyQATJABshAwAwEJEZSU1ORlpYW8EVFNcT3VMdkgAyQATJABsgAGSADZKB7MkAxQiVLUUkGyAAZIANkgAyQATJABtqFAYoRgtcu4PHpR/d8+sF2Z7uTATJABsgAGSADIgMUIxQjFCNkgAyQATJABsgAGSADZKBdGAhIjEyYMAEzZ85slwKLSorvqazJABkgA2SADJABMkAGyEDnZSAgMcIGb/kGD4lbgG3HspCTm4vcoyswiuqcYpcMkAEyQAbIABkgA2SgizNAMeKIgnN5Oo6cy0auJAQunMKBjfMR26vlBYdHERcyE1vO5iL37H6sS12I5SsXUIx08Y7nkQXWmzcdMkAGyAAZIANkoBsx0M3FSBTmpZ9Fbu5ZHNm4DAsXLsTyTUdwNjcXZ3fMwaA2AiF4znbk5GZjx5xe7HxtZHOKgTYU22xT9msyQAbIABkgA2TAAwPdWoyEzNyCs7k5OLAsDr10A4Vg4trjyM3NwpaZbSEOgjBs2SHk5h7DqrF0ECkSyAAZIANkgAyQATJABroPA91YjIRiXnoOcrO2YKZ1SVbkYuzLzcW5TdPbQMUGYdwaSfxQjHDg6T4DD9uabU0GyAAZIANkgAxIDAQkRrrEDuxBU7EhMxcX9/yGfvqsiApF0DisOZ6L3GOrMNb6nfB/8Lx0RUSMj8OCbceQlWM5JiQOCzYdxMmsHDkeJSfrpCkeJWjcGhyX4lQsf8dWjdVFUJRzOdKPnEO2/JsLOHskHcuSBunfOxyqmLm4A3OinFi957T824s75ui/kYLjNx08qZQvNwdZJw9g4/xYYTbIAb0uYyMwdtE2PYZGKvOeZQkIF+qtDB69EDNdKtsZ9by5kOu3PFG/rsMRgrgFm3DwpBqYn5OFkwc2Yn6sZcYpyonl6UdwRrVT7oWzOLI5BTFu12Sn5cBNBsgAGSADZIAMkIGuxED3FSPB85Cem4vT6ycLzrMGdzDmpeciN3sbZntxiBUH/gQOHjyB3UtGmx32kIlYfSwHuTknsWt1qhyPkrpuH87k5CLnwO8YIZ23/3jMXrgQK3ZlIjf3NHYuX4iFCxcgeVw/uUxR89KV+JUjG7FsofTdcmw7IQXan8Gm6ZpDr4mRwzi4/zDWT4s2iYyQiatxTLrmyV1YnSqdIxXr9p1BjrQ87fcRet21uuxMP4as41v1620/KQmpHOxaqJRJgT8EE1cfkzN/XTiRrp53IVJX78TRzbPVc2q/ycHJXauRKpU/dR32nZFscgC/j1BtrQbv52Tuk4P3lbidgzh12LsQ7EqdkHXR+h1fyQIZIANkgAyQge7GQLcVI9qshDgLYTS+Kkak2YYmxUgusrbMNAkAfbYi9xjWjNdEg9K5ohbsQlbuOWyarnU2D8u0IuchPSsXWenzzYH0IROx9nguLh74XZ050I6/iEPLDHEh10Wf4VmD8aalaFFYsCsLuec2YbpaP0WM5CLn6Crzb6MWY1+OeD0HlFgb70H+un3XjDfbJmoBdmUZS+CU4P2LSJ9vtlOv8HDzcV7awWg3zaZ8pU3IABkgA2SADJABMtAZGKAYEZZEGQ3mjxhxd6Qd3paAhS7ArtxcGCJIExPmmJHIxfvk2ZL1k60dKQgT12YgVxdK2vEnsGa8+bdBUzcgM/ci9vwmzmoovwldsMsUp6KIEbu6DMOyQ7nIPbEG42VB4CXWRhcMQZi6IRO5F/fgt37mMjkcoViwy1jOFjRpHU7J2cvmI9okmKzH8X+DT9qCtiADZIAMkAEyQAa6BgPdVow41CD1E2vG60uVDKhVMSLMHBjfGQ2vLW2yigCHugTMGgsi/m/EdGhiQhQj2mfu8STGObTfq7+9mI75Fmdem+0wjrGe7yJ2zFHqo/xWO6dRR4fDIszU2RbbWBtdjKjHWGJhTOXQxVQUkjedUGJi5D1eUjF1eLhNm4hl4ns7HvkZuSADZIAMkAEyQAY6GwMBiZGYmBjExcV1bocxeA62S8uP0ue7LwcKGoNVx8xLk+wa1qMDr4qRM7tWyrEiUhyE9W/B1OGq/TThIQoB7bMj2LjI/Vj5XAuSMU6eddDEiPuSMqV8Z7BrpYdzLFyAqcOVTuuxLp7EiJ3drGLkzC6stKm7Uv6pGK7/3oHwEbOwfNtBnM6WBNMFHF5hWd4l/NauLfgZB18yQAbIABkgA2SADHQ+BgISI12joSOxeF8uck+vx2Sro6vOmpz8M8Gr4PLowAfPxJYsD5m6rNfSsmGZUvtqe4+chvsyLStkXsTIzC3I8rBMy9qGHuviJkbUZVteZ42CMXNLlodlWtbyW/6PGIs/9maZlpBZy8r/LTZzY4rfkxEyQAbIABkgA2SgczDQjcWIA5G/7ZGzSu35TUyVq256ePEQlmkZnzw4e54d+BAkb1UcamsAu3vH0GZBxJkRB4JGrsDhXJsAdreyeBYjjpBkbM2S4jOsAezucHqui2WZlsOBqMX7ZLsdXeV59iIkeSuypNgYawC7tfzh4eYsZA4HlHgWMcjfvbzuduRvaBMyQAbIABkgA2SADHQ2Brq1GHEEjcMqOf1uJg5tXCYvpVq+TYpfyIE3R1trZM8OvAOOqHlIP5uL3Bzj3NLypOXrd+Lgqa1Cli57MSLt0WGXPndh6mps2nsMB1doe5F4ESOScFDTA+dkHsLGZdpyreVYv/MgTm019iLxXBd3MeJwRGFe+lk55W/mIS3tsFS3vUJqX/vfLFy+HjsPnsJWIVblwqkDRtm09L8n12OyJQZGsztfOdCSATJABsgAGSADZKBrMNC9xYj0lF7amHDbEZyTYxVyceHsEWxdaNkzxPo0X/3fswOvwNErZrq8mZ927tycLGSeOICNqROFdL2exIh0DmkDQmHTwNxcXDh3GkfSVyFZ3zjQuxhxOLTNCbWNE6XNCTNx4sBGpE40ZoQ818VOjDjg6BWD6cvTceSMuqFh7gWck+o2V4uFEX5zTtobRYoFyUFW5gkc2JiKiYMUGwXF/2bZODETR7Ya33Og6RoDDduR7UgGyAAZIANkgAzYMRCQGOnfvz+ioqK8xlPYXYyfEUIyQAbIABkgA2SADJABMkAGNAYCEiOpqalIS0ujGPEwY6IZl6/saGSADJABMkAGyAAZIANkwDMDFCMUFBSVZIAMkAEyQAbIABkgA2SgXRigGCF47QIenxB4fkJA29A2ZIAMkAEyQAbIQHdhgGKEYoRihAyQATJABsgAGSADZIAMtAsDFCMEr13A6y5qn/Xkky0yQAbIABkgA2SADHhmICAxEhYWhoiICDqxFDJkgAyQATJABsgAGSADZIAMBMxAQGKE6s6zuqNtaBsyQAbIABkgA2SADJABMuAbAxQjVLIBK1l2Mt86Ge1EO5EBMkAGyAAZIANkwJ4BihGKEYoRMkAGyAAZIANkgAyQATLQLgxQjBC8dgGPTwfsnw7QLrQLGSADXYOBYAyKd8KZNBExYZY2DR6EeKcTSRNjEMZ7MO/BZKDbMxCQGImLi0NiYmK3N17XuGFYbhIcFDoY1wMQMmwCevViO7G/kQEy0PEZCI5ZhvNPvqCstgEulwuuhq+4PN9S7oFn8Eb6Tvqrq8SXf/KwZWJYBxt7LWXmvZHtQwZajYGAxEhqairS0tJarVC84XAQDJSBoAVPkZJfg5T8zxgZ39ntGI8hu37K9Zl97iGi+gdQn+DDGC/bowZT1yxkn+XNhAxIDKzaiZ+uu3C5CvB0z0DapIl+sep2PlySvcoPYs8IT+NQEAatu4bP1arIkIVINSrKXuNCsuWYAcfxrLwc1fXCb+u/4376KLZFE20R6L2Rx1kYpJ07VF+jGOksQA47gLgdjxC/4zoGD+2gnaoDlLFLiRFBSKTklyN+dgDtLpyjJcVIyKhpOPfoLH5W3UKj7NTdRk3ZBbzIT0Z8aADlbKof9o7Fjrx9eFtcgNpGyYm8C1fjTVT+vIAX1xZhbnRwOw2sI5D5+oZSHtkOatns3n/ZiGlN1bMrfZ+8DPeeH8Hz59uxb0wrMGGxVcioSTh+4yg+/7yBeo2Rhr9Q8eM07mfNNHNJMeJXf/FFjPRKOoPXmhCpLcbjjMXuy7MsbeYIHoK5h27jU6U6i1L3GZcXc4aEwqH1xwvauGPZmGLEOjh21P/HFyCpoz/x7wBl7FJixNExZ0ail23A28o7Hh3w2o8bkdqv5Qa66GXr8brC8/UkYdJQuh/74ttDkFCMeLyp6w7/eeRPazke3K/XEwn79qK41hsjd1D9Ps3gUi8bZ0bc7eneVk2KkZ4JOPO6Vl125b+gEIVM7bvzSOqo92GWyy8R6wtb/I17f+uONqEY6SyDSwdw9JvsIB2gjF1LjEiDVDNjRlp6ZmTgDBQW3ZKFSGP1ORTuGIHIng44eg/F+ksZqJCfSN9Byb3ZGNICfStkxiq80oRPQwHeXJmL2aMi0NPhQO8RE3DgznlUN95B2YvlmNuCAqhJ1vW6GWKkqHAGnM44z38T+iNUP64b3IB0h791xUj0xp0orldmpBqrL+DR6WmYEt0TDkdPRE2ZhZwXl1DvKsSXv2ZhpMSq1AZ62ShGfGG9KTEStuQvFMsxIPX4kJMUgMPaEwlnXqNWOkdjOR5u4+yIL+3C33SDcbSb3DMCEiPJyclYsWJFAAMOwQl48OgAjn6TZe8AZex6YqSZfaaFxcjYo8dQKS+RysO9Tf0sY0BvbLidiwbp+7rTyEpsZtkdQ3D4+VVlGVjtWVxZ0V8WIWYOQzEnbSYSW2NpmE83AUOMfMmPs9ijufXv5MfrDn8ripGQSbj6VRXHZYdwOFESIRa7hQzHqrTxiNaECMWIu42sNrP8712MhGLetW/KrEjNvzgW6DLiPlvxsFyKIWlE+f1NfpfRrd0tdeD3ln5B+5CxDsRAQGKky3RqzXm+9AbDhg5E/z+eYcqFCiUAOu8XnIfvYEhcuBlYwblTAqW/IHaCA46oTYjdX4RZeVLwdBVmZb5BXPIY87Fyww9An8V3MSnzF2argcXJ5z9g/MotCLNmTNLKp/5OuZ50fvc/T/EAPeIzMObIV8zMVY9R6zV0cgKCvYAoHTdq/wdMz65Sr1eFWec+YOKG4+gTLgxq7VTG4FHHMeaIZu8aSDaMX5iM4JYMYB+Wg0myrasxadkkm7Z0ICj5PmbJv/mOUVMEu8i2jUDYzFyMP/4TyWqbzc4uwqTNFhsK7WCIKUsbZ1xGH+F3bn0wJAXRW97CqbXXxZ+Ysv0oeoe2ZAD7IBx8fk2ZFfmyEbNE504r26w/8aFWekp9A/9lROs2m5J5EtWSSCndjfUTp+DCsxxU1ivLahpq8vCucKG7oNDPdQfFhVPRT7uGL6/Ld6BEixuQlnHVXMXPbydw1xo7IJwroDI6AhMjU06dQKVcvut4mTHMIrL6I/3xFVWEnUJWkvvys97ORfjr9UWUa0uTGm+i/NtRXNs7zux0C/WTmJFjfe6fQnF5oRrrI9nmMr79l47jv1nE3pSVeF0ttaXd7IETt38qsxHlTxdihHYdXYAo38mxPXbxM667sBdvPTFq9Wo8+piPKpUPV8NfKHm3B1nro91mlgZu3Ysyj3a09kfhf72cBXi6fyJ23spEmWrLxroCfHu2Br/bxiENQ8Z/QoyQFLdUnouPTzZh71yL/TSbODRb3cS7rFgk7EzH+zLV/nK7HcL53z0cGzIMO2+cxPdKNTZLtsV27EkcqZfDZH/9mv7ZURlPeiJh5za8/n5Njbm5jZqSDFxeNxBrvAWw95yE3E9KIHrdfxkYqpdBsLdPn/XFzr8rZFHT8K0Ai306xt9r8Pdu9w7aWb9P0Tbt1z8oRmQn8TNGp/2riwOTs5/3ESMnCILETYxUY9z8WRh+RHPaBScy7w2GjRQb14gBMF1Dc1SPX0Y/UZA0y9EPQuiCp5ihntv9eqUYN89OLPVGvzUfdOfZ/bgapGT9jcGD1Hq1QxmDEwowVRZ9gq3lepZizJaWzKY1EkMPqNc4fN4mH34PDNr2SxFrmdfR3zSo90a/Pz/ZMyWVVbShcFxAYiRkGWIzbPjLr8GMLXdbMJvWVBSWKAKi9N5MDBLKbQziibhadFsWLOJvdEe//Bju/nNZd4QNZ/UOyp78hnhB4CRknFAETGMW8me5O+TGNcU+prwPWb8bZR6c4Nqi3dhtE18SSBkdAYoRhzjrU3UcGQlG/cYePqIsd2u8jCf7oy1CxQFxWZJhP835L8TH/Em2wi16Yzq+aeLFzjbW67W5GOmJGWcyVJGm1Ud4tZbP4cDywjyFJa9Zntz5EJdpvX6Wqcz2WWxiH/sUh3Nv/7KPl2q8htcXJtrYXhMjd/Hl0S5VrAv1kq5bexb5qcJ9RupbIaNx5tV1m75yF3Wf9uDOO0UUuYsR/+0oLWnzaPvak3j03Es2rd4bcO+nJEYa8PXy/GY4dkEYnvVOmWGpfYq9tuOLTVvyd82wOe3p7T7C79qOD4oR2Yn9hVnZpUhcuQEh8lP/AYiYfUt3eGcfPo8I64AXtASxJxVHderW+5h0/h8MHR8jzzb0mHxNP3bK6jnqQBGE0KX/6c7pjEM3MDhhKsLHpGHYziL9c+d6D8vfdKffx5S1A05houqwzzh4GYNGRMrlCO6fihjtenn/INqSLjY4+b4uYGaf+w9xv61Hn2FTEZ6YjhE7vqoipRQJS7V6CbC2RRmDBOGX9xGjkp3oIbVNxHQM+vM1nNmqOGiR1L5BCFmiitRL/yLGYitHcDrGZisMWNstOOkWpqlCcPbpxxiaNA/hw5djcNprw757T6CXlSvT/8Ho++cXRex4nBkJQsSKtyo/VZiycQfCdYYLkJj5S525aYHUvgPn4nG54kTZP9WWWDBmCiqeLUacWh/d0W+8hbraK3hzYzGWzYrDnDUr8bhYe0psFh0BO5rSDEBUNKZq8RtzpmNvxjoUvrigO7ruDpwDgZRRrK/HmBFPsSLR8/D4lyLuat+uQZIkxMam4rkcrO8uzuQb48A5eFCmHlO0H6f/GCTPFoREjcV+OX5GyjKWjRupoWYHRT/vXbik2Jtby5A2Lw7OOdNx+Oox/JBFyh1UvFyB6doGdYGIEZFfffbBx2VawkxYxbvN2DpJjQ2aMFON+7gLV9UxHNUzcwmzFP5mKtPLdhM11Zfw4twUxElL/XoPxc67F1EvCxO7GaFQjJhkxAUt3vo7sgr24V2pynDdOeQvsthenxm5i4a6QlR+O4gLW8bB6UzE7mun1Diru7AyqYtSlxQTtRp/xElL0EIxYf06vCj5C3XqzJH1OIffdhS5u4vGsqM4p3LVW7b9RVTWKA8YbFP76nuG1OG/jKFm7kQefHgfefgfJW6k/jPyrOmAfTiezqNwP6a9msUiWWpblihGVIdx5rZ0y7KlIESs+qA4gvIyLkvDCGIkJb8Io6YIT7WE72Zu3aZ0iKCpGH5EfcqeUWCeAXGMw9AD6pPtC/cw0G4Q8cvRD0L4infqE/tCRIqzLdK5g2ZhxDGpLNWYuGSY0WHFMmbewgBxOZZcpiCEzr6IoYmKsHHrrG1RRn3pVCUmLrHO7IxEzH5thsBH0WZna/EzXdRZbCX9JukWpsv8WK8lzJhkP8UQbRZJPm9vRG4q9syVeG2HD2JEaLPZ+09ZlrEIYiq/BcSIV+dU6x89sf7eZeXJseAg6o6+6ybeZ8eZnvaHLNuK4gZJ5JidP32dunAeN+ZM9tLK4Om1J+bnnkWt5GjaPEkPpIyiGHGfpVCffnspvzHLUYi3WUk4osbINJbsxqYh7vWIPXhEeYpvmU1R7DIER19cl23/vXAyegu2WXw1W4nlabyIW2vdlwSFzEjFpczJ5iVeXtvbeNrv5gxr19Udft/EiFbGxuLtWG5NRhAyBdeLJYdYXP5nCF+PZdDKYn3Vy3YXPx+mmJMt+CS6LW2jC8s7+JI/xsS3QxAjrp97sdnUrkabuUycCEsibexhLE9zFzH+29EBnavGiyhcLtzLJLsJAtiu3zh0MVKLp3stdrHavYn/I9beQam8P4nNRolNHNu8saF55ea1aT8y0DwGKEZkZ7Ia4xdaBmBp4BMc3/g5FkMLgiPlZAH6NjVQCsu77OI7ghc9VxxUT0/0/XL0e2DIbkX4TEtba4gNvYzBiNz0Q76e6Xu9jNWYvGK6zXEWG+jnUz9vgzLqy5jsBKIjCCFL//NuR2uZm/y/D4bsVgXO/lPCTIZhw5SjOeaZM4GN5J0HLCLXAUfCNThV7sbN82ZTH8SI0Ga2cS0DMpGgCm477vwaQL06p1o9mhIjNo6pfl5zHEGLiJGQPoifqj3JHoFRm3apm925l8MQI+7fOTyUsblixOHoj4231SfxjbfRIMU/1GWh4Heb8cjhgGaT6v+WId6G3Tm551Dnugvz94bTXvf+T0wTlsJ5bX+9zmaRqBzT0mLEKKNVSCnX643tjwssQss4JnAxEmDd5Gxuw43MaRMm4qy634x7WbzbSmtTs6NvHCMud9TbSxBM5usZNvHdjgZXckyX6eGJ1K8N25vLqPZ5ihH/75U2fVdvW35He3ZDBgISI0lJSVi0aFHnB0Z3nqth6xQKjp7b94LDOXvngaZt0dS1fP7e+hRecwKFV6FstjEfqnMqfWcqe1NlaKqD6Me3Xhl10Xbpbwy2KY8uVjyJOptjmroJBKc8VJY6icvagtZj9DlldslNuOnceJiNaOp7vYw+iJHQ45jgTdj4fC2BH/36ls9iF+N5pfS0/w4+5cZ6YN5whkSHOBBHvznLtKQA79vvrxgbJFriAVwud8ERSBlFMeJ56ZrFjlb7CumSXS7PMR/itTzOwmj1ND1lNxxbs+PaRLnaVIwYZWyqbkYdWmKZlp9iJCQKq7MPo0gLKNfsLbwa5dPsa9TN/TtBCIizdSEzca/M25JIT+c0PvfdjvYPEMRx0V4wqfXTxfM2neYAACAASURBVEjzl2kNOPUKDdLMCJdpeRhfNab4KvLJ952fh4DESGpqKtLS0jp/Z9Gd544kRirhNgsjOS96Wf1z9Gdnl2D62R8e/r5j8lohRkW/hgd7WJ0o6//68a1VRmHmow3FiCN0N+Ll2JBKTPhNXdY2+S8lJuTSOww3JSlwwNGUABC+N2KK7AYTH8SIPvPhoc2EazV7ZkRYbmL/1FWqgxHA/uvveXpmnUAcfT2A3XURhUut6/Dt7KV8FrJ0E77ogdq3UVNRgPJy9a9SyyLVgcSIKVDZNzHSWHfdqJNWN+H1x5MlGKP3T8NBtXOGPd7I20mMSJnP9PYS6qR99v5Kor4ETRes1SeQEe+ZCbc66su0/BEjQ3DgqZrlzHUX5ja4qmf/crexd/vbOvrCzIe9yPV0TuNz3+0ozHyYRKxhT9syanxFrMWdUiWA/VvB4mb4BT0xKfcTA9g1u/K1GSwZ7Lr1fdq1Q9qVYkR9qmy7TMuboyfMPphmFzyB3oRTqD/x9/RE3x9H32Es03KPhfHSSYUyWgOyferQbVBGfebDLqC8VZZpSfYyYkCUZVfB6J+mxn3YZdkS2GjLZVqm+B+NQ51hD7M02u98ehXWsXtK7as7sFIa0+H6oBeIGBEDcX1P7WuUsa5oJ7bHW/ad0J3QjiJGhDgW7em6D8u0/FpuJSQVaCzaitTeXsYAkQO9Lf1x2IVze7G1+3hizKi5xXCIZbK8N2In7FIkC2WxHCdm03q6Z6DOqVIuw6E3CYvFm1Gkxja9PJNgjq8RbGw6Rr6uh/OpZbJ39I1jbIW/IFbM1wvMjnoZvm/HUjc+BLEizt5oNg0ajqx3LZvat/5zHpK18/PVwqcXrmkr2qqTMkAxoi5ZcnfaxexXHzFitGUAEBxOn8SIEGickmkNKvchgH3sZUxVhVPCUmvgtqVsklOuZYGypib2CqoQAO7Xcer126KM+jXaKIBdtZe+n0ju3xgcomVSswlql39viJeUvH8RY1qD3dIB7PMxMkOJD2r1AHaHA8amhzaBro6eWHr1gpKJqC4T2dOMdLUBiRHBwXPZpHV1d2glDifgsroJnvsTZdHx7xhixAhgv46Xp2birJrKtbHsAHaPsPZrB3Tn22d7KOeYlX1GCdz3ugzMcj1djHhLOuAeQK23i77Xyw28Oj3CEtRtuZbDAb2MdmluPY1bA2fh9nc105M/x+lCyXehNWzvIVRIgtHOIdcD2O3sYQgLs3BQbKALAdN5jSVodgH9Ogcu9+sFYkd9FjKQAHYHNz3UmffEKT+nSCADXhmgGFHFyKzsIo+pfd0ClCWo/BUjDlHc1MDv1L5BqzHqjOJ0puR9w7gV29FPSrkrp93dgeiUJUJwtZSjPh1jz6u/v/gF8b+vR5+BRhasHoOmIjxaSUUsDqRiat+UvB9I2HAWg6QUxOq1+s067n4trZO1RRn1TGA1SLn4HnGtmtpXcJj0GJEyjF15DUkSN2IMiWYD9bVNU/tqWd/yKzB5Qyum9pXqJjh/jRWnUbB1BCKlgOjeQ7H+UoaapvQOyv5eYGyE5xDS5trEangODncgZMYqvKpUUtm6Gq/h44M12DI7SrmmGkS8ePcGXDkery7dMZw4aWZkp5oeNiRqJNJyjqK0PA/F5ZLzmoPCNcZ5pD7QXMHkMbWvlmLYmuI3Ohm3i5Xdw6teLkNCT7G+HlL7CjuOyyl6pRTJU/rrWdR6jxgO52RzveT+Lab2dd3GrzfpyNw5FbPUss1ZswgZpxdhyWCBeWHJnas2B08vpGCeMw6Ld2/Cy1Kl3FJcQsW/yzEj0hCe+ngiZmGSjs9dKKdzdjqllM6LkLE30Rz3JZSxsfoCnlxIwexRSnpfaR+MqPiRcFpt6LDsu1Kbh3+viTaRjhuLNRmbkbtFmAEJQIw4dHFVgJdZaipgRyhGLFiMO1+uo6w4V94Xp+LfFZgbLc7IBSJGBOHvuo3SZ6vMqX2Lr6FGnqVxFyNGeui78NmOY5fihRwPdhcNpYdxxp/Uvg4Hwpb8hWIp1sNVjw85SV6dDp0P05jZEwlnXitpfRvLcX+TyCHf29uMdqFdug4DAYmRrhjAPmGrsb+GKejbNEMgrOFXRYzpt02mT/Vz00PTYN3EJoY2+1AEJ+QgMUtLdasKE7HcNsdImVP6rXiF6babCqrnOFuISFPZtA7RNmX0uunhHwWKUPC03M223Fr5vb0KS7NUG872uk9IAJseCsvkrFxZ/zfFf3jb9HBzlrEfzpqFATgJ7jaJXrsFn6pVgaAtLRJea79sR9pIs3MamKOvXDt67WZ80ASJcB0xQLdRWDZm7M+gptbVj7mDknvLcFHNeqQcb8yQBFZGY1mMWB7b96b1+MIu65Y0vcbu7AV4dsB908OQGX/g6Q8t9sVaRw9P7iWnvUk7usfmGGUxX6f27TZcfyPsRG4nMr1tpCe1ickePra1zTHyhn0nDql7pZjLKbaDaVYiEDEiCkGdKfV6taeQdVTL1KZ8ZlwvMDHibdPD2jf78fyn9TpGX22yrd3s6H3Tw2tXTyobkJpmb4zrOXom4MzrWiXeo+4zLi8O82us6ZV0Bq+rlaVete/OIyngcVooE8/hVxvQsSc77clAQGKkPQvcotfWYxyk4N8I9F70CFMuVCipYfN+wXn4DqLHGrMJDnHfB9GpF96bnETbwXAA+iy+i0mZv/SN6mad+4DxK7cgzLofiNvxQQiddA5jjnzF9GxBZOT9wvSzd+x3xJY2A1z1CJNOlWCWKDAu/vR8jMOBHiN3YsSOt0jK0sqpCBE5IP7UXxjgVjatI7dNGXvEZ2DMkSK9TsnnPyB+YTKC9WVcPgTRe6yDVhfLqxa0Lrd3JcbNs0+/ajAagbCZuRh//Ke+o33y+a+YtPk4+rjt4WIOfLeKD+v/bpxFLETMlrdwalxc/Ikp24+id4ixjMvtGH/rL/w+ZNQ0nHt0Fj+rbqk7RN9GTdkFvMhPRry0eZzwW+l9YI6+cJ7esdiRtw9vi6/ogcKSoykF6f74eAS3zzgxUk9Z2xMJO7fh9fdrqJdS5bruoK4yD6+vSGWziof2ESOGk28X6zAEh9X9RlySk5tkFnaybaWZqKw9bvZwNfyFivKTuDBFsJ3QFvLmiNeO4nPpNXOmMfm4LBT+2cfSdqFw7k3H+zJV/DT8hZLXG7FuZCwyPYg6c9v3RMLm9XjyMR+VelIBaePFv1DxbTe2DXUvp6cyygHjHo6RrhkyahKO37DWTWr7y/j2dj+u7B5t7I4eiBiR7Bg9BWcfnUWZVpeGv1D2aR8yfuuPnvo5rSIhQDEiXa93LPb+dRLftexduv2n47YqRr4VjLVdAue/HaW23i70m9uoKcnA5XUDMSnjhHcx4nBAFBSums+4e3Ae+gvsmblQ2z2oH2bsu41PlQ0BCxnb8zZ1XX5v6efu/ZB2pU3akgGKEdmx9JCJiANWJxywwhHcpKjrXoNMcK+mRFN3skdP9BsQZuu8teXA2/mvRTu6tWHv3hhgI8TdftcS9xUhnkdMFNEq15LKGxKCcF3sexovgjBo3TV8Vmc4XNKyrboqlJe9xgXrbuoDjuNZeTkqalURIqfz/Y776aM64T3Hkz34eavx2BJ9iOfoUH2NYoRipEMBycGLNzAyQAbIgDcGxI0ys3Ej1fe0121h1+CYZTj/5AvK65VlV64Gm93U9b1JXHA1VOHbP3nYMtG/pV1tURdewxuH/I58tBwDFCMUIxQjfEJCBsgAGehoDIT0QfzUOHWX93is2bsMp7M24+G7S/oSOy3xQYd0ioJ6Y0SiE86kiYgJszgtwYMQ73QiaWIMwjqa3VkejgVkoM0ZoBihGGlz6DrkjZODDzkgA2SgIzGgL8VSYlDEYHwpDqr62y7sjreJJ+pIdWBZ2KfIABnwgYGAxEhycjJWrBB27vbhQh3SATUFsFue3HTWOrHc7PhkgAyQgc7PgEmM3EZNRQHKy/OVYPy94yybLvL+1SF9DPbDzt8P2YZt0oYBiZHU1FSkpaW1SQE5wPAmQwbIABkgA2SADJABMkAGuiYDFCNUvRSVZIAMkAEyQAbIABkgA2SgXRigGCF47QIen250zacbbFe2KxkgA2SADJABMuAPAxQjFCMUI2SADJABMkAGyAAZIANkoF0YCEiMxMXFITExsV0K7I/S4m+pzMkAGSADZIAMkAEyQAbIQMdlICAxwgbtuA3KtmHbkAEyQAbIABkgA2SADHQWBihGOCXHGS4yQAbIABkgA2SADJABMtAuDFCM2IIXgWHSzrFOJxKGhrdLw3QWNcty8skLGSADZIAMkAEyQAbIQKAMUIyYxEgQxh94jO81DXC5XMpf4wscNf2GsAUKG48jO2SADJABMkAGyAAZIAMiAwGJkbCwMERERHS5GYPg32+guEEVIQ01qCgvx6/PV7GMYqTLtbXYCfiegyIZIANkgAyQATJABtqHgYDESNfcgT0Ymx6UK7Mh1f8hY2z7NAg7Au1OBsgAGSADZIAMkAEy0F0YoBjRZz164MRLZVak8e05DNc/Z2foLp2B9STrZIAMkAEyQAbIABloWwYoRnTR0QNHX6ixIkVXMV//vG0bhB2A9iYDZIAMkAEyQAbIABnoLgxQjOiiIwjO/C/qMq3H2Kl/zs7QXToD60nWyQAZIANkgAyQATLQtgxQjAiio8eeJ6iRs2h9x40lbdsQBJ/2JgNkgAyQATJABsgAGehuDAQkRvr374+oqKgul2EpeOUtlFKMdLl27W6dmvXljYwMkAEyQAbIABnoLAwEJEY6S+V8L+cAjF19Bi9+qjEj1S9wdDgh9t1+tBVtRQbIABkgA2SADJABMuA/A91ejAT/Xogf6gaHdVXl+PbyBg6kcNd1dib/OxNtRpuRATJABsgAGSADZMA/BihGFt1AMcUIl2YJsUMcRPwbRGgv2osMkAEyQAbIABkIlIFuL0Y0ww2cuQ+FH6uUbFqVz3GIy7QoUChQyAAZIANkgAyQATJABlqVgYDESExMDOLi4lq1YJpIaMtXBrBT1bclb7wWeSMDZIAMkAEyQAa6OwMBiZHU1FSkpaV1OTHC1L4cELr7gMD6sw+QATJABsgAGSADbckAxYg+9SZselj/HAf1zwlkWwLJa5E3MkAGyAAZIANkgAx0HwYoRnTR0QNHX6ipfYuuYr7+efeBgR2fbU0GyAAZIANkgAyQATLQlgxQjOiiowdOvHTJAeyNb89huP45gWxLIHkt8kYGyAAZIANkgAyQge7DAMWILjqCselBuZJNq/op9oZ3HwjY4dnWZIAMkAEyQAbIABkgA+3BQEBipD0K2hbXDF53F2XaniM/3uH58+d4fvswpuiChZC2RTvwGuSMDJABMkAGyAAZIAPdgwGKEZPQ6I2V+R9RpQoSl/TKYPYulzWNg1v3GNzYzmxnMkAGyAAZIAMdnwGKEZMYURosYtgcbD5yGqdPn8aRTdMxwOY3hLvjw802YhuRATJABsgAGSADZKBjM0AxQqHBmQ8yQAbIABkgA2SADJABMtAuDFCMELx2AY9PKTr2Uwq2D9uHDJABMkAGyAAZaAsGAhIjEyZMwMyZM+nEUsiQATJABsgAGSADZIAMkAEyEDADAYmR1NRUpKWlBXzRtlBZvAbVPBkgA2SADJABMkAGyAAZ6NgMUIxQyVJUkgEyQAbIABkgA2SADJCBdmGAYoTgtQt4fErRsZ9SsH3YPmSADJABMkAGyEBbMEAxQjFCMUIGyAAZIANkgAyQATJABtqFgYDESFJSEhYtWtQuBW4LhcZr8EkAGSADZIAMkAEyQAbIABlofQYCEiNsmNZvGNqYNiYDZIAMkAEyQAbIABno6gxQjKhTcsnJyVixYgVnezhFSQbIABkgA/4z0GsIxjudmDpuMEJpP//tR5vRZmQAfWMnw+mchNh+wRYe+iJ2shPOSbHoF+yHOOsbi8lOJybF9kNwB7YvxYjaOExX7AfcHRjorv70gPUjp2SgIzHQC3F/5uL511+obXTB5XKh9v0FzOhQY2QwgiMTEBbZx+LcdCQ7sizs192Ygb6zcOj2W/yoqpfHEJerDA+3Rln662Y8qFDGGFd9NX68KcShuYOaFhibH6DCpRxXX/0DbwoPYe4gq9Bpf9tTjFCMWIBvfyg5KHfkNjiA5/XKwFZyayWfADfldB54jnr5RlCCWytD2deaspe/38f9hmcVd+Fy3cB/J4e3rX17jMC2m99Qo97oJSFSX12BkhenkeRvPWx+38N5C9Pya5CSX4rR0wIdE4LRa/otOC/VIOXST0xcMqNtbWRTL47vgbYlj+uK7ITOzcS/ZQ2qCHHB1ViLyvIvuLl+oKWvrkNhUTkqaxuF35bjZeZsRHjrZ+sKUVReqT8skcapxvKXyJwdYTl/+/JFMaI2YtedGYnE/EPX8fTjD1TVqara1YCailJ8/jsXG5P6IsgbyK343cKCb2gQbuRSJ7H/e4VTfdq3o7TtILgS2U+f4/nz58jfGNb6A0Z4Atacv40338pR06C1QT2qy4vw6uYJLB0iPkWhGPGLBa9iJAQxs9bj0IWruP3wCZ49e4Znz57g4e2ryNq9BLEhLcV8FPY/uwqXS3Lavf1dws1lLXXNNjpPu4mRCMzNeacKkUZUf7mHw/OaWJ4VOg/RGx8hfsd9jJwxpsl+3TJiZAAGbCpCiixqajBrXwbCWnFM96tvsBwGAyk7MaH4MZw+/I3aKY7HbdTPWqCtQrfuRdyNDMTlLEdokD/lHoioe48M2/y7G739WabUAmVvNa6Hp+NBiSpE6svwKm8Dxrstz7Laqi8mbb6El6V1ir/UWIqHO0Y0PUPSdxI2X3qJUtUPbCx9iB0jOg5LAYmRrhhf0SXFyOiNuPm51oODrzqd9UUo/DOyXQQJxYh1kNH+Nxz+V6dad2lFeHIm/v2lTQ1rQsT82lD5Eqcm91BvnEbZODOitZeXV09ipO9kpJ29hSeyAJFEiPvf4yu7MaO3l3P7fJOlGGlpZyJsVg7eqzf16nfZmBvqQztFbMDoTGmmowKJvzc9Q9EyYoQzIy3d9q1yvm4gRiLOXlEEhb9iImw5Rn0VhVouohOCDCHn8zjoQx9t03MNxvYHP5UHsr4KCrF8gpBp/H4Tq/v7Vr/h6Q9QIj90bMT3m6vRXzxnO74PSIx0Rcc9Li4OiYmJXQBwFcjwpbj6VXMy61H6Igt/ThmO3tITichRWH7yKUrqXWj4/gi7EjRH0zeYW2ow1sXIuzykOJ1wevwbi4Fd5UmIT53dcPhbVYyMPoTn5eqUb0MlPt48gMXxA+UnLOExydh17R0qGl2oepeD3/ppg79RNooRH/qLBzEy5PeTuP1UEiBP8fCv8zi4fgEmjxmDCTOXYdeFO3gqi5PbyFhinar34ZpujAUjctQIOJ1x6t8s3CpWlja9zZX6nfb5cAyPCOT87XhMu8yMRGLtnRLlIU/Na5xO8LH+7SJGpLIxZqSl7lmtdh5djJzD4EmjEJrg+a+Xj05nq5XVbXzxjf+Axci6o5gizRj9uxdDCx/IgmbsocGd31dLyMTrGuXBX8mdNQGJgsHbH+CnLCzq8DpzXNOzI3LbCSKo7jUyx3WM2RGKkQA7Vkfr6NbyTMv+gDp52VMVXp2dgb4206KRKzZjbXT7gaiLkVen0KeLtoO1XXz733D4W0+MhGPbw3I0Sow0fMedjdE2A1k4UtanwdlXEyLSTccoG8WIDzdhD2LE4QjBmDXHcTp9NqJ6WM4zfDXO3lNmSm7sndoKN90xuPKtneIsWrqft4cY6bsct74rTkTFkz0Y7Gud2k2MWPjytbz8XSv0PQ9toYuRTAy0jgddpB0CFSN9c/+SBcikS3PR80CWMrvyYAN62fg0vt1fPbRBG9t5bMZ/qJbuv42fcTkl0OXYC5H/RXnoXPfqJGJ9rcPCfHyRYz/r8OpkbNtx7qV8FCNejNOZwDaXdQUKS5Qn3g0fcjDFr8FtL57UCst06qtRXvoZ/xRaYweEDr2wAN9kdf4VBbPHYePV1yit1tZBVqPo1SVssBE9AYmRhZfxVQ2g/vVoOwZYBqTRp1/rIuzZgUHuy88i5+Pkg4/4UaWut5TiZ8o+4+/cjUgyOd1C/SRGpONuv8G38ho9zqWhpgJF7+7j3O9DLI684bC7i4mFKPim2sYkwoxj7ONmhDYxHWeUMzxhGy69+IryGi0Yrh7VRa9w88RSDLHOLA3LwH9qO9vZ0cyTcQ2zGPkT844/wddK1ZYNNSj7fB/HptvHIc25/FW3nUuOWyqX7Ze7MclWLEtlOPBcGWhrnh/AoOTjePK1Um1fpd3uH5vu4dhwJB9/gI+l1eo1FVtc2hCNuVo5Sm5hpc3yGr/sqI4f4cnH8eBjKarVmJv66iL8c3YR+h30P4C9R8J25P8tiZH7yPpzZCvcKHwUI7qjfxVP9w3H/Iz9+FJ+E41S3ElDIco+7MHR2SHm8k1di/d1ktC5ha9XJpi/U201eNNe/JRjV67g4Zbelt/0wvgtm/BvUQHqGpX4lobay/jwcBVWxtrM4OpltA9gH3P4CCqlazXm4sZSkWPlfej4FFz5Nxu/am4r8TSNN1H5PQM3jyYitpf77yUmw+ZexTf1Qc+z/U08odUFiLQ8y/tf8qGzpkBU0zKtmU5Epb3GtJxq5TwXf2DStuPoY8Ovw+M1mw6ED4pcjuh1D5CY8QMztGtp5b5Yiinr1ljay95GnsePZvy+xx+IOyXZsAqJv09C2IyrSMj8hdly+Sow49jfGJrQ33P5ei9GzNa3cF6oVNuiCjNPv8bopSsRZmrrEPRb91X+zey9x9FL4rbnKsSdVq49eeVs5Rq9T2KifO1yjJ3djHpJ5w9EjGgzBsV3EbvB/qFi6PGLivNefAGDh1nL2BsRew8j/uVtTFVjVZI+Xce4y5vQd7xNsg29jNIyqRj0O5uFhE8PlfN/uY3xtzahb6T5GroAaTIWpgBD54kPvbTzTMbQF9ISLbWO4zcjvugxnN8yMdBmCevAQiG2pPgxEi5Mh8NhLqtcx4tLEWLxHRyx8xF98xImf1GWhCm/W4bQ8D8Qpy4Ts43XCRuJvkf2Y/Tjq0j8cF+1t7qs7NtdTHq4DRHWazkGY/+zKmV29WsB5oRp9fX/dUnBNyVJyq/HSB/i6/FLUPBNubf+epyOIerY7Knfzjz5jxxrUl/2HBnOQIWT97JRjDTRCJ4ap0N/PucyvspOUQNenYpyd8i91Tn8CF6ozr6bU1z1CQVrbeJLdDFSgkd3X6FWvlELzrNLWg52C39GmgebgMSIwwFj1ucXHm0fYNRvWjY+yOu4G/D91p+ItA4A4rIkmzJWvTqFyTbCLXzpZXwWBZrbsVV4dWoyeuh2NYRFW4mR8KVXdZHm1m4uG3vsfaK2k79Znoy6lfzzDF9U59t0zapXQoyJMQClXi9WZmLc7NeAsmeHkWhje02MuF7dwx1VYJuu5bLaXrpeOJZe/apmsTJz6Kp5hZv3ihSBYiNG/LajwwHPx1ThyaN//cum1Xcatuc+UGJI7p/D6uGG/VpuzPFXjNzA23sHUayKAzEIvrHyOE5PE0XCUJx6dUN27Ou/bsJCvU9o9eiLTQ/y5e8bf+7BpgHa59JrBP64cg61HoLs3a/lgMOrGAnD8lu5isioOIR9I8RrORD5xyZ8qlUEj1gn5f1NFN2caXuTHrLzMX5JDNe+x4UZ5nO6tZFHYeAuTLyJkfHb/8EsTRQIr7MOnEPvnpYyeLymdzESHHcGCdnu5TJEVDWc69pxLy5djFRjysZCJOTZlDX3PUaMd3eWgqKPYcIFm9/LtqzG9B37EKKzGoSei18oYuR4njJrH3IME1S7z9i8SRYjQROvIUn67NJHjBhjaQP9XD5+rjv6/syMpGD4G8XpnXJ1iY0Ii8WQx4pznnRvnWUmIQYDC2+ZHWdRMHw4jYGjzfdrQzAVYETOOSSJv9fEzD+70SfcqHOzxYhmF118aHW2F2BWMeK8uQphxy/alPUhxmWMM2wWuwKj3qsCwlKviVm7MEoSQMWP4SZGwpwY+lwVZJbj9GQEf2+1CdhPwcWPykO8sodbEeUvL8LvQ3c8RqV8T/2A7LGG7d3GIuEYhyMUOx5XKmLoQzbGmr6znsOYfZHuvR+yxxp283qc9Tze/w9IjHS5+IoWNKh3ALw3RosdG7Cj6YAjPAYTk7T4jQXYeOgU8u+8wQ/NGbdx4By6GGlAfV0NSl/kYdtv0+BcsBF5L3+pzpi7MNLFiMeYEU+xIqNx+rX6NL7qGQ4MkgbNacj+oHxmJ3wcjmHI+E8N5q/6hFsHUhAlzRaEx2CJGj8jPa1/f2G8ICqk77fhoRhXce8stkp1c67ArktP8V21S9XHPKTq2Y8Mh913MSKy4e148Xfae2EmrOxfZK2MVWODnNipxn24XL/wYJNxkzZmKfzNVGaUraamCt8fHURKlPRULhLOjOcoV/dasFvCFTkqyYgLWrELp7Jv4OnncpWPGrw6Nc5se2FmxFVfh5qKj7iXsRYznE6sOHwfXzwxqYtSJSbqYEqUPHMV6dyJa+9+oa5OnTlyY9l/O4rcScvdHh1UuYpUbF9aXaMKsKZEXw8MmrUd2XfVrFpPbiNz9Sg3e7TMGOGvGLmD+rpCVHzcieOr4+FMnoqjd7NQLYuTO/hxM0l5eqyOo+OOH0eVJChqzyAnWWNUfR08Gw9+SgLgDn7eT8YAYeyNXJ2O76rgqSs5hvydCfK1DhVmolL9vObdGkwXjvEqRmLm4lGZIjYq/1mC0eJxfabgr+I7slCpKzmC7D9j5FmJnpEjsf2aer3GfNzfZJ25cSA+54NyE696hv2DLfUTr2F9r4sEfwPYqzHr/GfEL5yDnpLwCJ2AQZu/qTMCJRg9zeYptnjtgWeQIDvS3sRINKJ2lCozBnk/kLjxAoZMX4LwYVP1v4hxaRgwpomZxLhzAwAAIABJREFUIPG6Lf1eFyM1mJ1bgZkZDzA0aS7Chy/AgFUvMEMVJ7N27DXPVAeNxdADVUrdsv7DyJlJSr8KGYF+S55gmnxcBcYvHKo7WcEpDxXxd/62zKgsPC79wLSzVdBmS/Tf5D5qljMp92nN6S72HDNiFyvSJ/u6IijeHnLfCE+bRSh+iDEHzO3Wc+9Z1UG/jfisVITJcSgh6DlvLeL+U5xrNwGjl/Ehpn65i4k3NqFf8miEzpqL6FuF6vkeYtRO4z4jjle6MPEjgF2f2RGWZfW/ckeus7RsSzy/+N641jGM/PsWxhx1oqc0+9BvpiEe/tmpzliEoP8VTZjdNn4bNgC992Yg4dN9febIKkb0ZWPFD5FwZzcGb5+HCFO8zwxEroy3KaexZ8jXgjnNy3C3qlANSP+J+2m+xxiuKixRHsr9vI+0gd7GscHY+6RCGfNcFXi6N8amPt6O9+27gMSI2Ohd5X1YWBgiIjpW3uWAbauvU/fX0fQMTfja2yiRHU0bp0oXIy7U/HMYg8QZifB0PK5UloxZHVRdjLg9KdeeZnspvzDLUfXsABblqDEyDV9RsKCXe2dJzMYH+Sm+ZTZFvWFOy/2kdMyPORgvPKFPzP6gLvP5hb93xZhvctKxo3ch/+IGRJuWQRkOe5uIka0PUSm1TcMH5EwRn1JL7RmO9MeVskNc8Wg7wtX66rZ3c8g9M6DwaNTNVXQdC03LG4bh9Gs1aYKHpWTuTBvCsuHVKUSJ7IhixFWE6wvN7aq3mcvMid5mdvYQlqe5rHUPwI4OnasGfMiZYhEPggB22fQbwVnrMWEr8h4rcSJPbp/D5ulRlnM11S7+fO+vGLmL+m9bkCq2dc8xuPjxluzMV/23HIlCXRzj/sDLKkkEFOJDjjmFbZ/l6fghL5vKw80VIqvGjImrKgOZptmWCKy+lassD6u/gCsLhbp6mhnpGYnVV9VZlsYCPLU4Y/pSsZpM5MwRyyGduz+2P7os163sYYpJMEn86mKk4gE2ifVu6n0zxIhzw1pjBli6Tt/diD8vPen3Qdj4JEbiMPSgMnMwa++J5jlHTdkh0O8FMZJy/i4Gijw6BmBw+i/zbIZ6naCRuZgsz2B8Rdxkq6PcE71Xf1SO05ZkORzQZz1UoRG84Clm5/2L0Zu/YnbGZfR1OBC86LlynPq/+9gmcNpUnXVH3/7pvO1TeemcS/YhQX4iX4gRK8xLtXRHWZ9V0MpjzJgkXprrfk+bvA3j5JkAy9IuoYxTri81Hxe2BLEflbJPzEpyv/86HDAEgq+peY2UvuI5g7afUoSPF1GjX6v4Max11L/7dByR8n37N4xUy279rdSmuuCzmRnRz/X5BCIFv6FpFgwx0uyZhpnZ+CA/mLPbKFFrc/fXmdkflNURZQ+xNcr9e1MdQsdi+b6TOLAi1vTgyfSbphhv4nuKEdVAXSpDWIuIkXDETDSeZCcOP6pvdufmYAtixO07h6cYCQd0hzgQMeJwYPQh7Ul8AxpkoVGDN2fF5VJCB9NsUvEI24VpZL0zrb2NUsmht3yvLxNyc7yFc7t1MsNh98ceelmEIHH3492vq9vRIqS08w07/VqZfRC+14+xOuRudbFez6ibVVxK19Pt5e28kaOQpGdOG4uVV9X9ZmyO8Xo+rU0tjr5+zNcCzLYuYXEIgslyPd0mgp00G0qvdnZ06GWQ4qV6ut2E9WMsZRTP63D0wJTdV+UMWk/vnsXaUVbn2NoGzf3ffzFScnOKpW5CuuCSHVhm4sb4rvbDn0jWvzOWTbmJG4dWprtwEzcOB3rO34IiefmWJTZEECNKZrDx2HhsIx58KECD/Ps7qPxvBaaZHFcHkq9ckMWGuXyGXSeeykC16y7svm97MWIzo6ELmxrM2JxmaRujHjJnPomR4Riyu1yZPbhUhik78jBkyiyE2MWk6O1puU5rfy6IkeQdeyx1NuI8UiwzFZpoSMm8YZuxKGjaHUyXxIr4vRYPkvcKQ6ODEfr7K6Scv41BkgCRz98Lff/8LNsreedBs2MeiB0ER19f3mNZ9mN9Kq+MIVpMxWOYZwoMR95NODiWq8uO3AWMck5tKZTle6GM7mUxyiEtjbLbu0x33L2ICNO4qKf0tZQjeh3GyGLJU5yJIHyKr2HYIstyM2v76PWyX/rl+OMAEtW2sNZbn7kpfohJT44gesMMhA5pYqZSvn4nEyNWm7XC/xQjqlG7lBhpzjItKVD7yVdU6hskarMUxqubg9xcMeLzU3TrzW8Y9j1RM0K5XPAU8yENcLqj6VH4aPUTn7J7FlKmQdOtYxoOu5utvIgz45zejrfaQBAATdVNcL5bYpmWf2IkHAnbruG1HlCu2Vt4Fcqn2UIXFjbfGUJAnHUIx5EX3mdnPJ1T/9wPO4YfeaEuMxO5EdpIFytiGYXvZXZisOLMPTlO5K8D01txRkS7rub4Wxx7K8e6o38X/okRB2K270eZJAZqTiNrunrdPlNx64c0Y3IL365OMj9h83otMTbEUhbhOPe4j7uoK9qB9W5BnYZYsjvG9Jmb0BJmRtpsmVZbiBEHgkcew7hMLbhbi6+oxMwz7zD+z+PoF+WLk6Ux1gqvAYkRQaTIS9W0etm8iiKm127E52jxICHov+EbZh+7iD6TbsApx4gon6XkV8O5YZVFGAVQd90h9idmRLlO2Mk8ZanW6wPoq83Q6w77XcRutswG6dfyPAujCSKT8y0cZ/pcHjdaQYxoAfpfTiPKlO44GUOfKWUflzHa1va68Cn2wZ4LdmOiLDY8iBtv9Q5zYsj9m24xKVM/XMO467sxMMXTPmGGGGn2Mq20e0oMm8u/ZVpp934pS6+aXKYVAM/We4kP/1OMqEbqUmJED2B34WOOJQbCGxTh23C/THXkXC7UV5ejvFz7q1KzGLng5mC3mxgxByr7JEYaalCh10mrm/BadBsb9cwWnUyMSJnPvNXt5VmM06aSdcFagUfbw20HdE0QmF8NoeSPGJmW9VbdrVpaTmZugwot+5eN4NAFgs139mJEmPnwIHI9nVP/3A87GjMfzREjkUjeehyZmZk4tMr+5mpug+beHFpfjDj0eI1CvMsaJfPVZ9l2JQi+PhtXUy2zP4KocBc+ohi5gx83Jhu8CsfpIqKhEDV1SjxI48+92OZFjDTWXUd5eYHHv9KXK80xKg4HorY+RJkkWOs+4mKKH22hz2b4sLTK4YApm9Y0y3X0c7XUzIh6/uAY9J6ZibjtrzA1q1yNS1Ed94tfMHrmcMP23u4lrfFdc8VI3i9MP/vD49+0I5fQTyu3fi0pU1YEovfUYNb2nXDIMybGZ0pmr4Tm20R3eH1wnrUyaq/6sqobGP67slRLjwn5dAKR1r2D9Gs9xJR3hZj01tNfPoYuFZZ+6cfZBHI7Wl6MaCl9NWFk+yrEkohjpF9iRJ/5CECMyG0gxdosRvTFTFNmMqW89zH+7HSbmbOZyP6gxLD6ks1KrJv1/eD9z1AlP0DzJ4BdyObVZAC7ZezRuGvhV4oR1aBdSow4hEBcP1L76mvtaz7g8h9+pKttJzFixLFoT9d9WKZV8w8OywHvvnUw3UH99QCbdJHS1LGGw+4m3FphZkSf9fFnKZkQOxF4at+VCLUMSLq9TOJhKx5qcUN/78M0SwplvfymYxQb259Ptb+HWQf9GNvlVoJYsVxPL4c/dtTL8BE54y0Otri0y+syraZ4aunv20CMOIwYEGXZVRiW/ZUjx33YZ9nSyhT4Mq3/TmqOcjAmnzqhBNG7buLLlQTzLIzDWKblvlysaVv3mJSHT/LNvwpNpvYV+4cuIDqwGBHLK2+W6ET/uVcw4aySUnj26Wu2S52sDlKr/K8LhBoEtEzLLc7EW1srAiQlvxLx86SUwtWYsmo+HD03Ycy5KiT+sVSNsWmBtL6SzXVHPwAx4jBiQJTYioEYdEfZHNA+y5a2TMtm1sTU/hb76GVsCzGiLRVrYvbGLR5GKbNfYkSvl2U5mGYLXazY1dtiI+mYftGIWLEWwx5qQfF2O8YL2axaKrWvXzMcS/TUvj/vp2GgVtd2fA1IjHQtx12BqavVSXes7NK6egBu471fSuYfmyfKouPv5mC3hxgRAth/PdqFtVoq14bvKFxps5xAd75t0tx6sId0Qx2W8Z+aAtef4wwxUnR9odkRmpaLT1o6XBs7KzdxY6+Xir93YaAlqNvtRr+iUE0uYJfm1mawlOs7DAefK4HtLtv0uJ6OM+rm88xIfBbeynW2W6pkBLC7BZQ3FYOiCwHzefUlaP4GsAdiR30WsnkB7CEjU7By3SrMjbXs2+GFTYmDHoMmY/Eaf4/THP/WW6YllU0PEq86gZNTxuHKV2m2wj2oXeHZEC8ut6DyAALY+yTiymclwN4lXT/RzLM+S9N4Df+djjP30SZs7gh008PwtRgl71VRg5k7DzR5zXaZGbGt+wAM2FSkxJNkKdml3MYg2+PMNm/2MQGKEUdUppoGuBKTVy+2eUptV85wRO2QAuKrMWXtFYzPq0T8HAccwTMw4mg1nGmZyp4nLZHWV7Kd7hAHIkYc0GMXpHiM8OUYJe+L4cG5dhhiJcmSitdrG+lltHPKm54ZCc/MV5aTFedgiDVtsJUf/Vp2jrwDDj2exD7Owy8x4jD2EfE3gN2rvbafUutrP+PCTQ/N/Y5iRO0E/fv3R1RUVPOnW62dqr3+D1+Kq1+1JVcNKHtzEyfWTsHw3mowlxREvOIwrufvxVh16Y7uxEkzI6vU9LDhMUjedQ3vKspQXFwti5V3edON80j1a64Y8ZjaV0sxbE3xOxqHnquxIr8eYfuAIDiE+tqn9hV2HHfVq+mH4zFQW2MrB1Unmusl1U1M7etqQOXHe7i4b42cXtYpBWFLKWpPH8QKU9BxIrI/qOljG8rwb942/DbNiQUbz+NZidYmLrje5WHyQGEaXGdFzMJUhU/3tXTCTjld8qFT2zDbFJBrpDV2NVTi470MrJ0yXEnvK+2DETMRSU6rDaVMYIfwXEtb7KpC0d+52PabYRPpuPkbz+NG1nJhBiQAMeIwxFXJ34fUVMAORI5ajpNPS1D7vRjfJbHy8yH2Thxochb0WQ7LLIZ8E/AgRhyC4Ksvug9zat9SVNco2d3cxU8gdpyG3E9qW9cX4X4gqX0HLcbxm0/lmJGntzKw1Nd0sRGzcOCGctyzh9nYMMo8uBs3ymBEjhoBpzNO/ZuFW8VS7MYNKEHf2ufDMVxc0iEsgXJfOiXEXdjEVcjX1mNEruHF1V34KqXnFWNIdN6Vcrd0at+4/YdRoQax/3w4x7xnSM9RuPCuUA5idzVcw8c7f2D1jAH6poOhMUPhnDIEg0z9TLNvJNbeKVHWW9e8xukE7fOmXgdj0LYSxanPL8eUrWcxcLyaOjd2NaIWbkefPsY52laMDMaA3y9h6G+HjTINm4qIcZsxZM0jTFX3H/E+MxKBtXdKFbvUPsdBn2eSjTobzNp8FqgYcQxA1Pafut2nbstE5Og4IzYrYjTCh01AT1Nba7Em1Zi69QEmX/qEkeOkMikiJXnXY4yXUgKLcSYWnr3Wxfpb3fn2nNo3VE0Za5fi16HHiFxCzCk125QYQ2K5XtC6o5ikBmVPfZmBISsTYZy3N3oljEKINRBbL2NgYsTI/PUYSa9OycHeYWqd+qxfgwELDP9LF1d2KYvluhgB+ubAfYUb/8RICCKvKumCnd9uYrSWBlhL7fv+LqZ4CmDfugXRe9diwMpEaO0TmjADkYd3YbSaItlZ7EFQJWTidY2yqqPkzpqAZhwHb3+An/KDPn92Uh+M7Q9+KllC617hZKxNX7Pwomfecn1CXqKdz9L0OZrqDxQjFqM3ZbBO9f3oXbhfrO6t4Skot+EVTkWpAkXYn8G8sZwLDV8LcPCamvVIPZc+Q9JcMeKpbPrn5vX4xi7rljS9wu7sJXdsNj0MX4qcN9q+J9rSLvHV/IRda+vwpTl480sQEXq5tGPd4y6G7Xui77kh2lKy45V/xHN5uqa3TQzN9pDL2WRb2xwjb9jXVN1cMDvtgYgRUQhqNtNeq/DsQIaeqU22lSA8AhIj3jY9rHqCR/+q9heuo7W1lKrZe59xt6PXTQ/zbuCbx1khdQCfuBMFT5W0vs+eXsPuyT4O7CP/xPkH6nHPbmDvVE/HCcJBds6VvTf0GAv9s0u4uUw4R3PFiMNYmqVdy22fENP428KbHoqCo+48rvxmXkbXc8Ii3Cu6oaQM1m0g2MZmRkXjJGxWDt6rST6q32Vjro9Zp7xuLHjxFYaONOwfmBgRZjGaCtgWZzmEWRtjk0NLkHfetyZiRgbizBulXzd8K8BiU9sa9dJs6PdrwGJEepK+AiMOlZhjYET72Mxw6Fm48qowO+8fRPeT6qBm0ZI+y6/R0/z6XRerbQRH3zY2QnWGpe/cg8elchmzHdrxiRfVneKt15L/D0Hv4+cx6ZvnZVBiOl25fkIZ3cvQ9MyItBO6t40WjesZQsN+mZnCkptgEcqn2cD06i2Ll8dNDx8i/vIxTPAgRgbcUJbDma4jtJWz+CEmZNnFjEh1EERBYyke7hhhehDXJFPD0/GgRHkQ1vj9JlbLe8UotvF27PD0B+q+JI34fnO1TyJo8wN1nxG/dnlvuixiOSlGbDuqf0YUDdrx3kdi/qHrePrxB8q1QGHJmZaCdIve4e/CI1jYz0h9F558HA8+lqJadqBcaKipQNE/Wfh9SLBbRqp2ESOC4LCLdTB2Z5ec3EE2KQYj4dyZ724PVz2qy8vx9Ij7Jmdym0qb2OU/xccf5ahRbSM7znIwdike7LbuUWPJHtVQg7L3N7EzoYeR/lYWNfZiRLpmePI+XPv3K35VqRs8yr+XyvkRBUttlvPIGzjexptvv1AlZkOTy+jhGIn/8ASsOe9+nNT2pZ9f4V7uekzUAt+FtMM+L9OS+9hobLz0Al8rtbrUo7r0HW7umYa+QYbAaRkxIvXfSMw/+QAf9exd9agu+gdnF/XDweeqGHlzFoPtlsAFYMfI+SdN/aa+ugj/nF2EfvoyLs/t7OgRi5WnbuHJ08e4eXo1Rum2bmocisHSo9fw8OkT3M3eiqTenn7fXmLEAX05lOzsN7EsTOakF8Zv2YR/iwpQp26qWFeVjw8PV2FlrFlMyP1SF0z25xZnW+xSBjtCo7D81E68+nYZVWrQuyycGgpRWX4OV5Z4smkE5ua8U5MyNKLyfSH2zOrr08x68LBNGL7jHZymAPFKzDz3CbFTjOu1qRgJ/Q0jDv7A9GybbFpnPyNx5xUMjvWUGUgtc+g8XPumiJHa5wdbfq+S5ogRia2gQYhIycO4I98wI0fdBFEWJBWYebYIo2cZtpfY0lP+Sr8R0v7qIkUSI8LeJDKPMsPm8/j0eVOOtODgugsB5Xp60Lr8W/ulQday9Ji0BNHXL2Liu7umjFBTPxRi0pXfzTwLZXQvgy9iRCpnDPocOYL4lzcxRRBCSZ9uGtfTl2B53kBRroc1C5ZQPltx4E2MSO09biGib17C5C+KQEv6dB1jshYgZM5OVYy4pwnul3MViRbbSdeW7Df+/lFEr4v1LjAEQeGq/4HnWasRa5qhs2MpFGPX5+FlqXov9VXIhI7F+ryXKFV9g8bSh9gxwpdZjrHI+K9amfH8lIdEbTVJoKx7OI5ixINhrJ2W/zsQHjlA3bHUroPwM18ZiRwwwPsA1e2YjMSAAb4Mii3BmJEhreb5AX1Zjq9t5//vwhEeboh9/49viTrzHK1i9x4jsO3mNyNLnKsRtZXlKHlxGkndrg874Oi9Afd+SmKkAd8KFpsd2e5oD9a5SzCgb7LoablVM9s5dG4m/i1Tl/qqD4oryr/g5nrrburrUFhUjopqYWVFYzleZs72fh9bV4ii8gpU12urEVxoLH+JzNnWB6ie7hMpuPhRET7NzfzlbRwOSIzExMQgLi6uS4DmzTj8zhOc/JxsdE4GxI0y31/wI+11M2845KVz8tJ0u/VC3J+5eP6tQt1vxoXa9xcwozvyMvAM3sizt7V4ftCyt0V3tAfr3Pl9xDAnhj5/6L6PS0u3bd9ZOHT7LUq0eEaX3W7qxt4krsZalL4txKG5g5p+sLn5ASrkfulCY20p3hYewtxB/jz8M677KS+x6esFaJuAxEjTA3Tnu/FQYHW+NuuKHLJOLcFhOGImJkFOMOCUEgccwqnT2bjx9DPKtadDWuKDAAdOtlNLtFPXOkePfrGY5HRi6rjBQsKHrlVHb9yHr7iFH5LT0/AVl+d3n3p7swm/6yQc9Is2B6DvWYtBJ/djzL/31YxYDzH20LA2EFehGDx+KpzOSYjtZxUMfRE72QnnpFj082epVN9YTHY6MSm2X2BCIikL72qlWRU7gdRy7UsxojojXS21LwfBlusktGVns6WxFEtMHqC9b6j8iIK1kTbxRJ2tniwv+2bHYaD3hnv4KYmR2qfYS5HfBo5rx2n7Tt8P9TS8dgH99zHxylKE2MUXdgfOUy7ioxxn4s+miv6zSTFCMcJBszsMKN2qjmYxUl9dLu9MrwTjb0SSZdPFTn8j7VZt6/9Nju3bNjYbcPyZ3M/KXl9AMpnkfbUzMSCKkW931V3p8zH2ym4MTGkicUNnqmcgZZVjTspR/uUm1g9svbGEYkRtHM6MtB5kdAZoWzJABsgAGSADZIAMkAE7BgISI11ug0CHAxQj7CB2HYSfkQsyQAbIABkgA2SADLQeAwGJka7ouHfFOrHjtF7HoW1pWzJABsgAGSADZIAMNJ8BipFA1tDxGK6HJQNkgAyQATJABsgAGSADzWaAYoQQNRsiPhVo/lMB2pA2JANkgAyQATJABrojAxQjFCMUI2SADJABMkAGyAAZIANkoF0YoBhxDMAYp1PeIG30ACry7qjIWWdyTwbIABkgA2SADJCB9mEgIDESFhaGiIiIdlFPLQtKMH4v/AFtMzSXqw5lb/KwLLx9GqNl68Y60J5kgAyQATJABsgAGSADHZuBgMRIV2rUPieeo6K8HOVVdbooqXx+CMM5VdcFxGbH7nxdqR+xLmSNDJABMkAGyAAZCISBbi9GDKP1xspb6ixJ41ucG06gDNvQFrQFGSADZIAMkAEyQAbIQMszQDEizIAEb3qAcpcLLtd33FjS8sYmwLQpGSADZIAMkAEyQAbIABkwGKAYEcRIj6Mv0CCLkSJcnW8YicDQFmSADJABMkAGyAAZIANkoOUZCEiMxMXFITExsYvFFATBmf9FiRupfoydgkgheC0PHm1Km5IBMkAGyAAZIANkgAwEJEZSU1ORlpbWxcRID5x4KS3RcqHxUx6mUIx0sfZlZ+eATwbIABkgA2SADJCBjsYAxYguOgQx8l8GwvXPCW1Hg5blIZNkgAyQATJABsgAGegaDFCM6KJD3HOkEh9u7EHK0HDODuj26RrAc+BiO5IBMkAGyAAZIANkoOMwQDEiOttB47D24mN8LqlATYO6ZOvFUQoS0UZ8Tx7IABkgA2SADJABMkAGWoiBgMRIcnIyVqxY0fUawUaM1D8/2PXq2ULw8KlCx3mqwLZgW5ABMkAGyAAZIAOdkYGAxEhnrGjTZQ7G7zeKldS+DaV4nvk7hoYT6qbtRhvRRmSADJABMkAGyAAZIAOBMUAxos8SMICdnSiwTkS70W5kgAyQATJABsgAGQiMAYoROzHC1L5cmqZzEVjH4oBEu5EBMkAGyAAZIANkoGkGKEZ0pzMYi24Uc9ND3R5Nw8MORhuRgf+/vbtpieuKAzj8TUZLW2uFJO0m4sbSgrSL6sKSUARJhL5BoFTSlW3jplCKMkIoXSRIhCxCaQo1ZdpgJd0ksY0IHUsSHe93+RdfiG5mnHvHzJ3ceRZuRsa5c84zMr9zz51hgAEGGGCAAQZaMSBGjrz5fum7P/avGUn+jqUJsFqB5b78MMAAAwwwwAADDBxnIFOMjI6OxuTkZOG28vRe/iWqye5H+j6KmxfhOQ6P3zPCAAMMMMAAAwww0IqBTDEyNTUV09PTBYuRnjh/Y21/m9bOvbg6BFYrsNyXHwYYYIABBhhggIHjDHR9jPR+fi0qlUpU/nwQmwdfdLi9uhBDR7ZvHTeIfu+FxgADDDDAAAMMMMBAegNdHiNHLlrf256VRG3j15h9O/1AwmfMGGCAAQYYYIABBhhIZ6DLY6QU/UMfxZVyOcrlcnzz2VtxxhmRgm2/S/eC8A/EeDHAAAMMMMAAA+0zkClGRkZGYnx83JtW4cIAAwwwwAADDDDAAAOZDWSKEbXYvlo01saaAQYYYIABBhhgoKgGxIiSzVyyRX1ReF7+4TPAAAMMMMAAA+0xIEbEiBhhgAEGGGCAAQYYYCAXA2IEvFzgWW1oz2qDcTbODDDAAAMMMNDJBsSIGBEjDDDAAAMMMMAAAwzkYkCMgJcLvE4udMdmBYkBBhhggAEGGGiPATEiRsQIAwwwwAADDDDAAAO5GBAj4OUCz2pDe1YbjLNxZoABBhhggIFONtBkjPTGm++MxdjYWLw/fMqbVwHDAAMMMMAAAwwwwAADLRtoKkb6L/0UG0kSycHP042V+PFiX8sP3smV5tisIjDAAAMMMMAAAwww8HwNNBUjPYMLcXezGtXq49g+CJKdf5fjyuDzPTiTb3wZYIABBhhggAEGGCiugaZi5BBAT7zxxc8HZ0m2YmVu0NkRp+cYYIABBhhggAEGGGAgk4GUMVKK0sBMLG/ubtmqxcPFiUwPehg3xa08z9HcMsAAAwwwwAADDDDQ2ED6GDk9Hyu1/Ri5f/2cGFHBDDDAAAMMMMAAAwwwkMlA6hh55cOlWNu9bmSnGre/bFw6StD4MMAAAwwwwAADDDDAQD0DqWPkzMLq/qdqbf8VP7xrYOsNrNvZYIABBhhggAEGGGCgsYHsMbJViW/7Gv9xg298GGCAAQYYYIABBhhgoJ6B1DFy+J0jO1G9txQzH5yNPnvkMu0nE64/AAACaUlEQVSRqzcpbveCZYABBhhggAEGGOgGA6ljpFR6Od6bvhZ3HmzE5pPa/patp7/FrCARJAwwwAADDDDAAAMMMJDCwMnEyOPl+DrFg3ZD5XmOVjMYYIABBhhggAEGGGhsIHWM9F+6Fet7H+27Het35uLC2T71J8QYYIABBhhggAEGGGAgtYHUMfLs07RcwJ56sJVx4zI2PsaHAQYYYIABBhjoLgPZY8RH+4oR9c8AAwwwwAADDDDAQAsGUsfIa5/cinVfeghdC+iseHTXiof5Nt8MMMAAAwwwUM9A6hgpnZ6Plb1rRmpx//o5b8q9KWeAAQYYYIABBhhggIFMBtLHyMBMLG8mkSS1eLg4kelB65WR21UzAwwwwAADDDDAAAPdYyB1jLx64Wb8s7tNK9mKlblBMaKCGWCAAQYYYIABBhhgIJOB5mJk4HIsVipR+X011v47+KLDJ3fj+8HuqTaFbq4ZYIABBhhggAEGGDhZA03FyLOL1vfOiCSRbD+K2zPDmerHBJ7sBBpP48kAAwwwwAADDDDwohpoKkZ6Xh+OT2fLUS6XY/6rj2P4lAl/USfccbPLAAMMMMAAAwww0CkGmoqRTjlYx+GFwwADDDDAAAMMMMBAcQyIERcb2W7HAAMMMMAAAwwwwEAuBsQIeLnAs6JRnBUNc2kuGWCAAQYYYCCrATEiRsQIAwwwwAADDDDAAAO5GBAj4OUCL2s9u5+VFwYYYIABBhhgoDgGxIgYESMMMMAAAwwwwAADDORiQIyAlws8KxrFWdEwl+aSAQYYYIABBrIaECNiRIwwwAADDDDAAAMMMJCLgf8Bmqk4uMsdiK4AAAAASUVORK5CYII=;" vertex="1" parent="1">
          <mxGeometry x="1064" y="146.59" width="176.49" height="126.82" as="geometry" />
        </mxCell>
      </root>
    </mxGraphModel>
  </diagram>
</mxfile>
